SplineFontDB: 3.0
FontName: BetecknaLowerCaseBoldItalicCondensed
FullName: BetecknaLowerCase
FamilyName: BetecknaLowerCase
Weight: Medium
Copyright: Drawn by Johan Mattsson
Version: 
ItalicAngle: 0
UnderlinePosition: -200
UnderlineWidth: 50
Ascent: 800
Descent: 200
LayerCount: 2
Layer: 0 1 "Back"  1
Layer: 1 1 "Fore"  0
XUID: [1021 880 1988980000 3066022]
FSType: 0
OS2Version: 3
OS2_WeightWidthSlopeOnly: 0
OS2_UseTypoMetrics: 1
CreationTime: 1176121501
ModificationTime: 1406153134
PfmFamily: 17
TTFWeight: 500
TTFWidth: 5
LineGap: 90
VLineGap: 0
Panose: 2 0 6 3 0 0 0 0 0 0
OS2TypoAscent: 0
OS2TypoAOffset: 1
OS2TypoDescent: 0
OS2TypoDOffset: 1
OS2TypoLinegap: 0
OS2WinAscent: 0
OS2WinAOffset: 1
OS2WinDescent: 0
OS2WinDOffset: 1
HheadAscent: 0
HheadAOffset: 1
HheadDescent: 0
HheadDOffset: 1
OS2SubXSize: 650
OS2SubYSize: 699
OS2SubXOff: 0
OS2SubYOff: 479
OS2SupXSize: 650
OS2SupYSize: 699
OS2SupXOff: 0
OS2SupYOff: 0
OS2StrikeYSize: 49
OS2StrikeYPos: 258
OS2Vendor: 'PfEd'
OS2CodePages: 00000010.01140000
OS2UnicodeRanges: 800000cf.40000000.00000000.00000000
Lookup: 4 0 1 "'liga' Standard Ligatures in Latin lookup 0"  {"'liga' Standard Ligatures in Latin lookup 0 subtable"  } ['liga' ('latn' <'dflt' > ) ]
Lookup: 258 0 0 "'kern' Horizontal Kerning in Latin lookup 0"  {"'kern' Horizontal Kerning in Latin lookup 0 subtable"  } ['kern' ('latn' <'dflt' > ) ]
DEI: 91125
ShortTable: maxp 16
  1
  0
  182
  92
  5
  70
  4
  2
  0
  1
  1
  0
  64
  0
  2
  1
EndShort
LangName: 1033 "" "" "" "FontForge 2.0 : BetecknaLowerCase : 4-10-2008" 
GaspTable: 1 65535 2 0
Encoding: UnicodeBmp
UnicodeInterp: none
NameList: Adobe Glyph List
DisplaySize: -72
AntiAlias: 1
FitToEm: 1
Grid
-1000 142 m 0
 2000 142 l 0
EndSplineSet
BeginChars: 65539 190

StartChar: .notdef
Encoding: 65536 -1 0
Width: 450
Flags: W
LayerCount: 2
Fore
SplineSet
33.5859 -20 m 1,0,-1
 114.414 553 l 1,1,-1
 466.414 553 l 1,2,-1
 385.586 -20 l 1,3,-1
 33.5859 -20 l 1,0,-1
118.281 70 m 1,0,0
 326.281 70 l 1,0,0
 381.719 463 l 1,0,0
 173.719 463 l 1,0,0
 118.281 70 l 1,0,0
EndSplineSet
EndChar

StartChar: exclam
Encoding: 33 33 4
Width: 213
GlyphClass: 2
Flags: W
LayerCount: 2
Fore
SplineSet
118.191 713 m 1,0,-1
 222.158 713 l 1,1,-1
 149.943 232 l 1,2,-1
 45.1045 232 l 1,3,-1
 118.191 713 l 1,0,-1
37.2549 117.001 m 128,-1,6
 59.5449 137.832 59.5449 137.832 71.6338 138.174 c 128,-1,7
 83.7217 138.517 83.7217 138.517 84.4697 138.517 c 0,0,0
 107.194 138.517 107.194 138.517 123.634 118.442 c 128,-1,8
 140.073 98.3672 140.073 98.3672 134.943 62 c 0,9,10
 129.611 24.2021 129.611 24.2021 107.206 2.10059 c 128,-1,11
 84.7998 -20 84.7998 -20 61.0469 -20 c 128,-1,12
 37.2939 -20 37.2939 -20 20.9697 1.50977 c 128,-1,13
 4.64551 23.0186 4.64551 23.0186 9.86133 60 c 0,4,5
 14.9639 96.1709 14.9639 96.1709 37.2549 117.001 c 128,-1,6
EndSplineSet
EndChar

StartChar: quotedbl
Encoding: 34 34 5
Width: 308
GlyphClass: 2
Flags: W
LayerCount: 2
Fore
SplineSet
195.649 620.816 m 128,-1,2
 185.167 676.72 185.167 676.72 188.111 697.598 c 0,0,0
 188.15 697.865 188.15 697.865 188.278 698.613 c 0,1,2
 188.41 699.361 188.41 699.361 188.447 699.624 c 0,3,4
 193.371 734.258 193.371 734.258 215.166 754.543 c 128,-1,5
 236.96 774.829 236.96 774.829 248.822 775.172 c 128,-1,6
 260.688 775.516 260.688 775.516 261.408 775.516 c 0,0,0
 283.926 775.516 283.926 775.516 300.216 754.843 c 128,-1,7
 316.504 734.171 316.504 734.171 311.12 696 c 2,8,9
 310.887 694.345 l 1,10,-1
 310.438 692.712 l 2,8,9
 303.288 666.654 303.288 666.654 292.104 642.023 c 128,-1,10
 280.918 617.393 280.918 617.393 273.481 604.856 c 128,-1,11
 266.044 592.319 266.044 592.319 251.948 572.213 c 128,-1,12
 237.854 552.107 237.854 552.107 235.121 547.71 c 2,0,1
 208.73 505.219 l 1,2,-1
 206.628 553.503 l 2,0,1
 206.132 564.912 206.132 564.912 195.649 620.816 c 128,-1,2
56.4492 620.816 m 128,-1,15
 45.9668 676.72 45.9668 676.72 48.9111 697.598 c 0,0,0
 48.9502 697.864 48.9502 697.864 49.0791 698.613 c 0,1,2
 49.21 699.361 49.21 699.361 49.2471 699.624 c 0,16,17
 54.1719 734.258 54.1719 734.258 75.9658 754.543 c 128,-1,18
 97.7607 774.829 97.7607 774.829 109.624 775.172 c 128,-1,19
 121.486 775.516 121.486 775.516 122.208 775.516 c 0,0,0
 144.726 775.516 144.726 775.516 161.016 754.843 c 128,-1,20
 177.305 734.171 177.305 734.171 171.92 696 c 2,21,22
 171.687 694.345 l 1,23,-1
 171.238 692.712 l 2,21,22
 164.088 666.654 164.088 666.654 152.903 642.023 c 128,-1,23
 141.718 617.393 141.718 617.393 134.282 604.856 c 128,-1,24
 126.845 592.32 126.845 592.32 112.749 572.214 c 128,-1,25
 98.6523 552.107 98.6523 552.107 95.9219 547.71 c 2,13,14
 69.5312 505.219 l 1,15,-1
 67.4287 553.503 l 2,13,14
 66.9316 564.912 66.9316 564.912 56.4492 620.816 c 128,-1,15
EndSplineSet
EndChar

StartChar: numbersign
Encoding: 35 35 6
Width: 409
GlyphClass: 2
Flags: W
LayerCount: 2
Fore
SplineSet
155.296 640 m 1,0,-1
 248.896 640 l 1,1,-1
 229.147 500 l 1,0,0
 269.147 500 l 1,0,0
 288.896 640 l 1,1,-1
 383.296 640 l 1,2,-1
 363.547 500 l 1,0,0
 409.947 500 l 1,1,-1
 391.467 369 l 1,2,-1
 345.067 369 l 1,0,0
 339.002 326 l 1,0,0
 385.401 326 l 1,1,-1
 367.487 199 l 1,2,-1
 321.087 199 l 1,0,0
 300.068 50 l 1,1,-1
 205.669 50 l 1,2,-1
 226.688 199 l 1,0,0
 186.688 199 l 1,0,0
 165.669 50 l 1,1,-1
 72.0693 50 l 1,2,-1
 93.1357 199.342 l 1,0,0
 46.877 200.342 l 1,1,-1
 64.6016 326 l 1,2,-1
 111.002 326 l 1,0,0
 117.209 370 l 1,0,0
 70.8086 370 l 1,1,-1
 89.3369 501.348 l 1,2,-1
 135.596 500.348 l 1,0,0
 155.296 640 l 1,0,-1
210.777 369.776 m 1,0,0
 204.602 326 l 1,0,0
 244.602 326 l 1,0,0
 250.699 369.221 l 1,0,0
 210.777 369.776 l 1,0,0
EndSplineSet
EndChar

StartChar: dollar
Encoding: 36 36 7
Width: 654
GlyphClass: 2
Flags: W
LayerCount: 2
Fore
SplineSet
276.422 9.50977 m 1,0,1
 252.021 13.7676 252.021 13.7676 227.542 29.3877 c 0,2,3
 197.099 48.8154 197.099 48.8154 182.417 65.1475 c 0,4,5
 168.563 80.5576 168.563 80.5576 156.739 96.0029 c 2,6,-1
 148.436 106.849 l 1,7,-1
 212.063 212.05 l 1,8,-1
 224.281 194.439 l 2,9,10
 239.681 172.242 239.681 172.242 250.477 160.441 c 0,11,12
 260.525 149.458 260.525 149.458 279.918 138.433 c 0,13,14
 298.27 128 298.27 128 320.639 128 c 0,15,16
 353.312 128 353.312 128 366.028 136.005 c 0,17,18
 381.315 145.627 381.315 145.627 405.224 183.46 c 0,19,20
 418.328 204.195 418.328 204.195 421.112 223.928 c 0,21,22
 423.094 237.98 423.094 237.98 419.975 252.319 c 0,23,24
 412.835 285.137 412.835 285.137 381.559 302.508 c 0,25,26
 332.167 329.941 332.167 329.941 329.651 331.102 c 0,27,28
 282.47 352.86 282.47 352.86 259.935 381.936 c 0,29,30
 233.36 416.222 233.36 416.222 226.807 456.391 c 0,31,32
 221.507 488.871 221.507 488.871 226.358 523.265 c 0,33,34
 227.433 530.879 227.433 530.879 229.005 538.574 c 0,35,36
 237.741 581.359 237.741 581.359 259.898 616.451 c 0,37,38
 282.109 651.629 282.109 651.629 316.788 675.149 c 0,39,40
 343.363 693.174 343.363 693.174 373.49 699.35 c 1,41,-1
 372.651 770 l 1,42,-1
 471.071 770 l 1,43,-1
 451.229 699.698 l 1,44,45
 497.405 691.043 497.405 691.043 527.515 655.553 c 2,46,-1
 537.21 644.127 l 1,47,-1
 472.629 547.752 l 1,48,-1
 460.992 563.033 l 2,49,50
 439.278 591.548 439.278 591.548 402.034 591.548 c 0,51,52
 393.728 591.548 393.728 591.548 384.614 590.154 c 0,53,54
 364.122 587.021 364.122 587.021 348.434 570.021 c 0,55,56
 332.559 552.819 332.559 552.819 327.496 531.975 c 0,57,58
 326.885 529.458 326.885 529.458 326.523 526.904 c 0,59,60
 324.059 509.43 324.059 509.43 333.24 488.827 c 0,61,62
 345.485 461.346 345.485 461.346 374.949 447.921 c 2,63,-1
 429.823 422.921 l 2,64,65
 453.229 412.258 453.229 412.258 476.833 385.197 c 0,66,67
 498.192 360.71 498.192 360.71 512.435 324.037 c 0,68,69
 527.381 285.555 527.381 285.555 522.953 238.188 c 0,70,71
 522.416 232.436 522.416 232.436 521.599 226.647 c 0,72,73
 515.274 181.804 515.274 181.804 492.281 134.983 c 0,74,75
 444.725 38.1396 444.725 38.1396 360.91 14.9014 c 1,76,-1
 358.564 -50 l 1,77,-1
 262.281 -50 l 1,78,-1
 276.422 9.50977 l 1,0,1
EndSplineSet
EndChar

StartChar: percent
Encoding: 37 37 8
Width: 502
GlyphClass: 2
Flags: W
LayerCount: 2
Fore
SplineSet
179.647 473 m 0,0,1
 179.042 469.413 179.042 469.413 179.141 465.416 c 0,2,3
 179.352 456.805 179.352 456.805 185.175 452.042 c 0,4,5
 189.202 448.75 189.202 448.75 193.728 448.75 c 0,6,7
 194.55 448.771 194.55 448.771 195.026 448.824 c 0,8,9
 195.875 448.941 195.875 448.941 196.374 449.054 c 0,10,11
 197.267 449.274 197.267 449.274 197.805 449.453 c 0,12,13
 199.776 450.108 199.776 450.108 202.849 451.943 c 0,14,15
 208.809 455.503 208.809 455.503 211.747 463.638 c 0,16,17
 213 467.105 213 467.105 214.188 474 c 0,18,19
 214.537 476.021 214.537 476.021 214.608 478.776 c 0,20,21
 214.779 485.282 214.779 485.282 211.843 488.941 c 0,22,23
 206.98 495 206.98 495 199.95 495 c 0,24,25
 196.515 495 196.515 495 193.141 493.231 c 0,26,27
 190.89 492.052 190.89 492.052 186.839 488.521 c 0,28,29
 182.4 484.652 182.4 484.652 180.506 477.36 c 0,30,31
 180.214 476.363 180.214 476.363 179.647 473 c 0,0,1
119.217 541.208 m 128,-1,11
 138.876 570.359 138.876 570.359 162.832 581.229 c 128,-1,12
 186.787 592.096 186.787 592.096 210.133 592.096 c 0,0,0
 212.556 592.096 212.556 592.096 226.8 591.467 c 128,-1,13
 241.042 590.838 241.042 590.838 262.122 576.712 c 128,-1,14
 283.201 562.586 283.201 562.586 294.485 533.821 c 128,-1,15
 305.77 505.056 305.77 505.056 300.684 469 c 0,16,17
 295.343 431.148 295.343 431.148 275.818 401.25 c 128,-1,18
 256.293 371.351 256.293 371.351 231.128 357.714 c 128,-1,19
 205.963 344.078 205.963 344.078 192.244 343.778 c 128,-1,20
 178.524 343.479 178.524 343.479 177.4 343.479 c 0,0,0
 152.299 343.479 152.299 343.479 131.166 356.357 c 128,-1,21
 110.034 369.236 110.034 369.236 99.0244 399.741 c 128,-1,22
 88.0166 430.245 88.0166 430.245 93.9072 472 c 0,9,10
 99.5566 512.056 99.5566 512.056 119.217 541.208 c 128,-1,11
346.837 161 m 0,11,12
 346.23 157.488 346.23 157.488 346.332 153.462 c 0,13,14
 346.54 145.248 346.54 145.248 352.199 140.717 c 0,15,16
 356.063 137.622 356.063 137.622 360.67 137.622 c 0,17,18
 361.533 137.644 361.533 137.644 362.033 137.7 c 0,19,20
 365.343 138.077 365.343 138.077 370.179 140.943 c 0,21,22
 376.192 144.507 376.192 144.507 379.065 152.312 c 0,23,24
 380.304 155.678 380.304 155.678 381.377 162 c 0,25,26
 381.771 164.314 381.771 164.314 381.843 167.349 c 0,27,28
 382.056 176.092 382.056 176.092 376.321 180.699 c 0,29,30
 372.675 183.628 372.675 183.628 367.914 183.628 c 0,31,32
 363.36 183.628 363.36 183.628 357.78 180.283 c 0,33,34
 350.241 175.765 350.241 175.765 347.784 165.942 c 1,35,36
 347.61 165.49 347.61 165.49 346.837 161 c 0,11,12
286.998 230.283 m 128,-1,33
 307.088 259.354 307.088 259.354 330.17 270.029 c 128,-1,34
 353.252 280.704 353.252 280.704 375.571 280.704 c 0,0,0
 379.034 280.704 379.034 280.704 393.692 279.731 c 128,-1,35
 408.352 278.758 408.352 278.758 429.285 264.729 c 128,-1,36
 450.221 250.7 450.221 250.7 462.078 222.51 c 128,-1,37
 473.937 194.32 473.937 194.32 468.673 157 c 0,38,39
 463.297 118.894 463.297 118.894 443.41 89.6426 c 128,-1,40
 423.524 60.3916 423.524 60.3916 398.408 46.2363 c 128,-1,41
 373.291 32.0811 373.291 32.0811 359.504 31.7803 c 128,-1,42
 345.715 31.4785 345.715 31.4785 344.59 31.4785 c 0,0,0
 319.44 31.4785 319.44 31.4785 298.769 44.3613 c 128,-1,43
 278.099 57.2451 278.099 57.2451 266.641 87.6689 c 128,-1,44
 255.184 118.094 255.184 118.094 261.095 160 c 0,31,32
 266.908 201.212 266.908 201.212 286.998 230.283 c 128,-1,33
463.841 587.781 m 1,33,-1
 519.306 499.997 l 1,34,-1
 83.3984 23.2188 l 1,35,-1
 27.9346 111.003 l 1,36,-1
 463.841 587.781 l 1,33,-1
EndSplineSet
EndChar

StartChar: ampersand
Encoding: 38 38 9
Width: 672
GlyphClass: 2
Flags: W
LayerCount: 2
Fore
SplineSet
461.027 223.629 m 1,0,0
 484.331 275.686 484.331 275.686 491.658 327.628 c 0,0,0
 492.865 336.182 492.865 336.182 493.64 344.736 c 2,3,-1
 495.562 366 l 1,4,-1
 595.375 366 l 1,5,-1
 592.118 345.546 l 2,4,5
 571.782 217.846 571.782 217.846 520.376 127.992 c 1,0,0
 611.264 -20 l 1,1,-1
 472.961 -20 l 1,2,-1
 441.702 29.5498 l 1,0,0
 373.019 -30.6748 373.019 -30.6748 279.675 -41.9209 c 0,11,12
 272.841 -42.7441 272.841 -42.7441 262.641 -42.7441 c 0,0,0
 226.087 -42.7441 226.087 -42.7441 187.064 -25.6426 c 128,-1,13
 148.041 -8.54102 148.041 -8.54102 116.184 38.4482 c 128,-1,14
 84.3252 85.4375 84.3252 85.4375 81.1309 145.56 c 0,15,16
 79.7021 172.436 79.7021 172.436 84.7822 208.45 c 128,-1,17
 89.8633 244.464 89.8633 244.464 102.879 274.962 c 128,-1,18
 115.895 305.461 115.895 305.461 129.919 328.598 c 128,-1,19
 143.944 351.734 143.944 351.734 162.22 373.4 c 128,-1,20
 180.494 395.066 180.494 395.066 192.661 406.916 c 128,-1,21
 204.829 418.766 204.829 418.766 214.025 426.9 c 1,0,0
 206.229 463.652 206.229 463.652 207.953 485.537 c 128,-1,24
 209.676 507.422 209.676 507.422 210.818 515.52 c 0,0,0
 215.509 548.774 215.509 548.774 229.275 577.935 c 128,-1,25
 243.042 607.095 243.042 607.095 259.908 629.392 c 128,-1,26
 276.775 651.689 276.775 651.689 292.901 665.637 c 0,27,28
 328.289 696.243 328.289 696.243 359.632 700.059 c 128,-1,29
 390.977 703.875 390.977 703.875 402.492 703.875 c 0,0,0
 437.342 703.875 437.342 703.875 473.052 687.541 c 128,-1,30
 508.76 671.207 508.76 671.207 518.231 632.711 c 2,31,-1
 521.476 619.528 l 1,32,-1
 444.357 541.412 l 1,33,-1
 436.483 560.67 l 2,32,33
 426.675 584.652 426.675 584.652 406.706 586.244 c 128,-1,34
 386.738 587.836 386.738 587.836 383.163 587.836 c 0,0,0
 350.688 587.836 350.688 587.836 331.012 564.741 c 0,35,36
 312.676 543.221 312.676 543.221 308.937 516.717 c 0,0,0
 303.127 475.529 303.127 475.529 336.277 423.901 c 2,0,-1
 461.027 223.629 l 1,0,0
256.607 327.321 m 1,0,0
 225.211 295.781 225.211 295.781 207.781 264.048 c 128,-1,39
 190.354 232.314 190.354 232.314 186.869 207.615 c 0,0,0
 184.663 191.978 184.663 191.978 186.63 176.324 c 0,40,41
 190.809 143.05 190.809 143.05 213.33 117.559 c 128,-1,42
 235.851 92.0684 235.851 92.0684 258.109 83.2129 c 128,-1,43
 280.368 74.3574 280.368 74.3574 295.767 74.3574 c 0,0,0
 299.067 74.3574 299.067 74.3574 303.45 74.8867 c 0,44,45
 348.706 80.3594 348.706 80.3594 388.281 116.802 c 1,0,0
 256.607 327.321 l 1,0,0
EndSplineSet
EndChar

StartChar: quotesingle
Encoding: 39 39 10
Width: 140
GlyphClass: 2
Flags: W
LayerCount: 2
Fore
SplineSet
23.7324 699 m 0,2,3
 28.6709 734.003 28.6709 734.003 50.4121 754.823 c 128,-1,4
 72.1543 775.643 72.1543 775.643 84.1846 776.354 c 128,-1,5
 96.2129 777.062 96.2129 777.062 97.6328 777.062 c 0,0,0
 119.138 777.062 119.138 777.062 134.93 757.13 c 128,-1,6
 150.722 737.198 150.722 737.198 145.332 699 c 0,7,8
 139.9 660.491 139.9 660.491 117.539 617.576 c 128,-1,9
 95.1768 574.66 95.1768 574.66 74.2207 546.096 c 2,0,1
 57.4502 523.236 l 1,2,-1
 48.166 546.906 l 2,0,1
 14.415 632.944 14.415 632.944 23.7324 699 c 0,2,3
EndSplineSet
EndChar

StartChar: parenleft
Encoding: 40 40 11
Width: 246
GlyphClass: 2
Flags: W
LayerCount: 2
Fore
SplineSet
48.2168 324.095 m 128,-1,2
 71.5889 489.785 71.5889 489.785 74.4688 503.945 c 0,3,4
 95.8945 609.328 95.8945 609.328 149.353 682.748 c 128,-1,5
 202.812 756.168 202.812 756.168 275.993 793.323 c 2,6,-1
 300.135 805.58 l 1,7,-1
 279.837 661.679 l 1,8,-1
 272.264 655.699 l 2,7,8
 204.121 601.895 204.121 601.895 181.293 502.655 c 0,9,10
 179.512 494.906 179.512 494.906 155.692 326.049 c 128,-1,11
 131.873 157.191 131.873 157.191 131.586 150.168 c 0,12,13
 127.44 48.9287 127.44 48.9287 178.345 -8.19141 c 2,14,-1
 183.696 -14.1973 l 1,15,-1
 162.002 -167.991 l 1,16,-1
 140.971 -153.979 l 2,15,16
 80.5342 -113.716 80.5342 -113.716 48.4922 -37.4365 c 128,-1,17
 16.4512 38.8418 16.4512 38.8418 23.9883 146.216 c 0,0,1
 24.8438 158.404 24.8438 158.404 48.2168 324.095 c 128,-1,2
EndSplineSet
EndChar

StartChar: parenright
Encoding: 41 41 12
Width: 260
GlyphClass: 2
Flags: W
LayerCount: 2
Fore
SplineSet
132.38 -34.9688 m 128,-1,2
 78.7988 -111.701 78.7988 -111.701 6.97461 -151.979 c 2,3,-1
 -18.0098 -165.991 l 1,4,-1
 3.66992 -12.293 l 1,5,-1
 10.6182 -6.28711 l 2,4,5
 77.8896 51.8594 77.8896 51.8594 102.169 152.18 c 0,6,7
 103.853 159.133 103.853 159.133 127.629 327.69 c 128,-1,8
 151.406 496.248 151.406 496.248 151.907 504.746 c 0,9,10
 157.774 604.098 157.774 604.098 104.961 658.792 c 2,11,-1
 99.1787 664.779 l 1,12,-1
 119.514 808.932 l 1,13,-1
 140.288 796.238 l 2,12,13
 202.757 758.072 202.757 758.072 235.372 684.685 c 128,-1,14
 267.989 611.298 267.989 611.298 259.93 505.806 c 2,15,16
 209.585 149.015 l 2,0,1
 185.961 41.7627 185.961 41.7627 132.38 -34.9688 c 128,-1,2
EndSplineSet
EndChar

StartChar: asterisk
Encoding: 42 42 13
Width: 190
GlyphClass: 2
Flags: W
LayerCount: 2
Fore
SplineSet
144.684 737.587 m 1,0,1
 144.68 737.604 144.68 737.604 144.681 737.607 c 1,2,3
 144.675 737.608 144.675 737.608 144.684 737.587 c 1,0,1
145.66 736.662 m 1,4,-1
 168.465 735.99 l 1,5,-1
 179.554 735.555 l 1,6,-1
 184.232 698.317 l 1,7,-1
 168.869 658 l 1,8,-1
 163.591 658 l 1,9,-1
 177.298 637.199 l 1,10,-1
 156.627 603.405 l 1,11,-1
 126.817 578.722 l 1,12,-1
 97.8857 621.334 l 1,13,-1
 58.2959 579.264 l 1,14,-1
 32.9834 603.168 l 1,15,-1
 23.1113 638.115 l 1,16,-1
 42.8301 658 l 1,17,-1
 34.8721 658 l 1,18,-1
 32.498 698.269 l 1,19,-1
 46.3643 736.439 l 1,20,-1
 81.4092 735.178 l 1,21,-1
 84.2471 755 l 1,22,-1
 86.5596 771.396 l 1,23,-1
 119.688 779.396 l 1,24,-1
 150.56 771.396 l 1,25,-1
 145.66 736.662 l 1,4,-1
69.3564 658 m 1,26,-1
 70.5488 658 l 1,27,-1
 69.3564 658 l 1,26,-1
EndSplineSet
EndChar

StartChar: plus
Encoding: 43 43 14
Width: 445
GlyphClass: 2
Flags: W
LayerCount: 2
Fore
SplineSet
293.321 295.146 m 1,0,0
 271.437 140 l 1,1,-1
 167.54 140 l 1,2,-1
 188.584 294.857 l 1,0,0
 76.3389 293.856 l 1,1,-1
 94.8779 425.281 l 1,2,-1
 208.66 423.287 l 1,0,0
 226.819 569 l 1,1,-1
 331.151 569 l 1,2,-1
 310.859 425.146 l 1,0,0
 420.601 426.146 l 1,1,-1
 402.263 296.146 l 1,2,-1
 293.321 295.146 l 1,0,0
EndSplineSet
EndChar

StartChar: comma
Encoding: 44 44 15
Width: 139
GlyphClass: 2
Flags: W
LayerCount: 2
Fore
SplineSet
48.6475 125.186 m 0,0,1
 69.752 144.829 69.752 144.829 92.7529 145.494 c 0,2,3
 93.4795 145.516 93.4795 145.516 94.1992 145.516 c 0,4,5
 116.717 145.516 116.717 145.516 132.367 125.655 c 0,6,7
 149.295 104.171 149.295 104.171 143.91 66 c 0,8,9
 140.439 41.3936 140.439 41.3936 128.434 18.751 c 0,10,11
 117.782 -1.33594 117.782 -1.33594 108.799 -13.7637 c 0,12,13
 99.1152 -27.1602 99.1152 -27.1602 80.1982 -42.9482 c 0,14,15
 62.0869 -58.0625 62.0869 -58.0625 57.167 -60.8887 c 0,16,17
 54.4248 -62.4639 54.4248 -62.4639 40.9297 -71.96 c 0,18,19
 28.0859 -80.998 28.0859 -80.998 20.9307 -68.1475 c 0,20,21
 13.7754 -55.2969 13.7754 -55.2969 24.3564 -42.1963 c 0,22,23
 28.1113 -37.5488 28.1113 -37.5488 33.4775 -28.5771 c 0,24,25
 39.2148 -18.9863 39.2148 -18.9863 44.9053 -7.44531 c 0,26,27
 48.6543 0.157227 48.6543 0.157227 51.4473 6.88574 c 1,28,29
 38.3447 8.71777 38.3447 8.71777 29.9238 21.3438 c 0,30,31
 19.5381 36.917 19.5381 36.917 19.8896 56.2793 c 0,32,33
 19.9795 61.1914 19.9795 61.1914 20.709 66.3643 c 0,34,35
 20.7705 66.8018 20.7705 66.8018 20.9609 67.9297 c 0,36,37
 21.1514 69.0576 21.1514 69.0576 21.2148 69.499 c 0,38,39
 26.1719 104.266 26.1719 104.266 48.6475 125.186 c 0,0,1
EndSplineSet
EndChar

StartChar: hyphen
Encoding: 45 45 16
Width: 424
GlyphClass: 2
Flags: W
LayerCount: 2
Fore
SplineSet
405.856 197 m 1,0,-1
 62.6572 197 l 1,1,-1
 80.9873 326.948 l 1,2,-1
 424.343 328.052 l 1,3,-1
 405.856 197 l 1,0,-1
EndSplineSet
EndChar

StartChar: period
Encoding: 46 46 17
Width: 166
GlyphClass: 2
Flags: W
LayerCount: 2
Fore
SplineSet
38.1533 117.001 m 128,-1,1
 60.4443 137.832 60.4443 137.832 72.5322 138.174 c 128,-1,2
 84.6221 138.517 84.6221 138.517 85.3682 138.517 c 0,3,4
 108.094 138.517 108.094 138.517 124.533 118.442 c 128,-1,5
 140.973 98.3672 140.973 98.3672 135.843 62 c 0,6,7
 130.511 24.2021 130.511 24.2021 108.105 2.10059 c 128,-1,8
 85.6992 -20 85.6992 -20 61.9463 -20 c 128,-1,9
 38.1924 -20 38.1924 -20 21.8682 1.50977 c 128,-1,10
 5.54395 23.0186 5.54395 23.0186 10.7607 60 c 0,11,0
 15.8633 96.1709 15.8633 96.1709 38.1533 117.001 c 128,-1,1
EndSplineSet
EndChar

StartChar: slash
Encoding: 47 47 18
Width: 449
GlyphClass: 2
Flags: W
LayerCount: 2
Fore
SplineSet
144.52 -20 m 1,0,-1
 24.4561 -20 l 1,1,-1
 360.689 721.729 l 1,2,-1
 475.468 724.588 l 1,3,-1
 144.52 -20 l 1,0,-1
EndSplineSet
EndChar

StartChar: zero
Encoding: 48 48 19
Width: 512
GlyphClass: 2
Flags: W
LayerCount: 2
Fore
SplineSet
174.086 367 m 0,0,1
 156.182 240.073 156.182 240.073 180.36 182.478 c 0,2,3
 203.983 126.205 203.983 126.205 229.772 123.618 c 128,-1,4
 255.562 121.031 255.562 121.031 259.529 121.031 c 0,0,0
 301.12 121.031 301.12 121.031 335.535 167.084 c 0,5,6
 379.851 226.382 379.851 226.382 398.698 360 c 0,7,8
 417.666 494.465 417.666 494.465 384.281 551.543 c 0,9,10
 366.569 581.825 366.569 581.825 347.031 587.607 c 128,-1,11
 327.494 593.39 327.494 593.39 317.54 593.39 c 0,0,0
 298.164 593.39 298.164 593.39 272.149 579.435 c 128,-1,12
 246.134 565.479 246.134 565.479 221.357 524.881 c 0,13,14
 188.841 471.601 188.841 471.601 174.086 367 c 0,0,1
146.901 598.776 m 0,17,18
 193.532 670.158 193.532 670.158 245.68 695.774 c 128,-1,19
 297.827 721.39 297.827 721.39 337.561 721.39 c 0,0,0
 357.779 721.39 357.779 721.39 396.621 710.874 c 128,-1,20
 435.461 700.357 435.461 700.357 471.72 642.883 c 0,21,22
 531.527 548.082 531.527 548.082 504.839 358.169 c 0,23,24
 504.482 355.631 504.482 355.631 503.828 350.64 c 0,25,26
 503.176 345.648 503.176 345.648 502.817 343.111 c 0,0,0
 478.397 169.996 478.397 169.996 409.954 76.1592 c 0,25,26
 359.854 7.4707 359.854 7.4707 314.026 -7.74023 c 128,-1,27
 268.198 -22.9502 268.198 -22.9502 241.745 -22.9502 c 0,0,0
 207.189 -22.9502 207.189 -22.9502 162.751 -1.3252 c 128,-1,28
 118.311 20.2988 118.311 20.2988 86.8643 89.0137 c 0,29,30
 42.8418 185.208 42.8418 185.208 67.6396 361 c 0,15,16
 88.5889 509.509 88.5889 509.509 146.901 598.776 c 0,17,18
EndSplineSet
EndChar

StartChar: one
Encoding: 49 49 20
Width: 356
GlyphClass: 2
Flags: W
LayerCount: 2
Fore
SplineSet
194.943 580 m 1,0,-1
 103.846 580 l 1,1,-1
 125.349 740 l 1,2,-1
 326.943 740 l 1,3,-1
 308.854 605.105 l 1,4,-1
 238.091 98 l 1,5,-1
 238.921 98 l 1,6,-1
 222.275 -20 l 1,7,-1
 112.88 -20 l 1,8,-1
 123.082 58 l 1,9,-1
 122.108 58 l 1,10,-1
 194.943 580 l 1,0,-1
EndSplineSet
EndChar

StartChar: two
Encoding: 50 50 21
Width: 478
GlyphClass: 2
Flags: W
LayerCount: 2
Fore
SplineSet
313.207 407.539 m 2,0,1
 353.815 468.97 353.815 468.97 360.665 517.531 c 0,2,3
 361.916 526.396 361.916 526.396 362.019 534.815 c 0,4,5
 362.603 583.479 362.603 583.479 322.019 595.5 c 0,6,7
 315.396 597.462 315.396 597.462 307.977 597.462 c 0,8,9
 290.323 597.462 290.323 597.462 267.625 586.52 c 0,10,11
 237.46 571.979 237.46 571.979 224.021 539.537 c 2,12,-1
 214.022 515.396 l 1,13,-1
 132.814 588.757 l 1,14,-1
 141.289 604.746 l 2,15,16
 203.482 722.08 203.482 722.08 319.922 722.08 c 0,17,18
 322.747 722.08 322.747 722.08 326.149 721.996 c 0,19,20
 413.39 719.824 413.39 719.824 449.585 660.156 c 0,21,22
 479.682 610.538 479.682 610.538 469.113 535.616 c 0,23,24
 466.857 519.624 466.857 519.624 462.735 502.52 c 0,25,26
 440.294 409.427 440.294 409.427 366.571 307.127 c 2,27,-1
 220.426 110.146 l 1,28,-1
 423.64 111.073 l 1,29,-1
 405.159 -19.9443 l 1,30,-1
 86.6016 -21.0557 l 1,31,-1
 86.751 -20 l 1,32,-1
 -9.70312 -20 l 1,33,-1
 313.207 407.539 l 2,0,1
EndSplineSet
EndChar

StartChar: three
Encoding: 51 51 22
Width: 453
GlyphClass: 2
Flags: W
LayerCount: 2
Fore
SplineSet
325.342 470.905 m 128,-1,2
 340.703 502.002 340.703 502.002 343.529 522.039 c 0,0,0
 346.262 541.407 346.262 541.407 341.719 559.136 c 0,3,4
 333.572 590.933 333.572 590.933 299.461 600.412 c 0,5,6
 290.574 602.883 290.574 602.883 277.909 602.883 c 0,0,0
 261.289 602.883 261.289 602.883 237.639 596.204 c 128,-1,7
 213.987 589.524 213.987 589.524 197.568 562.077 c 2,8,-1
 186.711 543.928 l 1,9,-1
 107.265 614.51 l 1,10,-1
 119.782 631.786 l 2,9,10
 185.226 722.104 185.226 722.104 300.979 722.104 c 0,0,0
 303.577 722.104 303.577 722.104 308.926 721.996 c 0,11,12
 365.383 720.88 365.383 720.88 402.503 686.661 c 128,-1,13
 439.622 652.441 439.622 652.441 448.139 610.236 c 128,-1,14
 456.656 568.03 456.656 568.03 451.339 530.336 c 0,0,0
 448.521 510.358 448.521 510.358 437.736 473.652 c 128,-1,15
 426.952 436.945 426.952 436.945 391.355 391.426 c 1,0,0
 413.987 350.825 413.987 350.825 423.687 303.587 c 128,-1,18
 433.386 256.349 433.386 256.349 426.913 210.465 c 1,0,0
 426.983 210.954 426.983 210.954 426.668 208.828 c 0,1,2
 426.354 206.702 426.354 206.702 422.51 182.595 c 128,-1,19
 418.666 158.488 418.666 158.488 396.723 114.695 c 128,-1,20
 374.779 70.9023 374.779 70.9023 342.432 39.7773 c 128,-1,21
 310.083 8.65137 310.083 8.65137 269.834 -9.54688 c 128,-1,22
 229.584 -27.7461 229.584 -27.7461 187.134 -27.9932 c 0,23,24
 185.201 -28.0049 185.201 -28.0049 181.254 -28.1357 c 0,25,26
 177.308 -28.2666 177.308 -28.2666 175.188 -28.2666 c 0,0,0
 90.001 -28.2666 90.001 -28.2666 15.7764 26.3525 c 2,25,-1
 -0.128906 38.0566 l 1,26,-1
 81.0273 136.616 l 1,27,-1
 91.1709 130.085 l 2,26,27
 116.371 113.858 116.371 113.858 137.611 106.429 c 128,-1,28
 158.851 99 158.851 99 168.688 99 c 128,-1,29
 178.526 99 178.526 99 190.601 99.4453 c 0,30,31
 202.676 99.8896 202.676 99.8896 207.761 99.9912 c 0,30,31
 238.497 100.604 238.497 100.604 262.476 118.362 c 128,-1,32
 286.457 136.12 286.457 136.12 298.469 163.168 c 128,-1,33
 310.479 190.217 310.479 190.217 314.576 219.255 c 0,0,0
 314.905 221.589 314.905 221.589 316.771 237.322 c 128,-1,34
 318.636 253.056 318.636 253.056 307.116 277.978 c 128,-1,35
 295.597 302.899 295.597 302.899 272.397 314 c 1,0,0
 186.886 314 l 1,1,-1
 199.846 431.517 l 1,2,-1
 283.274 433.961 l 1,0,0
 309.979 439.809 309.979 439.809 325.342 470.905 c 128,-1,2
EndSplineSet
EndChar

StartChar: four
Encoding: 52 52 23
Width: 427
GlyphClass: 2
Flags: W
LayerCount: 2
Fore
SplineSet
271.333 263 m 1,0,0
 297.012 445.047 l 1,0,0
 174.06 263 l 1,0,0
 271.333 263 l 1,0,0
379.474 264 m 1,0,0
 416.462 264 l 1,1,-1
 397.653 139 l 1,2,-1
 364.24 139 l 1,0,0
 341.812 -20 l 1,1,-1
 229.812 -20 l 1,2,-1
 252.665 142 l 1,0,0
 12.6641 142 l 1,1,-1
 22.4258 211.205 l 1,2,-1
 388.878 742 l 1,3,-1
 446.901 742 l 1,4,-1
 379.474 264 l 1,0,0
EndSplineSet
EndChar

StartChar: five
Encoding: 53 53 24
Width: 451
GlyphClass: 2
Flags: W
LayerCount: 2
Fore
SplineSet
168.646 720 m 1,0,-1
 433.807 720 l 1,1,-1
 419.279 600 l 1,2,-1
 257.833 600 l 1,0,0
 233.687 442.369 l 1,0,0
 236.78 442.4 236.78 442.4 239.795 442.4 c 0,0,0
 284.011 442.4 284.011 442.4 314.627 434.763 c 128,-1,6
 345.242 427.126 345.242 427.126 378.179 395.586 c 0,7,8
 406.126 368.822 406.126 368.822 417.826 327.856 c 128,-1,9
 429.525 286.891 429.525 286.891 427.729 258.794 c 128,-1,10
 425.933 230.697 425.933 230.697 424.415 219.943 c 0,0,0
 419.499 185.094 419.499 185.094 403.838 144.797 c 128,-1,11
 388.176 104.501 388.176 104.501 359.151 67.1182 c 128,-1,12
 330.129 29.7344 330.129 29.7344 286.326 7.05664 c 128,-1,13
 242.522 -15.6211 242.522 -15.6211 191.602 -15.9863 c 0,14,15
 189.647 -16 189.647 -16 185.738 -16.1875 c 0,16,17
 181.826 -16.375 181.826 -16.375 179.702 -16.375 c 0,0,0
 136.865 -16.375 136.865 -16.375 93.2607 4.32324 c 128,-1,16
 49.6582 25.0225 49.6582 25.0225 17.1904 56.4756 c 2,17,-1
 4.83496 68.4443 l 1,18,-1
 75.3428 161.166 l 1,19,-1
 86.2246 152.238 l 2,18,19
 121.604 123.213 121.604 123.213 144.565 112.381 c 128,-1,20
 167.525 101.55 167.525 101.55 204.459 101.998 c 0,21,22
 236.942 102.392 236.942 102.392 264.105 125.742 c 128,-1,23
 291.269 149.093 291.269 149.093 301.76 174.368 c 128,-1,24
 312.248 199.643 312.248 199.643 315.107 219.906 c 0,0,0
 316.831 232.133 316.831 232.133 316.501 254.511 c 128,-1,25
 316.171 276.89 316.171 276.89 300.981 294.37 c 0,26,27
 271.424 328.387 271.424 328.387 222.477 332.023 c 2,28,-1
 112.36 327.303 l 1,29,-1
 168.646 720 l 1,0,-1
EndSplineSet
EndChar

StartChar: six
Encoding: 54 54 25
Width: 526
GlyphClass: 2
Flags: W
LayerCount: 2
Fore
SplineSet
66.1094 307.655 m 0,0,1
 69.9492 343.448 69.9492 343.448 74.7344 380.227 c 0,2,3
 74.9424 381.823 74.9424 381.823 75.1699 383.439 c 0,4,5
 80.5215 421.373 80.5215 421.373 97.1621 470.758 c 0,6,7
 114.428 521.993 114.428 521.993 141.294 569.396 c 0,8,9
 180.274 638.18 180.274 638.18 239.743 679.968 c 0,10,11
 299.508 721.963 299.508 721.963 359.251 721.999 c 0,12,13
 360.094 722 360.094 722 361.827 722.019 c 0,14,15
 363.559 722.037 363.559 722.037 364.398 722.037 c 0,16,17
 433.884 722.037 433.884 722.037 466.889 694.114 c 2,18,-1
 478.117 684.615 l 1,19,-1
 415.71 568.126 l 1,20,-1
 402.707 587.857 l 2,21,22
 399.314 593.007 399.314 593.007 382.726 598.64 c 0,23,24
 372.588 602.083 372.588 602.083 358.217 602.083 c 0,25,26
 348.47 602.083 348.47 602.083 334.385 600.132 c 0,27,28
 300.814 595.481 300.814 595.481 273.827 573.805 c 0,29,30
 246.194 551.61 246.194 551.61 228.122 518.864 c 0,31,32
 208.999 484.212 208.999 484.212 197.436 447.293 c 0,33,34
 189.886 423.192 189.886 423.192 184.87 398.099 c 1,35,36
 208.232 419.252 208.232 419.252 232.429 432.554 c 0,37,38
 272.653 454.666 272.653 454.666 302.835 457.444 c 0,39,40
 309.902 458.096 309.902 458.096 316.992 458.096 c 0,41,42
 339.53 458.096 339.53 458.096 362.261 451.523 c 0,43,44
 391.499 443.071 391.499 443.071 405.038 434.707 c 0,45,46
 416.008 427.932 416.008 427.932 429.24 417.258 c 0,47,48
 458.162 393.93 458.162 393.93 472.212 340.518 c 0,49,50
 486.09 287.765 486.09 287.765 477.095 224 c 0,51,52
 464.742 136.432 464.742 136.432 419.434 77.6465 c 0,53,54
 346.104 -17.4902 346.104 -17.4902 246.228 -18 c 0,55,56
 135.964 -18.5625 135.964 -18.5625 91.0068 92.6172 c 0,57,58
 79.6094 120.804 79.6094 120.804 70.6895 173.785 c 0,59,60
 62.3965 223.032 62.3965 223.032 62.9316 252.76 c 0,61,62
 63.4766 283.111 63.4766 283.111 66.1094 307.655 c 0,0,1
175.776 226 m 0,39,40
 170.446 188.212 170.446 188.212 181.525 161.124 c 128,-1,41
 192.602 134.035 192.602 134.035 212.474 122.259 c 128,-1,42
 232.346 110.482 232.346 110.482 257.818 110.482 c 1,0,0
 257.59 110.482 257.59 110.482 258.453 110.487 c 0,1,2
 259.317 110.492 259.317 110.492 272.771 110.716 c 128,-1,43
 286.226 110.939 286.226 110.939 310.494 124.285 c 128,-1,44
 334.762 137.631 334.762 137.631 353.408 165.786 c 128,-1,45
 372.055 193.94 372.055 193.94 377.564 233 c 0,46,47
 383.348 274 383.348 274 366.352 301.375 c 128,-1,48
 349.355 328.75 349.355 328.75 320.935 338.443 c 0,0,0
 315.016 340.462 315.016 340.462 302.986 340.462 c 0,0,0
 298.374 340.462 298.374 340.462 290.115 338.843 c 128,-1,51
 281.856 337.224 281.856 337.224 263.959 330.842 c 0,52,53
 236.17 320.934 236.17 320.934 207.783 286.297 c 128,-1,54
 179.397 251.661 179.397 251.661 175.776 226 c 0,39,40
EndSplineSet
EndChar

StartChar: seven
Encoding: 55 55 26
Width: 431
GlyphClass: 2
Flags: W
LayerCount: 2
Fore
SplineSet
139.982 711.055 m 1,0,-1
 464.627 709.945 l 1,1,-1
 450.422 609.245 l 1,2,-1
 451.348 601.875 l 1,3,-1
 137.563 -20 l 1,4,-1
 3.58594 -20 l 1,5,-1
 314.341 578 l 1,6,-1
 121.214 578 l 1,7,-1
 139.982 711.055 l 1,0,-1
EndSplineSet
EndChar

StartChar: eight
Encoding: 56 56 27
Width: 495
GlyphClass: 2
Flags: W
LayerCount: 2
Fore
SplineSet
141.279 601.536 m 128,-1,2
 165.427 649.957 165.427 649.957 197.143 676.839 c 0,3,4
 252.732 723.958 252.732 723.958 287.346 724.229 c 130,-1,5
 323.617 724.506 l 2,0,0
 390.932 724.508 390.932 724.508 432.175 682.276 c 0,6,7
 459.006 654.805 459.006 654.805 471.349 605.402 c 128,-1,8
 483.692 555.999 483.692 555.999 475.36 504.335 c 0,9,10
 468.353 460.889 468.353 460.889 417.255 387.606 c 1,0,0
 480.258 317.752 480.258 317.752 464.635 207 c 0,13,14
 451.48 113.753 451.48 113.753 409.091 58.6475 c 0,15,16
 372.97 11.6904 372.97 11.6904 322.793 -12.6553 c 128,-1,17
 272.616 -37 272.616 -37 221.416 -37 c 0,18,19
 165.911 -37 165.911 -37 121.077 -8.93359 c 128,-1,20
 76.2441 19.1328 76.2441 19.1328 54.7607 71.6689 c 0,21,22
 33.0381 124.788 33.0381 124.788 44.4932 206 c 0,23,24
 59.3066 311.012 59.3066 311.012 138.017 381.855 c 1,0,0
 104.521 445.948 104.521 445.948 111.411 504.501 c 0,0,1
 117.131 553.115 117.131 553.115 141.279 601.536 c 128,-1,2
158.141 212 m 0,27,28
 152.782 174.017 152.782 174.017 163.491 146.428 c 128,-1,29
 174.201 118.84 174.201 118.84 194.423 106.391 c 128,-1,30
 214.644 93.9424 214.644 93.9424 227.834 93.7227 c 129,-1,31
 241.022 93.502 241.022 93.502 241.852 93.4922 c 0,32,33
 242.682 93.4834 242.682 93.4834 243.017 93.4834 c 0,0,0
 268.48 93.4834 268.48 93.4834 292.041 105.664 c 128,-1,32
 315.6 117.844 315.6 117.844 333.712 145.372 c 128,-1,33
 351.825 172.899 351.825 172.899 357.341 212 c 0,34,35
 363.219 253.674 363.219 253.674 348.133 281.827 c 128,-1,36
 333.047 309.98 333.047 309.98 305.669 318.505 c 0,37,38
 294.281 322.05 294.281 322.05 274.078 322.05 c 0,0,0
 253.56 322.05 253.56 322.05 237.046 316.684 c 0,39,40
 207.524 307.09 207.524 307.09 185.71 279.942 c 128,-1,41
 163.896 252.794 163.896 252.794 158.141 212 c 0,27,28
304.832 438.702 m 0,0,0
 329.467 444.801 329.467 444.801 348.175 467.143 c 128,-1,44
 366.883 489.484 366.883 489.484 371.893 525 c 0,45,46
 375.649 551.635 375.649 551.635 367.529 570.716 c 128,-1,47
 359.408 589.797 359.408 589.797 343.9 598.659 c 128,-1,48
 328.392 607.521 328.392 607.521 309.18 607.521 c 1,0,0
 309.409 607.521 309.409 607.521 308.568 607.516 c 0,1,2
 307.728 607.51 307.728 607.51 297.314 607.29 c 128,-1,49
 286.903 607.07 286.903 607.07 268.675 597.936 c 128,-1,50
 250.444 588.801 250.444 588.801 236.566 569.642 c 128,-1,51
 222.688 550.482 222.688 550.482 218.951 524 c 0,52,53
 213.817 487.604 213.817 487.604 226.415 465.505 c 128,-1,54
 239.012 443.406 239.012 443.406 262.077 437.788 c 0,0,0
 266.484 436.714 266.484 436.714 279.618 436.714 c 0,0,0
 296.802 436.714 296.802 436.714 304.832 438.702 c 0,0,0
EndSplineSet
EndChar

StartChar: nine
Encoding: 57 57 28
Width: 468
GlyphClass: 2
Flags: W
LayerCount: 2
Fore
SplineSet
198.729 501 m 0,0,1
 192.507 456.883 192.507 456.883 207.282 432.484 c 128,-1,2
 222.061 408.085 222.061 408.085 236.481 406.098 c 128,-1,3
 250.902 404.111 250.902 404.111 256.638 404.111 c 0,0,0
 276.84 404.111 276.84 404.111 300.93 414.659 c 128,-1,4
 325.02 425.206 325.02 425.206 341.582 447.895 c 0,5,6
 360.901 474.359 360.901 474.359 366.981 508.613 c 0,0,0
 371.943 536.56 371.943 536.56 362.364 560.682 c 128,-1,9
 352.784 584.804 352.784 584.804 336.642 593.738 c 128,-1,10
 320.499 602.673 320.499 602.673 301.337 602.673 c 0,0,0
 298.8 602.673 298.8 602.673 286.205 601.941 c 128,-1,11
 273.611 601.209 273.611 601.209 253.622 590.306 c 128,-1,12
 233.634 579.403 233.634 579.403 218.383 555.808 c 128,-1,13
 203.133 532.213 203.133 532.213 198.729 501 c 0,0,1
138.412 625.323 m 0,1,2
 174.781 680.771 174.781 680.771 222.185 705.707 c 0,3,4
 268.367 730 268.367 730 317.433 730 c 0,5,6
 366.563 730 366.563 730 405.131 705.643 c 0,7,8
 444.725 680.637 444.725 680.637 464.609 625.085 c 0,9,10
 483.574 572.104 483.574 572.104 473.838 500.168 c 0,11,12
 473.333 496.439 473.333 496.439 473.095 495.202 c 0,13,14
 454.767 399.982 454.767 399.982 390.594 254.948 c 0,15,16
 326.792 110.754 326.792 110.754 243.742 -11.1895 c 2,17,-1
 237.684 -20.083 l 1,18,-1
 94.7217 -18.6855 l 1,19,-1
 187.602 104.097 l 2,20,21
 207.6 131.083 207.6 131.083 240.833 185.606 c 0,22,23
 272.956 238.309 272.956 238.309 294.471 286.366 c 1,24,25
 267.601 276 267.601 276 235.791 276 c 0,26,27
 191.369 276 191.369 276 156.137 298.95 c 0,28,29
 120.15 322.393 120.15 322.393 100.922 373.657 c 0,30,31
 81.624 425.108 81.624 425.108 91.4834 495 c 0,32,33
 102.046 569.88 102.046 569.88 138.412 625.323 c 0,1,2
EndSplineSet
EndChar

StartChar: colon
Encoding: 58 58 29
Width: 144
GlyphClass: 2
Flags: W
LayerCount: 2
Fore
SplineSet
69.1523 463.684 m 128,-1,2
 91.8789 483.836 91.8789 483.836 103.636 484.176 c 128,-1,3
 115.395 484.517 115.395 484.517 116.152 484.517 c 0,0,0
 138.226 484.517 138.226 484.517 155.281 465.126 c 128,-1,4
 172.338 445.735 172.338 445.735 167.298 410 c 0,5,6
 162.171 373.665 162.171 373.665 139.342 352.833 c 128,-1,7
 116.512 332 116.512 332 93.5674 332 c 128,-1,8
 70.6221 332 70.6221 332 53.5117 352.234 c 128,-1,9
 36.4023 372.468 36.4023 372.468 41.5557 409 c 0,0,1
 46.4268 443.532 46.4268 443.532 69.1523 463.684 c 128,-1,2
21.0342 132.001 m 128,-1,12
 43.3252 152.832 43.3252 152.832 55.4141 153.174 c 128,-1,13
 67.502 153.517 67.502 153.517 68.249 153.517 c 0,0,0
 90.9736 153.517 90.9736 153.517 107.414 133.442 c 128,-1,14
 123.854 113.367 123.854 113.367 118.724 77 c 0,15,16
 113.393 39.2021 113.393 39.2021 90.9863 17.1016 c 128,-1,17
 68.5791 -5 68.5791 -5 44.8271 -5 c 128,-1,18
 21.0742 -5 21.0742 -5 4.74902 16.5098 c 128,-1,19
 -11.5752 38.0186 -11.5752 38.0186 -6.35938 75 c 0,10,11
 -1.25684 111.171 -1.25684 111.171 21.0342 132.001 c 128,-1,12
EndSplineSet
EndChar

StartChar: semicolon
Encoding: 59 59 30
Width: 139
GlyphClass: 2
Flags: W
LayerCount: 2
Fore
SplineSet
69.0215 469.684 m 128,-1,2
 91.3906 490 91.3906 490 114.632 490 c 128,-1,3
 137.874 490 137.874 490 154.833 470.891 c 128,-1,4
 171.793 451.781 171.793 451.781 166.746 416 c 0,5,6
 161.644 379.829 161.644 379.829 139.263 358.915 c 128,-1,7
 116.883 338 116.883 338 93.416 338 c 128,-1,8
 69.9492 338 69.9492 338 53.3125 358.316 c 128,-1,9
 36.6748 378.633 36.6748 378.633 41.6641 414 c 0,0,1
 46.6523 449.367 46.6523 449.367 69.0215 469.684 c 128,-1,2
28.0518 147.655 m 0,2,3
 49.6387 167.828 49.6387 167.828 72.6602 168.494 c 0,4,5
 73.3691 168.516 73.3691 168.516 74.0742 168.516 c 0,6,7
 96.8701 168.516 96.8701 168.516 112.104 147.761 c 0,8,9
 128.211 125.813 128.211 125.813 122.877 88 c 0,10,11
 119.595 64.7305 119.595 64.7305 108.171 41.833 c 0,12,13
 97.6357 20.7197 97.6357 20.7197 88.3721 8.37891 c 0,14,15
 78.7812 -4.40039 78.7812 -4.40039 59.5029 -20.1143 c 2,16,-1
 39.0674 -36.7012 l 2,17,18
 34.8398 -40.0537 34.8398 -40.0537 18.9424 -49.6758 c 0,19,20
 5.63281 -57.7314 5.63281 -57.7314 -0.59668 -43.8818 c 0,21,22
 -6.8252 -30.0322 -6.8252 -30.0322 4.63086 -17.8574 c 0,23,24
 7.41992 -14.8945 7.41992 -14.8945 12.3125 -6.42285 c 0,25,26
 18.3096 3.96582 18.3096 3.96582 24.082 15.333 c 0,27,28
 27.9404 22.9326 27.9404 22.9326 30.8506 29.4902 c 1,29,30
 18.6143 31.7109 18.6143 31.7109 9.73242 43.3516 c 0,31,32
 -1.41211 57.957 -1.41211 57.957 -1.03418 78.9307 c 0,33,34
 -0.942383 83.9707 -0.942383 83.9707 -0.1875 89.3262 c 0,35,36
 -0.125 89.7686 -0.125 89.7686 0.0644531 90.8975 c 0,37,38
 0.253906 92.0273 0.253906 92.0273 0.318359 92.4756 c 0,39,40
 5.12988 126.234 5.12988 126.234 28.0518 147.655 c 0,2,3
EndSplineSet
EndChar

StartChar: less
Encoding: 60 60 31
Width: 558
GlyphClass: 2
Flags: W
LayerCount: 2
Fore
SplineSet
545.309 628.177 m 1,0,-1
 524.917 483.617 l 1,1,-1
 326.964 370.338 l 1,0,0
 488.183 250.903 l 1,1,-1
 466.175 103.021 l 1,2,-1
 176.443 313.45 l 1,5,-1
 97.3809 375.558 l 1,6,-1
 178.572 420.001 l 1,7,-1
 545.309 628.177 l 1,0,-1
EndSplineSet
EndChar

StartChar: equal
Encoding: 61 61 32
Width: 598
GlyphClass: 2
Flags: W
LayerCount: 2
Fore
SplineSet
134.188 309.044 m 1,0,-1
 519.641 307.954 l 1,1,-1
 499.258 179.956 l 1,2,-1
 113.805 181.046 l 1,3,-1
 134.188 309.044 l 1,0,-1
163.832 547.046 m 1,4,-1
 549.288 545.956 l 1,5,-1
 533.559 417.954 l 1,6,-1
 148.103 419.044 l 1,7,-1
 163.832 547.046 l 1,4,-1
EndSplineSet
EndChar

StartChar: greater
Encoding: 62 62 33
Width: 554
GlyphClass: 2
Flags: W
LayerCount: 2
Fore
SplineSet
455.76 420.001 m 1,1,-1
 524.413 375.558 l 1,2,-1
 427.828 313.45 l 1,3,-1
 78.7295 103.021 l 1,4,-1
 98.4424 250.903 l 1,5,-1
 293.355 370.338 l 1,0,0
 127.362 483.617 l 1,1,-1
 147.754 628.177 l 1,2,-1
 455.76 420.001 l 1,1,-1
EndSplineSet
EndChar

StartChar: question
Encoding: 63 63 34
Width: 499
GlyphClass: 2
Flags: W
LayerCount: 2
Fore
SplineSet
261.988 644.243 m 128,-1,2
 246.521 636.485 246.521 636.485 236.728 624.577 c 128,-1,3
 226.934 612.669 226.934 612.669 212.366 596.321 c 2,4,-1
 195.262 577.127 l 1,5,-1
 159.252 681.233 l 1,6,-1
 168.672 692.287 l 2,5,6
 202.214 731.648 202.214 731.648 240.004 750.324 c 128,-1,7
 277.793 769 277.793 769 325.852 769 c 0,8,9
 403.404 769 403.404 769 442.444 713.815 c 128,-1,10
 481.482 658.631 481.482 658.631 468.698 568 c 0,11,12
 462.09 521.158 462.09 521.158 440.826 482.67 c 128,-1,13
 419.562 444.182 419.562 444.182 378.927 400.109 c 2,14,-1
 339.295 356.305 l 2,15,16
 307.046 319.7 307.046 319.7 300.376 302.803 c 128,-1,17
 293.705 285.905 293.705 285.905 286.807 237 c 2,18,-1
 286.642 235.827 l 1,19,-1
 278.427 200.896 l 1,20,-1
 169.01 193.909 l 1,21,-1
 178.005 248.303 l 2,21,22
 186.793 310.603 186.793 310.603 206.107 347.118 c 128,-1,23
 225.421 383.633 225.421 383.633 263.324 424.808 c 2,24,-1
 304.399 471.005 l 1,25,26
 316.261 483.21 l 130,-1,27
 328.12 495.415 328.12 495.415 335.364 505.065 c 128,-1,28
 342.608 514.716 342.608 514.716 348.208 522.849 c 128,-1,29
 353.806 530.982 353.806 530.982 357.04 538.914 c 128,-1,30
 360.273 546.846 360.273 546.846 361.171 553.2 c 0,0,0
 361.295 554.082 361.295 554.082 361.389 555.163 c 0,1,2
 361.486 556.244 361.486 556.244 361.563 556.906 c 0,31,32
 367.953 610.565 367.953 610.565 350.536 631.283 c 0,33,34
 333.119 652 333.119 652 298.947 652 c 0,0,1
 277.454 652 277.454 652 261.988 644.243 c 128,-1,2
170.832 117.001 m 128,-1,35
 193.123 137.832 193.123 137.832 205.212 138.174 c 128,-1,36
 217.3 138.517 217.3 138.517 218.047 138.517 c 0,0,0
 240.771 138.517 240.771 138.517 257.212 118.442 c 128,-1,37
 273.651 98.3672 273.651 98.3672 268.521 62 c 0,38,39
 263.189 24.2021 263.189 24.2021 240.783 2.10059 c 128,-1,40
 218.377 -20 218.377 -20 194.624 -20 c 128,-1,41
 170.871 -20 170.871 -20 154.547 1.50977 c 128,-1,42
 138.223 23.0186 138.223 23.0186 143.438 60 c 0,33,34
 148.541 96.1709 148.541 96.1709 170.832 117.001 c 128,-1,35
EndSplineSet
EndChar

StartChar: at
Encoding: 64 64 35
Width: 815
GlyphClass: 2
Flags: W
LayerCount: 2
Fore
SplineSet
572.422 43.9229 m 0,0,1
 556.054 33.7852 556.054 33.7852 528.094 21.3105 c 0,2,3
 499.319 8.4707 499.319 8.4707 465.899 3.16699 c 0,4,5
 433.346 -2 433.346 -2 390.71 -2 c 0,6,7
 335.921 -2 335.921 -2 290.753 19.6797 c 0,8,9
 245.447 41.4277 245.447 41.4277 217.075 77.3281 c 0,10,11
 189.171 112.637 189.171 112.637 171.536 157.951 c 0,12,13
 153.79 203.555 153.79 203.555 149.622 252.561 c 0,14,15
 145.484 301.229 145.484 301.229 152.364 350 c 0,16,17
 173.001 496.301 173.001 496.301 258.927 602.796 c 0,18,19
 305.507 660.526 305.507 660.526 377.327 695.455 c 0,20,21
 448.359 730 448.359 730 514.767 730 c 0,22,23
 575.582 730 575.582 730 629.2 708.109 c 0,24,25
 684.762 685.426 684.762 685.426 714.39 647.066 c 0,26,27
 753.187 596.837 753.187 596.837 765.332 523.143 c 0,28,29
 777.109 451.693 777.109 451.693 765.727 371 c 0,30,31
 757.157 310.256 757.157 310.256 740.456 273.265 c 0,32,33
 722.622 233.765 722.622 233.765 681.846 194.968 c 0,34,35
 647.509 162.296 647.509 162.296 603.956 154.228 c 0,36,37
 597.643 153.059 597.643 153.059 591.549 152.435 c 1,38,-1
 634.047 86.3359 l 1,39,-1
 615.465 73.1035 l 2,40,41
 588.28 53.7441 588.28 53.7441 572.422 43.9229 c 0,0,1
530.227 544.686 m 1,42,-1
 531.682 555 l 1,43,-1
 623.301 555 l 1,44,-1
 605.416 465.519 l 2,45,46
 595.722 417.021 595.722 417.021 593.028 403.17 c 0,47,48
 590.533 390.333 590.533 390.333 588.114 373.18 c 0,49,50
 586.479 361.59 586.479 361.59 584.886 348.079 c 0,51,52
 581.066 315.668 581.066 315.668 579.967 281.832 c 1,53,54
 582.581 267.618 582.581 267.618 601.156 263.742 c 0,55,56
 605.673 262.8 605.673 262.8 609.888 262.8 c 0,57,58
 625.276 262.8 625.276 262.8 637.831 276.143 c 0,59,60
 658.663 298.279 658.663 298.279 664.372 310.527 c 0,61,62
 670.131 322.883 670.131 322.883 676.373 367.078 c 0,63,64
 676.446 367.594 676.446 367.594 676.591 368.593 c 0,65,66
 676.737 369.592 676.737 369.592 676.811 370.114 c 0,67,68
 693.25 486.653 693.25 486.653 644.054 556.528 c 0,69,70
 623.588 585.598 623.588 585.598 584.363 601.366 c 0,71,72
 542.987 618 542.987 618 499.769 618 c 0,73,74
 449.25 618 449.25 618 396.646 593.431 c 0,75,76
 345.096 569.354 345.096 569.354 315.209 529.804 c 0,77,78
 261.257 458.41 261.257 458.41 245.964 350 c 0,79,80
 240.871 313.892 240.871 313.892 248.335 273 c 0,81,82
 255.95 231.282 255.95 231.282 275.121 193.612 c 0,83,84
 293.854 156.804 293.854 156.804 328.601 131.713 c 0,85,86
 362.797 107.021 362.797 107.021 406.295 105.995 c 0,87,88
 418.198 105.714 418.198 105.714 422.361 105.714 c 0,89,90
 441.695 105.714 441.695 105.714 458.418 107.431 c 0,91,92
 481.215 109.771 481.215 109.771 496.035 114.749 c 0,93,94
 511.476 119.935 511.476 119.935 525.144 126.493 c 0,95,96
 537.688 132.514 537.688 132.514 547.481 139.69 c 2,97,-1
 564.875 152.437 l 1,98,99
 546.02 154.548 546.02 154.548 529.855 162.814 c 0,100,101
 505.199 175.423 505.199 175.423 493.328 198.812 c 1,102,103
 463.686 180.635 463.686 180.635 431.266 177.559 c 0,104,105
 424.023 176.872 424.023 176.872 417.019 176.872 c 0,106,107
 384.718 176.872 384.718 176.872 357.654 191.431 c 0,108,109
 323.687 209.703 323.687 209.703 305.363 255.265 c 0,110,111
 287.104 300.67 287.104 300.67 294.943 362.595 c 0,112,113
 295.412 366.285 295.412 366.285 295.72 368.467 c 0,114,115
 302.04 413.271 302.04 413.271 319.771 450.284 c 0,116,117
 338.959 490.334 338.959 490.334 365.348 513.965 c 0,118,119
 390.714 536.681 390.714 536.681 419.863 548.849 c 0,120,121
 445.812 559.68 445.812 559.68 471.938 559.68 c 0,122,123
 475.484 559.68 475.484 559.68 479.029 559.48 c 0,124,125
 508.088 557.841 508.088 557.841 530.227 544.686 c 1,42,-1
385.821 366 m 0,77,78
 381.999 338.906 381.999 338.906 389.632 318.637 c 128,-1,79
 397.265 298.367 397.265 298.367 411.47 291.136 c 128,-1,80
 425.673 283.904 425.673 283.904 441.486 283.904 c 1,0,0
 441.077 283.904 441.077 283.904 442.633 283.93 c 0,1,2
 444.188 283.954 444.188 283.954 452.472 284.35 c 128,-1,81
 460.755 284.745 460.755 284.745 476.179 297.517 c 128,-1,82
 491.604 310.288 491.604 310.288 498.964 331.448 c 0,83,84
 500.416 335.62 500.416 335.62 503.443 357.08 c 0,0,0
 504.171 362.24 504.171 362.24 506.251 378.501 c 128,-1,85
 508.331 394.763 508.331 394.763 509.151 405.128 c 1,0,0
 506.528 428.03 506.528 428.03 495.489 441.585 c 128,-1,88
 484.448 455.14 484.448 455.14 476.499 455.331 c 128,-1,89
 468.549 455.522 468.549 455.522 467.76 455.522 c 0,0,0
 451.164 455.522 451.164 455.522 434.288 447.274 c 128,-1,90
 417.412 439.025 417.412 439.025 403.753 417.654 c 128,-1,91
 390.093 396.282 390.093 396.282 385.821 366 c 0,77,78
EndSplineSet
EndChar

StartChar: A
Encoding: 65 65 36
Width: 592
GlyphClass: 2
Flags: W
LayerCount: 2
Fore
SplineSet
401.388 647.125 m 1,0,-1
 543.804 -19 l 1,1,-1
 433.066 -19 l 1,2,-1
 389.94 163 l 1,3,-1
 190.468 163 l 1,4,-1
 99.9941 -19 l 1,5,-1
 -10.5703 -19 l 1,6,-1
 317.503 663.621 l 1,7,-1
 372.248 782.365 l 1,8,-1
 401.388 647.125 l 1,0,-1
362.967 286 m 1,9,-1
 328.993 460.744 l 1,10,-1
 249.665 286 l 1,11,-1
 362.967 286 l 1,9,-1
EndSplineSet
EndChar

StartChar: B
Encoding: 66 66 37
Width: 456
GlyphClass: 2
Flags: W
LayerCount: 2
Fore
SplineSet
113.793 708 m 1,0,-1
 294.637 708 l 1,1,-1
 296.7 706.051 l 1,2,3
 333.504 705.823 333.504 705.823 361.095 687.487 c 0,4,5
 390.689 667.818 390.689 667.818 404.92 635.814 c 0,6,7
 418.813 604.569 418.813 604.569 420.803 565.157 c 0,8,9
 422.008 541.308 422.008 541.308 418.765 518.314 c 0,10,11
 416.647 503.309 416.647 503.309 412.642 488.712 c 0,12,13
 402.282 450.959 402.282 450.959 378.149 418.089 c 0,14,15
 368.009 404.276 368.009 404.276 355.96 393.102 c 1,16,17
 373.606 383.956 373.606 383.956 386.996 366.51 c 0,18,19
 412.352 333.469 412.352 333.469 418.539 285.391 c 0,20,21
 423.398 247.643 423.398 247.643 417.455 205.504 c 0,22,23
 416.032 195.419 416.032 195.419 413.99 185.09 c 0,24,25
 403.402 131.519 403.402 131.519 378.278 85.8867 c 0,26,27
 352.299 38.7012 352.299 38.7012 307.255 8.75195 c 0,28,29
 265.308 -19.1377 265.308 -19.1377 215.602 -19.1377 c 0,30,31
 212.539 -19.1377 212.539 -19.1377 209.397 -19.0293 c 2,32,-1
 201.503 -19.9502 l 1,33,-1
 50.2998 -20 l 1,34,-1
 50.3828 -19.4121 l 1,35,-1
 11.041 -20.4121 l 1,36,-1
 113.793 708 l 1,0,-1
199.594 596 m 1,37,-1
 175.755 427 l 1,38,-1
 248.202 427 l 1,39,40
 271.684 431.321 271.684 431.321 288.44 448.797 c 0,41,42
 305.408 466.493 305.408 466.493 311.072 489.188 c 0,43,44
 313.191 497.684 313.191 497.684 314.38 506.111 c 0,45,46
 316.757 522.959 316.757 522.959 315.426 539.682 c 0,47,48
 313.63 562.229 313.63 562.229 299.32 578.146 c 0,49,50
 284.905 594.183 284.905 594.183 260.622 595.008 c 2,51,-1
 245.128 595.533 l 1,52,-1
 199.594 596 l 1,37,-1
245.193 596 m 1,53,-1
 248.015 616 l 1,54,-1
 261.193 596 l 1,55,-1
 245.193 596 l 1,53,-1
159.813 314 m 1,56,-1
 131.742 115 l 1,57,-1
 237.938 114.997 l 2,58,59
 262.844 115.791 262.844 115.791 281.003 134.428 c 0,60,61
 299.523 153.435 299.523 153.435 305.994 181.271 c 0,62,63
 308.335 191.339 308.335 191.339 309.747 201.349 c 0,64,65
 312.747 222.612 312.747 222.612 311.565 243.716 c 0,66,67
 309.964 272.29 309.964 272.29 294.857 292.688 c 0,68,69
 280.401 312.208 280.401 312.208 256.842 313.007 c 2,70,-1
 241.349 313.533 l 1,71,-1
 159.813 314 l 1,56,-1
241.414 314 m 1,72,-1
 244.235 334 l 1,73,-1
 257.414 314 l 1,74,-1
 241.414 314 l 1,72,-1
EndSplineSet
EndChar

StartChar: C
Encoding: 67 67 38
Width: 628
GlyphClass: 2
Flags: W
LayerCount: 2
Fore
SplineSet
591.823 689.109 m 0,0,1
 608.73 678.415 608.73 678.415 616.709 670.654 c 128,-1,2
 624.688 662.893 624.688 662.893 639.511 644.186 c 2,3,-1
 651.335 629.261 l 1,4,-1
 555.012 536.878 l 1,5,-1
 546.907 553.721 l 2,6,7
 540.56 566.914 540.56 566.914 508.416 580.983 c 128,-1,8
 476.271 595.052 476.271 595.052 451.371 596.012 c 0,9,10
 447.037 596.178 447.037 596.178 444.24 596.178 c 0,11,12
 388.054 596.178 388.054 596.178 326.532 553.141 c 128,-1,13
 265.012 510.104 265.012 510.104 228.188 438.541 c 0,14,15
 200.558 384.843 200.558 384.843 193.189 332.611 c 0,16,17
 187.473 292.082 187.473 292.082 198.08 226.59 c 128,-1,18
 208.688 161.098 208.688 161.098 279.768 116.128 c 0,19,20
 314.889 93.9092 314.889 93.9092 334.99 93.459 c 129,-1,21
 355.093 93.0088 355.093 93.0088 357.152 92.9785 c 128,-1,22
 359.212 92.9473 359.212 92.9473 360.041 92.9473 c 0,23,24
 399.405 92.9473 399.405 92.9473 437.867 109.376 c 128,-1,25
 476.328 125.806 476.328 125.806 515.818 158.084 c 2,26,-1
 529.057 168.905 l 1,27,-1
 583.918 73.5547 l 1,28,-1
 570.283 60.2012 l 2,29,30
 526.767 17.583 526.767 17.583 472.058 -6.10156 c 128,-1,31
 417.348 -29.7861 417.348 -29.7861 385.006 -32.1992 c 128,-1,32
 352.664 -34.6133 352.664 -34.6133 337.945 -34.6133 c 0,33,34
 306.278 -34.6133 306.278 -34.6133 270.585 -27.9443 c 128,-1,35
 234.892 -21.2764 234.892 -21.2764 208.894 -2.76953 c 0,36,37
 102.773 72.7764 102.773 72.7764 88.8203 168.791 c 128,-1,38
 74.8672 264.805 74.8672 264.805 83.0996 323.162 c 0,39,40
 94.8164 406.22 94.8164 406.22 139.743 493.469 c 0,41,42
 196.681 604.041 196.681 604.041 283.523 663.217 c 128,-1,43
 370.368 722.394 370.368 722.394 456.494 722.394 c 0,44,45
 461.819 722.394 461.819 722.394 471.102 721.984 c 0,46,47
 545.011 718.725 545.011 718.725 591.823 689.109 c 0,0,1
EndSplineSet
EndChar

StartChar: D
Encoding: 68 68 39
Width: 544
GlyphClass: 2
Flags: W
LayerCount: 2
Fore
SplineSet
250.003 712.333 m 0,0,0
 258.574 712.333 258.574 712.333 271.784 711.891 c 128,-1,2
 284.994 711.448 284.994 711.448 311.108 710.998 c 0,3,4
 359.452 710.166 359.452 710.166 399.385 692.488 c 128,-1,5
 439.318 674.81 439.318 674.81 463.444 645.976 c 128,-1,6
 487.57 617.143 487.57 617.143 501.16 589.905 c 128,-1,7
 514.75 562.667 514.75 562.667 521.343 534.553 c 0,8,9
 538.587 461.029 538.587 461.029 534.529 410.259 c 128,-1,10
 530.472 359.489 530.472 359.489 527.916 341.363 c 0,0,0
 519.145 279.188 519.145 279.188 494.454 213.117 c 128,-1,11
 469.766 147.046 469.766 147.046 417.205 85.7578 c 128,-1,12
 364.646 24.4697 364.646 24.4697 297.012 -2.93555 c 0,13,14
 279.103 -10.1914 279.103 -10.1914 234.678 -19.6953 c 2,15,16
 233.255 -20 l 1,17,-1
 231.854 -20 l 2,15,16
 219.192 -20 219.192 -20 195.922 -20.5 c 128,-1,17
 172.651 -21 172.651 -21 158.931 -21 c 128,-1,18
 145.211 -21 145.211 -21 114.05 -19.9971 c 2,19,-1
 19.0547 -20 l 1,20,-1
 122.17 711 l 1,21,-1
 222.155 711 l 2,0,0
 233.097 712.333 233.097 712.333 250.003 712.333 c 0,0,0
421.119 468.571 m 0,22,23
 410.561 526.816 410.561 526.816 376.46 560.908 c 128,-1,24
 342.357 595 342.357 595 287.407 595 c 0,25,26
 283.306 595 283.306 595 263.082 595.333 c 128,-1,27
 242.857 595.667 242.857 595.667 233.188 595.667 c 0,0,0
 222.152 595.667 222.152 595.667 211.559 595.452 c 1,0,0
 144.305 102.922 l 1,0,0
 164.695 102.72 164.695 102.72 175.991 102.283 c 128,-1,31
 187.288 101.846 187.288 101.846 191.193 101.846 c 0,0,0
 212.945 101.846 212.945 101.846 241.277 106.543 c 128,-1,32
 269.611 111.24 269.611 111.24 297.341 124.49 c 0,33,34
 335.396 142.675 335.396 142.675 363.748 187.744 c 128,-1,35
 392.1 232.813 392.1 232.813 402.962 276.742 c 128,-1,36
 413.823 320.67 413.823 320.67 418.564 354.281 c 0,0,0
 421.084 372.146 421.084 372.146 423.754 405.721 c 128,-1,37
 426.424 439.297 426.424 439.297 421.119 468.571 c 0,22,23
EndSplineSet
EndChar

StartChar: E
Encoding: 69 69 40
Width: 433
GlyphClass: 2
Flags: W
LayerCount: 2
Fore
SplineSet
126.299 713 m 1,0,-1
 451.1 713 l 1,1,-1
 433.467 588 l 1,2,-1
 214.267 588 l 1,3,-1
 192.261 432 l 1,4,-1
 349.061 432 l 1,5,-1
 331.71 309 l 1,6,-1
 174.91 309 l 1,7,-1
 145.71 102 l 1,8,-1
 372.11 102 l 1,9,-1
 354.9 -20 l 1,10,-1
 22.9004 -20 l 1,11,-1
 126.299 713 l 1,0,-1
EndSplineSet
EndChar

StartChar: F
Encoding: 70 70 41
Width: 422
GlyphClass: 2
Flags: W
LayerCount: 2
Fore
SplineSet
128.857 711 m 1,0,-1
 443.258 711 l 1,1,-1
 426.049 589 l 1,2,-1
 218.049 589 l 1,0,0
 195.901 432 l 1,0,0
 351.901 432 l 1,1,-1
 334.551 309 l 1,2,-1
 178.551 309 l 1,0,0
 132.143 -20 l 1,1,-1
 25.7422 -20 l 1,2,-1
 128.857 711 l 1,0,-1
EndSplineSet
EndChar

StartChar: G
Encoding: 71 71 42
Width: 634
GlyphClass: 2
Flags: W
LayerCount: 2
Fore
SplineSet
590.861 115.96 m 2,0,1
 587.062 89.0254 587.062 89.0254 563.927 74.5244 c 1,2,3
 520.934 32.1572 520.934 32.1572 466.761 8.2168 c 128,-1,4
 412.588 -15.7246 412.588 -15.7246 377.846 -18.9932 c 128,-1,5
 343.104 -22.2607 343.104 -22.2607 324.943 -22.2607 c 0,6,7
 296.56 -22.2607 296.56 -22.2607 262.008 -16.2461 c 128,-1,8
 227.455 -10.2314 227.455 -10.2314 201.874 8.26562 c 0,9,10
 132.865 58.1631 132.865 58.1631 100.137 135.479 c 128,-1,11
 67.4072 212.795 67.4072 212.795 70.5957 263.296 c 128,-1,12
 73.7842 313.798 73.7842 313.798 76.4355 332.592 c 0,13,14
 85.2568 395.127 85.2568 395.127 114.031 467.521 c 128,-1,15
 142.806 539.916 142.806 539.916 195.179 603.625 c 128,-1,16
 247.552 667.334 247.552 667.334 316.274 703.782 c 128,-1,17
 384.996 740.23 384.996 740.23 453.618 740.23 c 0,18,19
 459.374 740.23 459.374 740.23 465.03 739.988 c 0,20,21
 538.404 736.846 538.404 736.846 585.788 706.053 c 0,22,23
 603.503 694.539 603.503 694.539 611.033 687.216 c 128,-1,24
 618.562 679.893 618.562 679.893 633.385 661.186 c 2,25,-1
 645.115 646.378 l 1,26,-1
 547.871 551.834 l 1,27,-1
 540.204 570.706 l 2,28,29
 534.799 584.008 534.799 584.008 502.137 597.661 c 128,-1,30
 469.474 611.314 469.474 611.314 445.013 613.024 c 0,31,32
 442.833 613.177 442.833 613.177 438.188 613.177 c 0,33,34
 382.004 613.177 382.004 613.177 320.204 569.535 c 128,-1,35
 258.404 525.893 258.404 525.893 221.954 454.607 c 0,36,37
 194.224 400.374 194.224 400.374 186.672 346.839 c 0,38,39
 180.881 305.784 180.881 305.784 191.524 239.444 c 128,-1,40
 202.168 173.104 202.168 173.104 272.894 127.064 c 0,41,42
 305.359 105.931 305.359 105.931 325.016 105.47 c 129,-1,43
 344.67 105.009 344.67 105.009 346.743 104.977 c 128,-1,44
 348.815 104.944 348.815 104.944 349.65 104.944 c 0,45,46
 387.091 104.944 387.091 104.944 422.442 119.675 c 128,-1,47
 457.795 134.406 457.795 134.406 492.493 159.859 c 1,48,-1
 510.53 270 l 1,49,-1
 400.372 270 l 1,50,-1
 417.673 383.912 l 1,51,-1
 629.69 385.09 l 1,52,-1
 590.861 115.96 l 2,0,1
EndSplineSet
EndChar

StartChar: H
Encoding: 72 72 43
Width: 567
GlyphClass: 2
Flags: W
LayerCount: 2
Fore
SplineSet
483.569 714 m 1,0,-1
 588.369 714 l 1,1,-1
 484.83 -20 l 1,2,-1
 380.03 -20 l 1,3,-1
 423.909 291.061 l 1,0,0
 192.033 291.939 l 1,0,0
 148.03 -20 l 1,1,-1
 41.6309 -20 l 1,2,-1
 144.605 710 l 1,3,-1
 249.987 710 l 1,4,-1
 237.905 617.137 l 1,10,-1
 209.25 414 l 1,0,0
 441.25 414 l 1,0,0
 483.569 714 l 1,0,-1
EndSplineSet
EndChar

StartChar: I
Encoding: 73 73 44
Width: 186
GlyphClass: 2
Flags: W
LayerCount: 2
Fore
SplineSet
102.917 716 m 1,0,-1
 206.918 716 l 1,1,-1
 104.083 -19 l 1,2,-1
 0.0830078 -19 l 1,3,-1
 102.917 716 l 1,0,-1
EndSplineSet
EndChar

StartChar: J
Encoding: 74 74 45
Width: 355
GlyphClass: 2
Flags: W
LayerCount: 2
Fore
SplineSet
99.3936 64.8438 m 129,-1,1
 112.416 64.0127 112.416 64.0127 114.735 63.9131 c 128,-1,2
 117.056 63.8135 117.056 63.8135 117.999 63.8135 c 0,3,4
 141.567 63.8135 141.567 63.8135 163.78 79.3105 c 128,-1,5
 185.993 94.8076 185.993 94.8076 205.28 133.022 c 128,-1,6
 224.567 171.237 224.567 171.237 231.787 222.415 c 0,7,8
 232.154 225.022 232.154 225.022 232.494 227.683 c 2,9,-1
 296.099 720 l 1,10,-1
 400.841 720 l 1,11,-1
 338.152 222.474 l 2,12,13
 337.466 216.67 337.466 216.67 336.651 210.893 c 0,14,15
 327.155 143.58 327.155 143.58 299.974 86.0635 c 128,-1,16
 272.791 28.5469 272.791 28.5469 234.443 -4.77441 c 128,-1,17
 196.094 -38.0947 196.094 -38.0947 161.57 -50.1367 c 128,-1,18
 127.046 -62.1787 127.046 -62.1787 100.263 -62.1787 c 0,19,20
 85.4297 -62.1787 85.4297 -62.1787 57.6934 -56.667 c 128,-1,21
 29.9561 -51.1553 29.9561 -51.1553 -1.75195 -24.0762 c 2,22,-1
 -13.1318 -14.3574 l 1,23,-1
 51.4697 101.781 l 1,24,-1
 64.5859 88.2139 l 2,25,0
 86.3721 65.6758 86.3721 65.6758 99.3936 64.8438 c 129,-1,1
EndSplineSet
EndChar

StartChar: K
Encoding: 75 75 46
Width: 568
GlyphClass: 2
Flags: W
LayerCount: 2
Fore
SplineSet
435.024 706 m 1,0,-1
 567.709 706 l 1,1,-1
 283.49 362.526 l 1,0,0
 514.896 -22 l 1,1,-1
 379.167 -22 l 1,2,-1
 184.556 306.584 l 1,0,0
 138.205 -22 l 1,1,-1
 31.8057 -22 l 1,2,-1
 134.497 706 l 1,3,-1
 240.897 706 l 1,4,-1
 199.999 416.059 l 1,0,0
 435.024 706 l 1,0,-1
EndSplineSet
EndChar

StartChar: L
Encoding: 76 76 47
Width: 415
GlyphClass: 2
Flags: W
LayerCount: 2
Fore
SplineSet
132.229 105 m 1,0,0
 358.629 105 l 1,1,-1
 341.279 -18 l 1,2,-1
 8.47852 -18 l 1,3,-1
 111.343 711.216 l 1,4,-1
 217.541 709.786 l 1,5,-1
 132.229 105 l 1,0,0
EndSplineSet
EndChar

StartChar: M
Encoding: 77 77 48
Width: 656
GlyphClass: 2
Flags: W
LayerCount: 2
Fore
SplineSet
362.668 363.8 m 1,0,0
 662.688 776.38 l 1,1,-1
 580.781 -24 l 1,2,-1
 480.228 -24 l 1,3,-1
 517.438 402.418 l 1,0,0
 333.579 157.042 l 1,1,-1
 216.125 405.742 l 1,0,0
 132.971 -21 l 1,1,-1
 32.4189 -21 l 1,2,-1
 176.428 780.227 l 1,3,-1
 362.668 363.8 l 1,0,0
EndSplineSet
EndChar

StartChar: N
Encoding: 78 78 49
Width: 581
GlyphClass: 2
Flags: W
LayerCount: 2
Fore
SplineSet
208.181 414.662 m 1,0,0
 147.29 -17 l 1,1,-1
 45.6895 -17 l 1,2,-1
 154.2 752.241 l 1,3,-1
 440.027 256.599 l 1,0,0
 502.591 716 l 1,1,-1
 605.088 716 l 1,2,-1
 492.755 -80.3379 l 1,3,-1
 208.181 414.662 l 1,0,0
EndSplineSet
EndChar

StartChar: O
Encoding: 79 79 50
Width: 676
GlyphClass: 2
Flags: W
LayerCount: 2
Fore
SplineSet
394.503 607.001 m 2,0,1
 351.737 606.964 351.737 606.964 314.985 585.646 c 128,-1,2
 278.232 564.329 278.232 564.329 252.792 529.137 c 128,-1,3
 227.354 493.944 227.354 493.944 210.202 449.507 c 128,-1,4
 193.052 405.07 193.052 405.07 186.745 360.367 c 0,5,6
 186.324 357.383 186.324 357.383 183.136 331.956 c 128,-1,7
 179.948 306.529 179.948 306.529 186.152 260.124 c 128,-1,8
 192.356 213.719 192.356 213.719 209.456 178.857 c 128,-1,9
 226.557 143.996 226.557 143.996 259.018 122.498 c 128,-1,10
 291.48 101 291.48 101 335.809 101 c 0,11,12
 381.098 101 381.098 101 421.68 122.617 c 128,-1,13
 462.261 144.234 462.261 144.234 490.367 179.562 c 128,-1,14
 518.474 214.889 518.474 214.889 537.714 261.161 c 128,-1,15
 556.954 307.433 556.954 307.433 560.642 332.206 c 128,-1,16
 564.328 356.979 564.328 356.979 564.513 358.282 c 0,17,18
 571.069 404.768 571.069 404.768 564.19 449.78 c 128,-1,19
 557.311 494.793 557.311 494.793 538.433 530.128 c 128,-1,20
 519.556 565.464 519.556 565.464 483.44 586.253 c 128,-1,21
 447.326 607.042 447.326 607.042 398.906 607.042 c 2,22,-1
 395.521 607.005 l 1,23,-1
 394.503 607.001 l 2,0,1
547.182 694.285 m 128,-1,25
 602.932 661.57 602.932 661.57 632.813 608.488 c 128,-1,26
 662.695 555.405 662.695 555.405 672.89 488.647 c 128,-1,27
 683.082 421.89 683.082 421.89 673.398 353.231 c 2,28,-1
 668.041 316.788 l 2,29,30
 662.686 280.345 662.686 280.345 633.45 213.463 c 128,-1,31
 604.215 146.582 604.215 146.582 559.842 94.0146 c 128,-1,32
 515.47 41.4463 515.47 41.4463 451.762 9.22266 c 128,-1,33
 388.051 -23 388.051 -23 316.717 -23 c 0,34,35
 246.846 -23 246.846 -23 194.539 9.3623 c 128,-1,36
 142.232 41.7236 142.232 41.7236 114.85 94.9014 c 128,-1,37
 87.4658 148.079 87.4658 148.079 78.377 214.856 c 128,-1,38
 69.2891 281.634 69.2891 281.634 79.209 351.964 c 128,-1,39
 89.1309 422.294 89.1309 422.294 116.63 489.05 c 128,-1,40
 144.128 555.806 144.128 555.806 186.097 608.993 c 128,-1,41
 228.064 662.18 228.064 662.18 288.317 694.59 c 128,-1,42
 348.57 727 348.57 727 416.913 727 c 0,43,24
 491.432 727 491.432 727 547.182 694.285 c 128,-1,25
EndSplineSet
EndChar

StartChar: P
Encoding: 80 80 51
Width: 452
GlyphClass: 2
Flags: W
LayerCount: 2
Fore
SplineSet
305.823 711.998 m 2,1,2
 307.584 712.034 307.584 712.034 309.269 712.034 c 0,0,0
 361.321 712.034 361.321 712.034 397.05 680.971 c 128,-1,3
 432.776 649.908 432.776 649.908 444.115 602.729 c 128,-1,4
 455.454 555.547 455.454 555.547 447.819 501.424 c 0,0,0
 447.636 500.117 447.636 500.117 443.4 471.676 c 128,-1,5
 439.165 443.234 439.165 443.234 413.338 395.091 c 128,-1,6
 387.511 346.947 387.511 346.947 341.805 315.457 c 128,-1,7
 296.101 283.967 296.101 283.967 241.039 283.967 c 0,0,0
 239.334 283.967 239.334 283.967 237.495 284.002 c 2,8,-1
 169.425 283.189 l 1,0,0
 127.141 -16.5703 l 1,1,-1
 21.1367 -19.4395 l 1,2,-1
 124.469 713.097 l 1,3,-1
 305.823 711.998 l 2,1,2
212.681 589.824 m 1,0,0
 186.608 405 l 1,0,0
 257.009 405 l 2,14,15
 277.639 405 277.639 405 294.866 418.204 c 128,-1,16
 312.093 431.408 312.093 431.408 322.565 451.679 c 128,-1,17
 333.035 471.949 333.035 471.949 335.621 486.124 c 128,-1,18
 338.208 500.299 338.208 500.299 338.659 503.497 c 0,0,0
 341.608 524.409 341.608 524.409 338.229 543.301 c 128,-1,19
 334.85 562.192 334.85 562.192 321.916 575.596 c 128,-1,20
 308.982 589 308.982 589 287.693 589 c 2,21,-1
 212.681 589.824 l 1,0,0
EndSplineSet
EndChar

StartChar: Q
Encoding: 81 81 52
Width: 686
GlyphClass: 2
Flags: W
LayerCount: 2
Fore
SplineSet
401.994 607.001 m 2,0,1
 359.226 606.964 359.226 606.964 322.439 585.626 c 128,-1,2
 285.652 564.289 285.652 564.289 259.858 529.114 c 128,-1,3
 234.066 493.938 234.066 493.938 217.317 449.602 c 128,-1,4
 200.566 405.265 200.566 405.265 194.262 360.572 c 0,0,0
 193.827 357.486 193.827 357.486 190.632 332.008 c 128,-1,5
 187.438 306.529 187.438 306.529 193.642 260.124 c 128,-1,6
 199.845 213.719 199.845 213.719 216.945 178.857 c 128,-1,7
 234.045 143.996 234.045 143.996 266.507 122.498 c 128,-1,8
 298.969 101 298.969 101 342.497 101 c 0,9,10
 388.558 101 388.558 101 428.741 122.602 c 128,-1,11
 468.925 144.204 468.925 144.204 497.072 179.583 c 128,-1,12
 525.221 214.961 525.221 214.961 544.818 261.196 c 128,-1,13
 564.417 307.431 564.417 307.431 571.195 355.483 c 128,-1,14
 577.974 403.536 577.974 403.536 571.368 449.201 c 128,-1,15
 564.763 494.865 564.763 494.865 545.912 530.151 c 128,-1,16
 527.059 565.438 527.059 565.438 490.559 586.24 c 128,-1,17
 454.06 607.042 454.06 607.042 406.33 607.042 c 2,0,0
 403.014 607.005 l 1,1,-1
 401.994 607.001 l 2,0,1
554.691 694.273 m 128,-1,20
 610.461 661.547 610.461 661.547 639.927 608.448 c 128,-1,21
 669.393 555.35 669.393 555.35 679.684 487.953 c 128,-1,22
 689.975 420.556 689.975 420.556 680.086 350.451 c 128,-1,23
 670.196 280.347 670.196 280.347 640.54 213.465 c 128,-1,24
 610.884 146.584 610.884 146.584 566.945 94.0273 c 128,-1,25
 523.008 41.4707 523.008 41.4707 459.274 9.23535 c 128,-1,26
 395.54 -23 395.54 -23 323.406 -23 c 0,27,28
 253.535 -23 253.535 -23 201.208 9.375 c 128,-1,29
 148.88 41.75 148.88 41.75 121.927 94.916 c 128,-1,30
 94.9756 148.082 94.9756 148.082 85.4717 214.822 c 128,-1,31
 75.9678 281.562 75.9678 281.562 85.8994 351.964 c 128,-1,32
 95.8301 422.366 95.8301 422.366 123.746 489.114 c 128,-1,33
 151.662 555.862 151.662 555.862 193.607 609.021 c 128,-1,34
 235.553 662.18 235.553 662.18 295.807 694.59 c 128,-1,35
 356.06 727 356.06 727 424.402 727 c 0,18,19
 498.922 727 498.922 727 554.691 694.273 c 128,-1,20
527.734 212.32 m 1,36,-1
 624.183 45.8799 l 1,37,-1
 526.922 -41.8369 l 1,38,-1
 441.589 111.821 l 1,39,-1
 389.901 203.433 l 1,40,-1
 485.058 287.574 l 1,41,-1
 527.734 212.32 l 1,36,-1
EndSplineSet
EndChar

StartChar: R
Encoding: 82 82 53
Width: 438
GlyphClass: 2
Flags: W
LayerCount: 2
Fore
SplineSet
303.682 720.998 m 2,1,2
 305.751 721.048 305.751 721.048 307.823 721.048 c 0,0,0
 350.737 721.048 350.737 721.048 383.202 699.39 c 128,-1,3
 415.666 677.731 415.666 677.731 431.051 641.538 c 128,-1,4
 446.438 605.345 446.438 605.345 448.02 569.644 c 128,-1,5
 449.602 533.943 449.602 533.943 445.919 507.842 c 0,0,0
 443.39 489.912 443.39 489.912 435.051 459.336 c 128,-1,6
 426.713 428.761 426.713 428.761 403.345 392.541 c 128,-1,7
 379.977 356.32 379.977 356.32 352.921 334.116 c 1,0,0
 439.371 -19 l 1,1,-1
 323.043 -19 l 1,2,-1
 246.584 293.229 l 1,0,0
 241.409 293 241.409 293 235.577 293 c 2,13,-1
 167.593 292.192 l 1,0,0
 126.896 -19 l 1,1,-1
 20.3584 -19 l 1,2,-1
 122.051 719.903 l 1,3,-1
 303.682 720.998 l 2,1,2
210.524 598 m 1,0,0
 184.568 414 l 1,0,0
 255.769 414 l 2,19,20
 275.6 414 275.6 414 292.893 427.254 c 128,-1,21
 310.187 440.509 310.187 440.509 320.964 460.734 c 128,-1,22
 331.741 480.96 331.741 480.96 334.021 494.471 c 128,-1,23
 336.299 507.981 336.299 507.981 336.617 510.239 c 0,0,0
 339.746 532.421 339.746 532.421 336.277 551.807 c 128,-1,24
 332.809 571.192 332.809 571.192 319.877 584.596 c 128,-1,25
 306.943 598 306.943 598 285.725 598 c 2,26,-1
 210.524 598 l 1,0,0
EndSplineSet
EndChar

StartChar: S
Encoding: 83 83 54
Width: 468
GlyphClass: 2
Flags: W
LayerCount: 2
Fore
SplineSet
383.789 715.2 m 128,-1,2
 414.203 705.399 414.203 705.399 441.372 674.787 c 2,3,-1
 451.642 663.217 l 1,4,-1
 382.122 562.51 l 1,5,-1
 370.62 576.686 l 2,4,5
 345.799 607.28 345.799 607.28 301.093 607.28 c 0,0,0
 291.504 607.28 291.504 607.28 282.741 606.11 c 0,6,7
 259.226 602.973 259.226 602.973 241.191 583.809 c 128,-1,8
 223.157 564.646 223.157 564.646 219.913 551.554 c 128,-1,9
 216.67 538.462 216.67 538.462 216.257 535.529 c 0,0,0
 213.52 516.133 213.52 516.133 225.145 490.971 c 128,-1,10
 236.771 465.81 236.771 465.81 272.194 448.864 c 2,11,-1
 333.036 420.869 l 2,12,13
 355.71 410.065 355.71 410.065 376.053 391.673 c 128,-1,14
 396.395 373.281 396.395 373.281 412.298 344.538 c 128,-1,15
 428.2 315.795 428.2 315.795 435.093 282.549 c 128,-1,16
 441.985 249.304 441.985 249.304 436.165 208.041 c 0,0,0
 435.742 205.048 435.742 205.048 431.85 180.839 c 128,-1,17
 427.956 156.631 427.956 156.631 405.065 111.676 c 0,18,19
 335.606 -24.7246 335.606 -24.7246 194.777 -24.7246 c 0,0,0
 163.412 -24.7246 163.412 -24.7246 139.078 -19.748 c 0,20,21
 113.13 -14.4414 113.13 -14.4414 89.4521 -4.57617 c 128,-1,22
 65.7754 5.28906 65.7754 5.28906 57.0703 10.665 c 128,-1,23
 48.3652 16.042 48.3652 16.042 23.3184 34.3242 c 2,24,-1
 13.8984 41.2002 l 1,25,-1
 53.498 177.978 l 1,26,-1
 70.668 167.146 l 2,25,26
 128.172 130.872 128.172 130.872 170.452 116.339 c 0,27,28
 194.711 108 194.711 108 218.092 108 c 128,-1,29
 241.471 108 241.471 108 267.068 122.5 c 128,-1,30
 292.664 137 292.664 137 309.937 162.908 c 0,31,32
 324.21 184.32 324.21 184.32 327.439 207.218 c 0,0,0
 329.666 222.997 329.666 222.997 323.651 249.205 c 128,-1,33
 317.637 275.412 317.637 275.412 282.522 293.296 c 0,34,35
 271.216 299.055 271.216 299.055 251.312 310.454 c 0,36,37
 231.409 321.853 231.409 321.853 223.762 324.942 c 0,36,37
 172.623 345.604 172.623 345.604 143.336 382.928 c 128,-1,38
 114.051 420.251 114.051 420.251 108.226 458.417 c 128,-1,39
 102.401 496.583 102.401 496.583 107.128 530.089 c 0,0,0
 108.915 542.754 108.915 542.754 116.24 572.557 c 128,-1,40
 123.567 602.36 123.567 602.36 149.515 639.949 c 128,-1,41
 175.464 677.537 175.464 677.537 216.339 701.269 c 128,-1,42
 257.216 725 257.216 725 303.434 725 c 0,0,1
 353.376 725 353.376 725 383.789 715.2 c 128,-1,2
EndSplineSet
EndChar

StartChar: T
Encoding: 84 84 55
Width: 451
GlyphClass: 2
Flags: W
LayerCount: 2
Fore
SplineSet
107.692 706 m 1,0,-1
 506.093 706 l 1,1,-1
 489.181 586.109 l 1,2,-1
 343.335 585.109 l 1,0,0
 254.776 -20 l 1,1,-1
 149.281 -20 l 1,2,-1
 152.251 1.0498 l 1,6,-1
 236.961 585.109 l 1,0,0
 90.7803 586.109 l 1,1,-1
 107.692 706 l 1,0,-1
EndSplineSet
EndChar

StartChar: U
Encoding: 85 85 56
Width: 536
GlyphClass: 2
Flags: W
LayerCount: 2
Fore
SplineSet
185.711 266.048 m 2,0,1
 180.345 226.942 180.345 226.942 184.859 195.727 c 0,2,3
 189.344 164.728 189.344 164.728 200.8 146.302 c 128,-1,4
 212.344 127.734 212.344 127.734 229.176 117.847 c 128,-1,5
 245.938 108 245.938 108 264.617 108 c 128,-1,6
 283.163 108 283.163 108 302.658 118.219 c 0,7,8
 322.59 128.667 322.59 128.667 339.939 147.475 c 0,9,10
 356.941 165.906 356.941 165.906 370.601 197.377 c 0,11,12
 384.657 229.767 384.657 229.767 391.137 270.454 c 2,13,-1
 398.583 317.217 l 1,14,-1
 399.12 316.401 l 1,15,-1
 452.768 702 l 1,16,-1
 557.454 702 l 1,17,-1
 499.197 265.25 l 2,18,19
 498.544 260.344 498.544 260.344 498.371 259.119 c 0,20,21
 489.147 193.738 489.147 193.738 464.48 140.948 c 0,22,23
 438.463 85.2715 438.463 85.2715 403.326 50.7305 c 0,24,25
 368.609 16.6025 368.609 16.6025 327.568 -1.25195 c 0,26,27
 288.94 -18.0576 288.94 -18.0576 251.081 -18.0576 c 0,28,29
 248.788 -18.0576 248.788 -18.0576 246.5 -17.9951 c 0,30,31
 206.565 -16.918 206.565 -16.918 171.339 1.91602 c 128,-1,32
 136.03 20.7939 136.03 20.7939 111.442 54.8291 c 0,33,34
 86.3955 89.499 86.3955 89.499 77.2715 144.857 c 0,35,36
 69.0781 194.562 69.0781 194.562 77.2842 252.737 c 0,37,38
 78.0879 258.438 78.0879 258.438 79.0664 264.28 c 2,39,-1
 139.213 702.572 l 1,40,-1
 246.014 705.433 l 1,41,-1
 185.711 266.048 l 2,0,1
EndSplineSet
EndChar

StartChar: V
Encoding: 86 86 57
Width: 621
GlyphClass: 2
Flags: W
LayerCount: 2
Fore
SplineSet
440.655 437.141 m 1,0,-1
 574.863 713 l 1,1,-1
 685.159 713 l 1,2,-1
 288.576 -88.1201 l 1,3,-1
 266.45 31.3232 l 1,4,-1
 131.63 713 l 1,5,-1
 241.537 713 l 1,6,-1
 297.165 436.738 l 1,7,-1
 335.82 231.103 l 1,0,0
 440.655 437.141 l 1,0,-1
EndSplineSet
EndChar

StartChar: W
Encoding: 87 87 58
Width: 792
GlyphClass: 2
Flags: W
LayerCount: 2
Fore
SplineSet
449.643 318.132 m 1,0,0
 258.972 -76.8359 l 1,1,-1
 155.169 712 l 1,2,-1
 259.364 712 l 1,3,-1
 316.276 282.435 l 1,0,0
 455.276 567.85 l 1,5,-1
 494.588 650.108 l 1,6,-1
 510.185 566.762 l 1,7,-1
 568.109 283.596 l 1,0,0
 745.474 713.165 l 1,1,-1
 848.542 711.682 l 1,2,-1
 522.932 -76.0449 l 1,3,-1
 449.643 318.132 l 1,0,0
EndSplineSet
EndChar

StartChar: X
Encoding: 88 88 59
Width: 618
GlyphClass: 2
Flags: W
LayerCount: 2
Fore
SplineSet
91.373 104.315 m 1,0,-1
 283.061 389.697 l 1,1,-1
 212.354 558.471 l 1,2,-1
 144.126 718 l 1,3,-1
 280.241 718 l 1,4,-1
 337.84 581.319 l 1,5,-1
 365.189 512.107 l 1,6,-1
 419.408 593.107 l 1,7,-1
 503.081 715.9 l 1,8,-1
 626.587 717.354 l 1,9,-1
 545.281 596 l 1,10,-1
 545.989 596 l 1,11,-1
 411.98 395.095 l 1,12,-1
 529.801 96.0723 l 1,13,-1
 529.634 94.8857 l 1,14,-1
 573.166 -21.3555 l 1,15,-1
 452.109 -19.8984 l 1,16,-1
 414.922 72.6553 l 1,17,-1
 330.547 274.396 l 1,18,-1
 202.197 82.3389 l 1,19,-1
 138.47 -20 l 1,20,-1
 3.25391 -20 l 1,21,-1
 91.373 104.315 l 1,0,-1
EndSplineSet
EndChar

StartChar: Y
Encoding: 89 89 60
Width: 556
GlyphClass: 2
Flags: W
LayerCount: 2
Fore
SplineSet
107.953 712 m 1,0,-1
 231.139 712 l 1,1,-1
 331.676 454.427 l 1,2,-1
 501.872 712 l 1,3,-1
 624.932 712 l 1,4,-1
 369.997 328.043 l 1,5,-1
 321.403 -16.4424 l 1,6,-1
 203.666 -20.5869 l 1,7,-1
 258.377 325.627 l 1,8,-1
 107.953 712 l 1,0,-1
EndSplineSet
EndChar

StartChar: Z
Encoding: 90 90 61
Width: 715
GlyphClass: 2
Flags: W
LayerCount: 2
Fore
SplineSet
250.021 702 m 1,0,-1
 705.494 702 l 1,1,-1
 627.211 581.145 l 1,2,-1
 314.251 113 l 1,0,0
 603.736 113 l 1,1,-1
 585.268 -17.9277 l 1,2,-1
 93.3887 -20.1426 l 1,3,-1
 116.534 11.7891 l 1,6,7
 139.72 43.6143 l 130,-1,8
 162.905 75.4385 162.905 75.4385 181.876 103.958 c 2,9,-1
 496.389 577 l 1,0,0
 232.389 577 l 1,1,-1
 250.021 702 l 1,0,-1
EndSplineSet
EndChar

StartChar: bracketleft
Encoding: 91 91 62
Width: 312
GlyphClass: 2
Flags: W
LayerCount: 2
Fore
SplineSet
15.6729 -20 m 1,0,-1
 120.685 724.43 l 1,1,-1
 211.712 721.998 l 1,2,-1
 330.114 722 l 1,3,-1
 310.208 589 l 1,4,-1
 208.78 589 l 1,0,0
 141.494 112 l 1,0,0
 245.668 112 l 1,1,-1
 225.9 -20 l 1,2,-1
 15.6729 -20 l 1,0,-1
EndSplineSet
EndChar

StartChar: backslash
Encoding: 92 92 63
Width: 442
GlyphClass: 2
Flags: W
LayerCount: 2
Fore
SplineSet
246.447 -20 m 1,0,-1
 125.565 724.588 l 1,1,-1
 239.536 721.729 l 1,2,-1
 366.512 -20 l 1,3,-1
 246.447 -20 l 1,0,-1
EndSplineSet
EndChar

StartChar: bracketright
Encoding: 93 93 64
Width: 309
GlyphClass: 2
Flags: W
LayerCount: 2
Fore
SplineSet
225.216 -20 m 1,0,-1
 14.9893 -20 l 1,1,-1
 32.4619 112 l 1,2,-1
 136.637 112 l 1,0,0
 203.923 589 l 1,0,0
 102.494 589 l 1,1,-1
 120.111 722 l 1,2,-1
 238.513 721.998 l 1,8,-1
 330.228 724.43 l 1,9,-1
 225.216 -20 l 1,0,-1
EndSplineSet
EndChar

StartChar: asciicircum
Encoding: 94 94 65
Width: 539
GlyphClass: 2
Flags: W
LayerCount: 2
Fore
SplineSet
426.252 510 m 1,0,-1
 317.916 510 l 1,1,-1
 292.276 573.695 l 1,2,-1
 244.827 510.107 l 1,3,-1
 130.944 508.562 l 1,4,-1
 321.804 768.508 l 1,5,-1
 426.252 510 l 1,0,-1
EndSplineSet
EndChar

StartChar: underscore
Encoding: 95 95 66
Width: 503
GlyphClass: 2
Flags: W
LayerCount: 2
Fore
SplineSet
489.305 20 m 1,0,-1
 472.096 -102 l 1,1,-1
 69.6953 -102 l 1,2,-1
 86.9043 20 l 1,3,-1
 489.305 20 l 1,0,-1
EndSplineSet
EndChar

StartChar: grave
Encoding: 96 96 67
Width: 899
GlyphClass: 2
Flags: W
LayerCount: 2
Fore
SplineSet
485.168 1014.89 m 1,0,-1
 595.479 837.216 l 1,1,-1
 523.408 764.572 l 1,2,-1
 398.455 909.211 l 1,3,-1
 485.168 1014.89 l 1,0,-1
EndSplineSet
EndChar

StartChar: a
Encoding: 97 97 68
Width: 460
GlyphClass: 2
Flags: W
LayerCount: 2
Fore
SplineSet
94.6152 315.779 m 0,0,1
 118.277 365.195 118.277 365.195 151.052 395.286 c 0,2,3
 183.048 424.66 183.048 424.66 219.976 439.877 c 0,4,5
 251.526 452.879 251.526 452.879 282.838 452.879 c 0,6,7
 288.413 452.879 288.413 452.879 293.977 452.466 c 0,8,9
 329.896 449.797 329.896 449.797 360.175 431.258 c 2,10,-1
 363.723 428.977 l 1,11,-1
 366.265 447 l 1,12,-1
 472.703 447 l 1,13,-1
 405.951 -20 l 1,14,-1
 301.189 -20 l 1,15,-1
 303.534 -3.38184 l 1,16,17
 279.612 -16.4824 279.612 -16.4824 253.925 -22.6201 c 0,18,19
 234.49 -27.2627 234.49 -27.2627 215.95 -27.2627 c 0,20,21
 195.296 -27.2627 195.296 -27.2627 175.831 -21.5029 c 0,22,23
 139.307 -10.6934 139.307 -10.6934 111.01 15.8242 c 0,24,25
 81.7988 43.1982 81.7988 43.1982 68.1592 93.3223 c 0,26,27
 54.3652 144.014 54.3652 144.014 62.7881 206.83 c 0,28,29
 70.6992 265.835 70.6992 265.835 94.6152 315.779 c 0,0,1
164.034 210 m 0,30,31
 158.513 170.866 158.513 170.866 169.011 142.677 c 128,-1,32
 179.508 114.487 179.508 114.487 200.104 104.484 c 128,-1,33
 220.701 94.4805 220.701 94.4805 244.332 94.4805 c 1,34,35
 244.089 94.4805 244.089 94.4805 245.011 94.4854 c 128,-1,36
 245.931 94.4912 245.931 94.4912 257.273 94.6963 c 128,-1,37
 268.615 94.9014 268.615 94.9014 290.194 113.31 c 128,-1,38
 311.772 131.718 311.772 131.718 322.636 162.186 c 0,39,40
 325.967 171.525 325.967 171.525 329.605 197.32 c 0,41,42
 330.569 204.153 330.569 204.153 333.632 229.397 c 128,-1,43
 336.693 254.641 336.693 254.641 336.465 261.948 c 0,44,45
 335.653 287.874 335.653 287.874 323.096 306.408 c 128,-1,46
 310.537 324.942 310.537 324.942 297.064 329.431 c 128,-1,47
 283.59 333.92 283.59 333.92 272.773 333.92 c 0,48,49
 264.177 333.92 264.177 333.92 249.218 330.545 c 128,-1,50
 234.259 327.17 234.259 327.17 216.017 312.438 c 128,-1,51
 197.777 297.705 197.777 297.705 183.322 270.992 c 128,-1,52
 168.869 244.278 168.869 244.278 164.034 210 c 0,30,31
EndSplineSet
EndChar

StartChar: b
Encoding: 98 98 69
Width: 451
GlyphClass: 2
Flags: W
LayerCount: 2
Fore
SplineSet
377.372 93.3223 m 0,0,1
 349.591 43.1982 349.591 43.1982 312.657 15.8242 c 0,2,3
 276.88 -10.6934 276.88 -10.6934 237.306 -21.5029 c 0,4,5
 216.215 -27.2627 216.215 -27.2627 195.562 -27.2627 c 0,6,7
 177.021 -27.2627 177.021 -27.2627 158.896 -22.6201 c 0,8,9
 134.941 -16.4824 134.941 -16.4824 114.715 -3.38184 c 1,10,-1
 112.37 -20 l 1,11,-1
 7.5918 -20 l 1,12,-1
 117.906 768 l 1,13,-1
 224.327 768 l 1,14,-1
 175.902 424.712 l 1,15,16
 190.448 434.334 190.448 434.334 202.642 439.045 c 0,17,18
 230.901 449.961 230.901 449.961 259.298 450.498 c 0,19,20
 260.976 450.529 260.976 450.529 262.646 450.529 c 0,21,22
 289.427 450.529 289.427 450.529 313.934 442.385 c 0,23,24
 340.511 433.552 340.511 433.552 362.297 413.188 c 0,25,26
 383.987 392.912 383.987 392.912 397.956 364.383 c 0,27,28
 412.08 335.542 412.08 335.542 416.787 294.596 c 0,29,30
 421.598 252.732 421.598 252.732 414.768 206.83 c 0,31,32
 405.398 143.889 405.398 143.889 377.372 93.3223 c 0,0,1
307.355 211 m 0,21,22
 312.902 250.321 312.902 250.321 302.724 279.152 c 128,-1,23
 292.546 307.982 292.546 307.982 273.19 318.75 c 128,-1,24
 253.836 329.519 253.836 329.519 231.258 329.519 c 0,0,0
 230.388 329.519 230.388 329.519 219.271 329.312 c 128,-1,25
 208.152 329.104 208.152 329.104 186.953 310.454 c 128,-1,26
 165.754 291.804 165.754 291.804 155.664 260.996 c 0,27,28
 153.56 254.569 153.56 254.569 149.551 229.757 c 128,-1,29
 145.541 204.944 145.541 204.944 144.619 198.4 c 0,0,0
 141.233 174.405 141.233 174.405 141.933 165.356 c 0,30,31
 144.302 134.671 144.302 134.671 159.962 117.285 c 128,-1,32
 175.623 99.8984 175.623 99.8984 186.229 99.7002 c 129,-1,33
 196.835 99.502 196.835 99.502 197.722 99.4912 c 0,34,35
 198.608 99.4805 198.608 99.4805 198.967 99.4805 c 0,0,0
 221.688 99.4805 221.688 99.4805 243.993 109.433 c 128,-1,34
 266.298 119.385 266.298 119.385 284.146 146.181 c 128,-1,35
 301.992 172.977 301.992 172.977 307.355 211 c 0,21,22
EndSplineSet
EndChar

StartChar: c
Encoding: 99 99 70
Width: 381
GlyphClass: 2
Flags: W
LayerCount: 2
Fore
SplineSet
380.186 421.546 m 2,0,-1
 393.925 411.328 l 1,1,-1
 394.433 408.882 l 1,2,-1
 396.248 406.787 l 1,3,-1
 406.195 395.578 l 1,4,-1
 328.713 277.08 l 1,5,-1
 318.47 301.531 l 2,6,7
 317.909 302.572 317.909 302.572 317.368 303.265 c 0,8,9
 313.558 308.135 313.558 308.135 303.714 313.431 c 0,10,11
 288.376 321.682 288.376 321.682 278.455 323.124 c 0,12,13
 274.071 323.762 274.071 323.762 267.92 323.762 c 0,14,15
 245.257 323.762 245.257 323.762 222.43 311.784 c 0,16,17
 195.969 297.899 195.969 297.899 178.425 267.446 c 0,18,19
 159.974 235.418 159.974 235.418 156.123 208.124 c 0,20,21
 154.533 196.854 154.533 196.854 155.182 185.851 c 0,22,23
 157.423 147.825 157.423 147.825 186.58 124.32 c 0,24,25
 203.104 111 203.104 111 225.314 109.975 c 0,26,27
 233.25 109.608 233.25 109.608 234.163 109.608 c 0,28,29
 260.575 109.608 260.575 109.608 285.813 124.821 c 0,30,31
 297.686 131.978 297.686 131.978 299.213 133.364 c 2,32,-1
 315.961 148.576 l 1,33,-1
 352.071 35.8984 l 1,34,-1
 340.826 25.0693 l 2,35,36
 293.99 -20.0234 293.99 -20.0234 214.615 -20.0234 c 0,37,38
 214.017 -20.0234 214.017 -20.0234 212.778 -20.0117 c 128,-1,39
 211.539 -20 211.539 -20 210.938 -19.999 c 0,40,41
 148.021 -19.9814 148.021 -19.9814 116.121 6.89941 c 0,42,43
 52.5625 60.4561 52.5625 60.4561 45.3271 148.116 c 0,44,45
 42.9268 177.199 42.9268 177.199 47.082 206.653 c 0,46,47
 55.5391 266.615 55.5391 266.615 90.7451 326.716 c 0,48,49
 129.737 393.282 129.737 393.282 189.048 425.587 c 0,50,51
 236.335 451.343 236.335 451.343 283.729 451.343 c 0,52,53
 295.743 451.343 295.743 451.343 306.195 449.888 c 0,54,55
 351.574 443.573 351.574 443.573 380.186 421.546 c 2,0,-1
EndSplineSet
EndChar

StartChar: d
Encoding: 100 100 71
Width: 467
GlyphClass: 2
Flags: W
LayerCount: 2
Fore
SplineSet
51.3652 212.971 m 0,0,1
 58.584 264.14 58.584 264.14 77.7793 307.547 c 0,2,3
 98.4434 354.273 98.4434 354.273 126.756 383.406 c 0,4,5
 154.12 411.562 154.12 411.562 187.414 430.438 c 0,6,7
 221.591 449.814 221.591 449.814 255.218 451.484 c 0,8,9
 260.871 451.765 260.871 451.765 266.474 451.765 c 0,10,11
 293.435 451.765 293.435 451.765 317.849 445.588 c 0,12,13
 334.003 441.5 334.003 441.5 351.314 433.456 c 1,14,-1
 398.505 768 l 1,15,-1
 504.926 768 l 1,16,-1
 392.928 -20 l 1,17,-1
 289.365 -20 l 1,18,-1
 291.386 -3.15527 l 1,19,20
 288.523 -5.10449 288.523 -5.10449 285.998 -6.37012 c 0,21,22
 251.301 -23.7617 251.301 -23.7617 214.588 -26.4648 c 0,23,24
 208.631 -26.9033 208.631 -26.9033 202.798 -26.9033 c 0,25,26
 172.347 -26.9033 172.347 -26.9033 145.399 -14.9736 c 0,27,28
 113.625 -0.908203 113.625 -0.908203 89.3037 26.1475 c 0,29,30
 64.0928 54.1924 64.0928 54.1924 53.5498 101.74 c 0,31,32
 43.1836 148.493 43.1836 148.493 50.5195 206.619 c 0,33,34
 50.9434 209.981 50.9434 209.981 51.3652 212.971 c 0,0,1
158.334 211 m 0,22,23
 152.987 173.095 152.987 173.095 163.625 146.261 c 128,-1,24
 174.263 119.428 174.263 119.428 193.802 109.454 c 128,-1,25
 213.34 99.4805 213.34 99.4805 236.062 99.4805 c 1,0,0
 235.826 99.4805 235.826 99.4805 236.716 99.4854 c 0,1,2
 237.603 99.4912 237.603 99.4912 248.562 99.6943 c 128,-1,26
 259.523 99.8984 259.523 99.8984 280.323 117.482 c 128,-1,27
 301.122 135.065 301.122 135.065 311.458 164.704 c 0,28,29
 314.149 172.42 314.149 172.42 318.373 202.367 c 0,0,0
 319.069 207.299 319.069 207.299 321.753 227.805 c 128,-1,30
 324.435 248.312 324.435 248.312 324.877 260.804 c 1,0,0
 321.902 292.774 321.902 292.774 306.381 310.94 c 128,-1,33
 290.857 329.106 290.857 329.106 280.006 329.312 c 128,-1,34
 269.156 329.519 269.156 329.519 268.298 329.519 c 0,0,0
 246.031 329.519 246.031 329.519 223.252 318.725 c 128,-1,35
 200.474 307.931 200.474 307.931 182.178 279.126 c 128,-1,36
 163.881 250.321 163.881 250.321 158.334 211 c 0,22,23
EndSplineSet
EndChar

StartChar: e
Encoding: 101 101 72
Width: 450
GlyphClass: 2
Flags: W
LayerCount: 2
Fore
SplineSet
322.658 1.91992 m 0,0,1
 293.445 -13.8789 293.445 -13.8789 257.004 -18.8838 c 0,2,3
 241.594 -21 241.594 -21 222.986 -21 c 0,4,5
 197.775 -21 197.775 -21 179.938 -16.6768 c 0,6,7
 133.289 -5.37012 133.289 -5.37012 102.915 30.6367 c 128,-1,8
 72.542 66.6445 72.542 66.6445 63.5107 113.232 c 128,-1,9
 54.4814 159.82 54.4814 159.82 61.751 211.355 c 0,10,11
 61.9521 212.777 61.9521 212.777 66.0107 239.976 c 128,-1,12
 70.0693 267.174 70.0693 267.174 92.9639 314.741 c 128,-1,13
 115.856 362.308 115.856 362.308 156.763 399.219 c 128,-1,14
 197.667 436.13 197.667 436.13 246.038 447.632 c 0,15,16
 268.614 453 268.614 453 294.648 453 c 0,17,18
 319.492 453 319.492 453 336.977 448.658 c 0,19,20
 388.058 435.973 388.058 435.973 414.445 391.166 c 128,-1,21
 440.834 346.359 440.834 346.359 441.556 304.785 c 128,-1,22
 442.276 263.211 442.276 263.211 438.244 234.625 c 128,-1,23
 434.239 206.229 434.239 206.229 425.794 176.484 c 2,24,-1
 421.129 160.052 l 1,25,-1
 170.996 159.09 l 1,26,27
 175.911 141.854 175.911 141.854 188.397 127.909 c 128,-1,28
 200.882 113.963 200.882 113.963 246.328 107.83 c 0,29,30
 253.54 106.857 253.54 106.857 256.107 106.857 c 0,31,32
 260.135 106.857 260.135 106.857 267.718 107.759 c 128,-1,33
 275.302 108.661 275.302 108.661 294.771 117.015 c 128,-1,34
 314.239 125.368 314.239 125.368 328.985 140.331 c 2,35,-1
 329.743 141.143 l 1,36,-1
 340.134 152.184 l 1,37,-1
 410.312 93.3242 l 1,38,-1
 407.606 74.1377 l 1,39,-1
 403.471 68.7207 l 2,40,41
 373.449 29.3887 373.449 29.3887 322.658 1.91992 c 0,0,1
337.796 271.903 m 1,42,43
 335.488 336 335.488 336 277.345 336 c 0,44,45
 238.891 336 238.891 336 216.877 313.788 c 128,-1,46
 194.863 291.576 194.863 291.576 185.456 271.107 c 1,47,-1
 337.796 271.903 l 1,42,43
EndSplineSet
EndChar

StartChar: f
Encoding: 102 102 73
Width: 327
GlyphClass: 2
Flags: W
LayerCount: 2
Fore
SplineSet
90.1074 326 m 1,0,0
 50.1074 326 l 1,1,-1
 66.4707 442 l 1,2,-1
 109.992 442 l 1,0,0
 119.012 493.882 119.012 493.882 137.452 539.435 c 128,-1,6
 155.891 584.988 155.891 584.988 181.764 611.521 c 128,-1,7
 207.636 638.053 207.636 638.053 232.587 650.026 c 128,-1,8
 257.539 662 257.539 662 281.505 662 c 0,9,10
 297.221 662 297.221 662 308.605 657.979 c 128,-1,11
 319.991 653.955 319.991 653.955 329.553 648.49 c 128,-1,12
 339.115 643.025 339.115 643.025 344.08 641.403 c 2,13,-1
 364.723 634.654 l 1,14,-1
 290.308 520.708 l 1,15,-1
 269.529 535.874 l 1,0,0
 249.589 534.511 249.589 534.511 237.952 515.435 c 128,-1,17
 226.315 496.359 226.315 496.359 217.137 442 c 1,0,0
 299.271 442 l 1,1,-1
 282.625 324 l 1,2,-1
 197.873 324 l 1,0,0
 150.147 -20 l 1,1,-1
 41.2998 -20 l 1,2,-1
 90.1074 326 l 1,0,0
EndSplineSet
EndChar

StartChar: g
Encoding: 103 103 74
Width: 432
GlyphClass: 2
Flags: W
LayerCount: 2
Fore
SplineSet
177.766 224 m 0,0,1
 173.125 191.097 173.125 191.097 183.254 165.559 c 128,-1,2
 193.383 140.021 193.383 140.021 212.157 129.01 c 128,-1,3
 230.931 118 230.931 118 251.594 118 c 128,-1,4
 272.254 118 272.254 118 290.868 134.791 c 128,-1,5
 309.481 151.582 309.481 151.582 319.774 181.46 c 1,6,7
 321.34 192.035 321.34 192.035 324.41 209.839 c 128,-1,8
 327.479 227.643 327.479 227.643 328.747 236.625 c 0,9,10
 329.583 242.559 329.583 242.559 330.221 249.195 c 0,11,12
 330.374 250.788 330.374 250.788 330.426 251.17 c 0,13,14
 334.189 278.737 334.189 278.737 326.495 296.513 c 128,-1,15
 318.802 314.289 318.802 314.289 305.528 320.667 c 128,-1,16
 292.257 327.044 292.257 327.044 277.191 327.044 c 0,17,18
 272.908 327.044 272.908 327.044 260.355 325.733 c 128,-1,19
 247.803 324.423 247.803 324.423 229.596 313.202 c 128,-1,20
 211.389 301.98 211.389 301.98 196.793 278.692 c 128,-1,21
 182.196 255.404 182.196 255.404 177.766 224 c 0,0,1
304.38 -180.319 m 0,22,23
 258.344 -216.813 258.344 -216.813 198.91 -218.495 c 0,24,25
 196.032 -218.576 196.032 -218.576 193.194 -218.576 c 0,26,27
 139.926 -218.576 139.926 -218.576 100.657 -189.625 c 2,28,-1
 74.208 -170.125 l 2,29,30
 67.9502 -165.472 67.9502 -165.472 60.0195 -154.866 c 2,31,-1
 52.3555 -144.618 l 1,32,-1
 108.472 -41.9727 l 1,33,-1
 163.57 -81.1738 l 2,34,35
 178.377 -91.3223 178.377 -91.3223 198.144 -93.0479 c 0,36,37
 202.183 -93.4004 202.183 -93.4004 206.192 -93.4004 c 0,38,39
 222.07 -93.4004 222.07 -93.4004 237.551 -87.8535 c 0,40,41
 256.233 -81.1602 256.233 -81.1602 273.549 -64.2012 c 0,42,43
 289.009 -49.0605 289.009 -49.0605 297.417 -27.4658 c 1,44,-1
 300.55 -0.164062 l 1,45,-1
 303.362 18.0879 l 1,46,47
 292.174 11.0146 292.174 11.0146 279.752 6.05566 c 0,48,49
 251.852 -5.08301 251.852 -5.08301 223.704 -5.08301 c 0,50,51
 221.156 -5.08301 221.156 -5.08301 218.607 -4.99219 c 0,52,53
 187.918 -3.89062 187.918 -3.89062 159.438 11.4307 c 0,54,55
 131.2 26.6201 131.2 26.6201 110.442 52.1807 c 0,56,57
 88.9893 78.5957 88.9893 78.5957 79.502 121.224 c 0,58,59
 69.8174 164.732 69.8174 164.732 76.3262 213.782 c 0,60,61
 83.3174 266.479 83.3174 266.479 105.196 313.928 c 0,62,63
 126.788 360.76 126.788 360.76 157.344 390.379 c 0,64,65
 187.062 419.188 187.062 419.188 221.117 435.499 c 0,66,67
 253.612 451.062 253.612 451.062 286.957 451.062 c 0,68,69
 289.168 451.062 289.168 451.062 291.381 450.994 c 0,70,71
 326.264 449.912 326.264 449.912 356.731 431.258 c 2,72,-1
 359.5 429.499 l 1,73,-1
 361.617 447 l 1,74,-1
 469.299 447 l 1,75,-1
 405.408 5.95215 l 2,76,77
 388.03 -114.006 388.03 -114.006 304.38 -180.319 c 0,22,23
EndSplineSet
EndChar

StartChar: h
Encoding: 104 104 75
Width: 429
GlyphClass: 2
Flags: W
LayerCount: 2
Fore
SplineSet
384.875 229 m 2,0,-1
 362.658 71.5 l 2,1,2
 361.278 61.7217 361.278 61.7217 358.295 43.4443 c 0,3,4
 355.401 25.7236 355.401 25.7236 351.632 -1 c 2,5,-1
 348.81 -21 l 1,6,-1
 241.609 -21 l 1,7,-1
 244.432 -1 l 2,8,9
 248.968 31.1562 248.968 31.1562 253.905 63.3125 c 0,10,11
 258.795 95.1562 258.795 95.1562 263.923 131.5 c 2,12,-1
 278.521 235 l 2,13,14
 283.28 268.732 283.28 268.732 276.447 290.648 c 0,15,16
 269.922 311.581 269.922 311.581 257.658 319.376 c 0,17,18
 246.734 326.32 246.734 326.32 232.906 326.32 c 0,19,20
 230.198 326.32 230.198 326.32 227.37 326.057 c 0,21,22
 209.718 324.413 209.718 324.413 193.406 313.351 c 0,23,24
 177.295 302.423 177.295 302.423 164.431 281.71 c 0,25,26
 151.854 261.46 151.854 261.46 148.122 235 c 2,27,-1
 112.01 -21 l 1,28,-1
 8.03223 -21 l 1,29,-1
 117.465 760.75 l 1,30,-1
 225.096 769.332 l 1,31,-1
 176.61 425.615 l 1,32,33
 189.99 435.07 189.99 435.07 202.489 440.015 c 0,34,35
 232.787 452 232.787 452 261.933 452 c 0,36,37
 340.188 452 340.188 452 370.139 389.229 c 0,38,39
 398.958 328.827 398.958 328.827 384.875 229 c 2,0,-1
EndSplineSet
EndChar

StartChar: i
Encoding: 105 105 76
Width: 186
GlyphClass: 2
Flags: W
LayerCount: 2
Fore
SplineSet
105.909 596.146 m 128,-1,2
 126.798 614.817 126.798 614.817 137.778 615.168 c 128,-1,3
 148.76 615.519 148.76 615.519 149.539 615.519 c 0,0,0
 170.021 615.519 170.021 615.519 185.677 597.611 c 128,-1,4
 201.335 579.704 201.335 579.704 196.58 546 c 0,5,6
 191.777 511.95 191.777 511.95 170.774 491.975 c 128,-1,7
 149.772 472 149.772 472 128.221 472 c 128,-1,8
 106.668 472 106.668 472 91.1377 491.37 c 128,-1,9
 75.6064 510.74 75.6064 510.74 80.4395 545 c 0,0,1
 85.0205 577.479 85.0205 577.479 105.909 596.146 c 128,-1,2
73.7881 453 m 1,2,-1
 179.462 453 l 1,3,-1
 112.457 -22 l 1,4,-1
 8.53027 -22 l 1,5,-1
 73.7881 453 l 1,2,-1
EndSplineSet
EndChar

StartChar: j
Encoding: 106 106 77
Width: 186
GlyphClass: 2
Flags: W
LayerCount: 2
Fore
SplineSet
112.753 596.146 m 128,-1,2
 133.642 614.817 133.642 614.817 144.622 615.168 c 128,-1,3
 155.604 615.519 155.604 615.519 156.382 615.519 c 0,0,0
 176.864 615.519 176.864 615.519 192.521 597.611 c 128,-1,4
 208.179 579.704 208.179 579.704 203.425 546 c 0,5,6
 198.621 511.95 198.621 511.95 177.619 491.975 c 128,-1,7
 156.616 472 156.616 472 135.064 472 c 128,-1,8
 113.512 472 113.512 472 97.9814 491.37 c 128,-1,9
 82.4502 510.74 82.4502 510.74 87.2832 545 c 0,0,1
 91.8643 577.479 91.8643 577.479 112.753 596.146 c 128,-1,2
80.2822 450 m 1,2,-1
 185.913 450 l 1,3,-1
 104.364 -122 l 1,4,-1
 -0.405273 -122 l 1,5,-1
 80.2822 450 l 1,2,-1
EndSplineSet
EndChar

StartChar: k
Encoding: 107 107 78
Width: 438
GlyphClass: 2
Flags: W
LayerCount: 2
Fore
SplineSet
164.059 286.379 m 1,0,0
 313.396 445.07 l 1,1,-1
 452.327 443.597 l 1,2,-1
 249.382 227.005 l 1,0,0
 411.007 -19.5967 l 1,1,-1
 271.643 -21.0703 l 1,2,-1
 147.244 167.716 l 1,0,0
 120.764 -20 l 1,1,-1
 14.3428 -20 l 1,2,-1
 126.342 768 l 1,3,-1
 232.752 768 l 1,4,-1
 164.059 286.379 l 1,0,0
EndSplineSet
EndChar

StartChar: l
Encoding: 108 108 79
Width: 189
GlyphClass: 2
Flags: W
LayerCount: 2
Fore
SplineSet
136.219 237.981 m 1,0,-1
 99.8271 -20 l 1,1,-1
 -6.57324 -20 l 1,2,-1
 109.381 802 l 1,3,-1
 216.61 802 l 1,4,-1
 136.219 237.981 l 1,0,-1
EndSplineSet
EndChar

StartChar: m
Encoding: 109 109 80
Width: 666
GlyphClass: 2
Flags: W
LayerCount: 2
Fore
SplineSet
357.95 442.096 m 0,0,1
 377.258 431.826 377.258 431.826 394.352 408.424 c 0,2,3
 395.497 406.857 395.497 406.857 397.821 405.264 c 0,4,5
 399.094 404.392 399.094 404.392 400.059 404.157 c 0,6,7
 400.65 404.014 400.65 404.014 401.538 403.725 c 0,8,9
 402.426 403.436 402.426 403.436 402.723 403.403 c 1,10,11
 402.861 403.444 402.861 403.444 408.575 408.102 c 0,12,13
 412.878 411.607 412.878 411.607 418.89 415.904 c 0,14,15
 420.997 417.41 420.997 417.41 421.855 418.058 c 0,16,17
 442.135 433.341 442.135 433.341 467.8 442.947 c 0,18,19
 486.853 450.079 486.853 450.079 493.244 450.475 c 0,20,21
 496.338 450.667 496.338 450.667 499.671 450.667 c 0,22,23
 501.864 450.667 501.864 450.667 506.179 450.329 c 0,24,25
 510.493 449.992 510.493 449.992 512.986 449.971 c 0,26,27
 590.216 449.312 590.216 449.312 620.346 385.134 c 0,28,29
 649.628 322.76 649.628 322.76 635.556 223 c 2,30,-1
 613.903 69.5 l 2,31,32
 612.66 60.6895 612.66 60.6895 609.95 44.375 c 0,33,34
 607.346 28.6865 607.346 28.6865 603.44 1 c 2,35,-1
 600.647 -18.791 l 1,36,-1
 492.448 -20.2119 l 1,37,-1
 503.834 60.5 l 2,38,39
 507.873 89.1475 507.873 89.1475 513.093 123.294 c 0,40,41
 518.268 157.15 518.268 157.15 527.838 225 c 0,42,43
 532.542 258.355 532.542 258.355 526.672 281.688 c 0,44,45
 521.041 304.064 521.041 304.064 510.247 313.54 c 0,46,47
 499.474 323 499.474 323 485.263 323 c 0,48,49
 470.734 323 470.734 323 457.191 314.162 c 0,50,51
 443.909 305.495 443.909 305.495 432.45 285.497 c 0,52,53
 420.673 264.945 420.673 264.945 416.59 236 c 0,54,55
 415.738 229.961 415.738 229.961 382.486 -0.0869141 c 2,56,-1
 379.607 -20 l 1,57,-1
 278.077 -20 l 1,58,-1
 289.927 64 l 2,59,60
 294.32 95.1426 294.32 95.1426 299.749 130.781 c 0,61,62
 305.135 166.141 305.135 166.141 314.566 233 c 0,63,64
 319.391 267.202 319.391 267.202 313.209 290.427 c 0,65,66
 307.326 312.523 307.326 312.523 296.36 321.057 c 0,67,68
 285.484 329.521 285.484 329.521 271.377 329.521 c 0,69,70
 270.749 329.521 270.749 329.521 270.112 329.504 c 0,71,72
 254.859 329.108 254.859 329.108 240.674 320.057 c 0,73,74
 226.899 311.268 226.899 311.268 215.121 291.577 c 0,75,76
 203.224 271.688 203.224 271.688 199.459 245 c 2,77,-1
 162.077 -20 l 1,78,-1
 58.1152 -20 l 1,79,-1
 123.398 449 l 1,80,-1
 229.836 449 l 1,81,-1
 227.296 430.995 l 1,82,83
 238.019 437.459 238.019 437.459 258.226 444.656 c 0,84,85
 281.651 453 281.651 453 306.399 453 c 0,86,87
 337.451 453 337.451 453 357.95 442.096 c 0,0,1
EndSplineSet
EndChar

StartChar: n
Encoding: 110 110 81
Width: 381
GlyphClass: 2
Flags: W
LayerCount: 2
Fore
SplineSet
382.222 229.956 m 2,0,-1
 346.092 -20 l 1,1,-1
 238.962 -20 l 1,2,-1
 251.023 65.5 l 2,3,4
 255.629 98.1533 255.629 98.1533 261.267 135.271 c 0,5,6
 266.864 172.134 266.864 172.134 276.297 239 c 0,7,8
 281.11 273.123 281.11 273.123 274.904 295.794 c 0,9,10
 269.017 317.302 269.017 317.302 258.116 325.377 c 0,11,12
 248.258 332.68 248.258 332.68 235.679 332.68 c 0,13,14
 233.254 332.629 233.254 332.629 232.09 332.539 c 0,15,16
 216.581 331.341 216.581 331.341 201.691 321.314 c 0,17,18
 187.324 311.639 187.324 311.639 175.78 291.497 c 0,19,20
 164.002 270.944 164.002 270.944 160.214 244.082 c 2,21,-1
 124.693 -20 l 1,22,-1
 20.5996 -20 l 1,23,-1
 85.8818 449 l 1,24,-1
 192.32 449 l 1,25,-1
 189.541 429.304 l 1,26,-1
 204.488 437.938 l 2,27,28
 223.935 449 223.935 449 272.32 449 c 0,29,30
 349.591 449 349.591 449 373.853 388.742 c 0,31,32
 396.637 332.153 396.637 332.153 382.222 229.956 c 2,0,-1
EndSplineSet
EndChar

StartChar: o
Encoding: 111 111 82
Width: 448
GlyphClass: 2
Flags: W
LayerCount: 2
Fore
SplineSet
265.268 342 m 0,0,1
 235.649 342 235.649 342 211.407 324.176 c 128,-1,2
 187.165 306.353 187.165 306.353 173.609 280.354 c 128,-1,3
 160.055 254.356 160.055 254.356 157.563 237.987 c 128,-1,4
 155.072 221.618 155.072 221.618 154.918 220.523 c 0,5,6
 150.646 190.237 150.646 190.237 156.336 164.403 c 128,-1,7
 162.024 138.568 162.024 138.568 180.834 121.284 c 128,-1,8
 199.644 104 199.644 104 229.295 104 c 0,9,10
 275.124 104 275.124 104 306.547 140.394 c 0,11,12
 327.666 164.855 327.666 164.855 334.467 189.198 c 128,-1,13
 341.266 213.54 341.266 213.54 343.104 226.576 c 0,14,15
 346.089 247.734 346.089 247.734 343.308 272.808 c 128,-1,16
 340.523 297.882 340.523 297.882 320.219 319.941 c 128,-1,17
 299.914 342 299.914 342 265.268 342 c 0,0,1
384.587 418.975 m 128,-1,19
 425.18 383.949 425.18 383.949 437.824 331.757 c 128,-1,20
 450.47 279.565 450.47 279.565 442.053 219.9 c 0,21,22
 441.871 218.611 441.871 218.611 437.252 187.425 c 128,-1,23
 432.631 156.238 432.631 156.238 404.082 103.067 c 128,-1,24
 375.532 49.8965 375.532 49.8965 324.296 14.9482 c 128,-1,25
 273.059 -20 273.059 -20 211.804 -20 c 0,26,27
 149.749 -20 149.749 -20 108.316 14.9951 c 128,-1,28
 66.8838 49.9902 66.8838 49.9902 54.4326 102.234 c 128,-1,29
 41.9824 154.478 41.9824 154.478 50.21 212.806 c 0,30,31
 50.5654 215.323 50.5654 215.323 55.5059 247.149 c 128,-1,32
 60.4453 278.976 60.4453 278.976 89.3428 331.574 c 128,-1,33
 118.24 384.173 118.24 384.173 169.426 419.086 c 128,-1,34
 220.612 454 220.612 454 281.866 454 c 0,35,18
 343.995 454 343.995 454 384.587 418.975 c 128,-1,19
EndSplineSet
EndChar

StartChar: p
Encoding: 112 112 83
Width: 452
GlyphClass: 2
Flags: W
LayerCount: 2
Fore
SplineSet
413.331 93.4775 m 0,0,1
 385.901 43.1904 385.901 43.1904 348.439 15.7568 c 0,2,3
 312.302 -10.707 312.302 -10.707 272.779 -21.5029 c 0,4,5
 251.688 -27.2627 251.688 -27.2627 231.035 -27.2627 c 0,6,7
 212.494 -27.2627 212.494 -27.2627 194.369 -22.6201 c 0,8,9
 170.62 -16.5352 170.62 -16.5352 150.838 -3.59961 c 1,10,-1
 119.422 -221 l 1,11,-1
 15.5166 -221 l 1,12,-1
 108.894 447 l 1,13,-1
 215.319 447 l 1,14,-1
 212.871 429.638 l 1,15,16
 236.38 442.553 236.38 442.553 262.077 448.628 c 0,17,18
 280.782 453.05 280.782 453.05 298.65 453.05 c 0,19,20
 320.541 453.05 320.541 453.05 341.077 446.416 c 0,21,22
 377.858 434.532 377.858 434.532 406.315 406.436 c 0,23,24
 435.754 377.366 435.754 377.366 448.125 324.488 c 0,25,26
 459.82 274.498 459.82 274.498 451.028 212.168 c 0,27,28
 450.479 208.367 450.479 208.367 450.215 206.667 c 0,29,30
 440.384 143.075 440.384 143.075 413.331 93.4775 c 0,0,1
343.629 211 m 0,17,18
 349.176 250.321 349.176 250.321 339.006 279.126 c 128,-1,19
 328.837 307.931 328.837 307.931 309.104 318.725 c 128,-1,20
 289.369 329.519 289.369 329.519 267.103 329.519 c 0,0,0
 266.245 329.519 266.245 329.519 255.336 329.312 c 128,-1,21
 244.427 329.106 244.427 329.106 223.779 310.94 c 128,-1,22
 203.131 292.773 203.131 292.773 191.137 260.801 c 1,0,0
 188.055 248.308 188.055 248.308 184.952 227.804 c 128,-1,25
 181.851 207.301 181.851 207.301 181.154 202.367 c 0,0,0
 176.93 172.42 176.93 172.42 177.444 164.704 c 0,26,27
 179.418 135.065 179.418 135.065 195.258 117.482 c 128,-1,28
 211.097 99.8984 211.097 99.8984 221.703 99.7002 c 129,-1,29
 232.309 99.502 232.309 99.502 233.195 99.4912 c 0,30,31
 234.081 99.4805 234.081 99.4805 234.439 99.4805 c 0,0,0
 257.161 99.4805 257.161 99.4805 279.514 109.454 c 128,-1,30
 301.865 119.428 301.865 119.428 320.074 146.261 c 128,-1,31
 338.281 173.095 338.281 173.095 343.629 211 c 0,17,18
EndSplineSet
EndChar

StartChar: q
Encoding: 113 113 84
Width: 454
GlyphClass: 2
Flags: W
LayerCount: 2
Fore
SplineSet
81.7402 213.628 m 0,0,1
 88.0029 258.02 88.0029 258.02 103.456 296.25 c 0,2,3
 120.229 337.744 120.229 337.744 143.424 367.101 c 0,4,5
 166.351 396.118 166.351 396.118 194.593 416.361 c 0,6,7
 222.986 436.714 222.986 436.714 252.838 444.988 c 0,8,9
 278.56 452.117 278.56 452.117 303.947 452.117 c 0,10,11
 307.326 452.117 307.326 452.117 310.701 451.991 c 0,12,13
 337.777 450.976 337.777 450.976 365.241 437.812 c 0,14,15
 374.006 433.612 374.006 433.612 380.938 428.692 c 1,16,-1
 383.52 447 l 1,17,-1
 489.945 447 l 1,18,-1
 394.865 -221 l 1,19,-1
 290.959 -221 l 1,20,-1
 320.877 -3.59961 l 1,21,22
 297.447 -16.5352 297.447 -16.5352 271.979 -22.6201 c 0,23,24
 252.545 -27.2627 252.545 -27.2627 234.005 -27.2627 c 0,25,26
 213.351 -27.2627 213.351 -27.2627 193.886 -21.5029 c 0,27,28
 157.408 -10.707 157.408 -10.707 128.736 15.7568 c 0,29,30
 99.0137 43.1904 99.0137 43.1904 85.7715 93.4775 c 0,31,32
 72.7217 143.038 72.7217 143.038 80.8135 206.608 c 0,33,34
 81.3896 211.138 81.3896 211.138 81.7402 213.628 c 0,0,1
188.629 211 m 0,20,21
 183.283 173.095 183.283 173.095 193.92 146.261 c 128,-1,22
 204.559 119.428 204.559 119.428 224.097 109.454 c 128,-1,23
 243.635 99.4805 243.635 99.4805 266.356 99.4805 c 1,0,0
 266.121 99.4805 266.121 99.4805 267.01 99.4854 c 0,1,2
 267.897 99.4912 267.897 99.4912 278.857 99.6943 c 128,-1,24
 289.816 99.8984 289.816 99.8984 310.617 117.482 c 128,-1,25
 331.417 135.065 331.417 135.065 341.753 164.704 c 0,26,27
 344.444 172.42 344.444 172.42 348.669 202.367 c 0,0,0
 349.363 207.299 349.363 207.299 352.048 227.805 c 128,-1,28
 354.729 248.312 354.729 248.312 355.172 260.804 c 1,0,0
 352.197 292.774 352.197 292.774 336.675 310.94 c 128,-1,31
 321.151 329.106 321.151 329.106 310.302 329.312 c 128,-1,32
 299.45 329.519 299.45 329.519 298.594 329.519 c 0,0,0
 276.326 329.519 276.326 329.519 253.547 318.725 c 128,-1,33
 230.769 307.931 230.769 307.931 212.473 279.126 c 128,-1,34
 194.177 250.321 194.177 250.321 188.629 211 c 0,20,21
EndSplineSet
EndChar

StartChar: r
Encoding: 114 114 85
Width: 309
GlyphClass: 2
Flags: W
LayerCount: 2
Fore
SplineSet
328.112 445.141 m 2,0,-1
 341.16 436.893 l 1,1,-1
 284.557 321.911 l 1,2,-1
 272.224 325.477 l 2,3,4
 264.647 327.667 264.647 327.667 255.935 327.667 c 0,5,6
 244.67 327.667 244.67 327.667 231.485 324.012 c 0,7,8
 208.784 317.72 208.784 317.72 193.491 300.405 c 0,9,10
 178.992 283.989 178.992 283.989 164.286 254.377 c 0,11,12
 150.695 227.01 150.695 227.01 147.352 203.951 c 2,13,-1
 114.883 -20 l 1,14,-1
 10.999 -20 l 1,15,-1
 76.2812 449 l 1,16,-1
 182.906 449 l 1,17,-1
 178.289 418.291 l 1,18,19
 202.476 441.469 202.476 441.469 227.422 450.608 c 0,20,21
 253.055 460 253.055 460 277.87 460 c 0,22,23
 304.604 460 304.604 460 328.112 445.141 c 2,0,-1
EndSplineSet
EndChar

StartChar: s
Encoding: 115 115 86
Width: 373
GlyphClass: 2
Flags: W
LayerCount: 2
Fore
SplineSet
37.9062 78.6973 m 1,0,-1
 126.194 162.963 l 1,1,-1
 134.332 146.404 l 2,2,3
 152.246 109.957 152.246 109.957 192.178 103.843 c 0,4,5
 198.355 102.896 198.355 102.896 202.738 102.896 c 0,6,7
 215.285 102.896 215.285 102.896 224.464 108.389 c 0,8,9
 234.299 114.274 234.299 114.274 238.456 120.438 c 0,10,11
 239.831 122.477 239.831 122.477 240.443 124.022 c 0,12,13
 241.362 126.344 241.362 126.344 241.637 127.615 c 2,14,-1
 241.83 128.702 l 2,15,16
 242.202 131.574 242.202 131.574 241.58 134.669 c 0,17,18
 241.187 136.642 241.187 136.642 240.405 138.763 c 0,19,20
 236.633 149.014 236.633 149.014 221.67 154.807 c 0,21,22
 155.713 180.342 155.713 180.342 150.027 183.354 c 0,23,24
 117.047 200.821 117.047 200.821 106.004 239.604 c 0,25,26
 95.9229 275.009 95.9229 275.009 101.423 314 c 0,27,28
 104.453 335.481 104.453 335.481 114.207 358.257 c 0,29,30
 123.952 381.013 123.952 381.013 141.634 403.188 c 0,31,32
 160.476 426.812 160.476 426.812 192.898 441.203 c 0,33,34
 223.983 455 223.983 455 262.112 455 c 0,35,36
 336.057 455 336.057 455 366.13 407.967 c 2,37,-1
 374.05 395.581 l 1,38,-1
 300.702 298.245 l 1,39,-1
 290.495 316.984 l 2,40,41
 278.422 339.15 278.422 339.15 255.256 343.206 c 0,42,43
 251.356 343.889 251.356 343.889 247.999 343.889 c 0,44,45
 243.011 343.889 243.011 343.889 237.227 342.755 c 0,46,47
 228.527 341.05 228.527 341.05 218.982 333.066 c 0,48,49
 213.008 328.068 213.008 328.068 211.587 318 c 0,50,51
 208.612 296.916 208.612 296.916 232.714 286.41 c 2,52,-1
 268.978 277.427 l 1,53,-1
 269.805 277.083 l 2,54,55
 312.292 259.445 312.292 259.445 332.014 225.379 c 0,56,57
 352.46 190.064 352.46 190.064 348.332 150.422 c 0,58,59
 347.877 146.062 347.877 146.062 347.27 141.75 c 0,60,61
 342.771 109.854 342.771 109.854 329.903 80.9072 c 0,62,63
 315.189 47.8066 315.189 47.8066 292.449 24.5449 c 0,64,65
 265.48 -3.04395 265.48 -3.04395 234.628 -12.8301 c 0,66,67
 205.938 -21.9287 205.938 -21.9287 169.507 -22.9932 c 0,68,69
 167.744 -23.0449 167.744 -23.0449 166.632 -23.0449 c 0,70,71
 136.863 -23.0449 136.863 -23.0449 96.9238 -1.00781 c 0,72,73
 52.8867 23.2891 52.8867 23.2891 41.6484 64.8535 c 2,74,-1
 37.9062 78.6973 l 1,0,-1
EndSplineSet
EndChar

StartChar: t
Encoding: 116 116 87
Width: 221
GlyphClass: 2
Flags: W
LayerCount: 2
Fore
SplineSet
202.815 442 m 1,0,0
 241.216 442 l 1,1,-1
 223.725 318 l 1,2,-1
 184.524 318 l 1,0,0
 136.562 -22 l 1,1,-1
 28.5635 -22 l 1,2,-1
 76.8057 320 l 1,0,0
 42.4062 320 l 1,1,-1
 59.6152 442 l 1,2,-1
 96.415 442 l 1,0,0
 109.393 534 l 1,1,-1
 215.793 534 l 1,2,-1
 202.815 442 l 1,0,0
EndSplineSet
EndChar

StartChar: u
Encoding: 117 117 88
Width: 425
GlyphClass: 2
Flags: W
LayerCount: 2
Fore
SplineSet
78.6865 308.257 m 0,0,1
 84.5674 347.128 84.5674 347.128 85.8896 356.5 c 2,2,-1
 98.9375 449 l 1,3,-1
 206.139 449 l 1,4,-1
 169.604 190 l 2,5,6
 164.828 156.146 164.828 156.146 170.82 136.152 c 0,7,8
 176.199 118.21 176.199 118.21 186.278 113.282 c 0,9,10
 192.639 110.173 192.639 110.173 200.063 110.173 c 0,11,12
 205.741 110.173 205.741 110.173 212.15 111.974 c 0,13,14
 228.16 116.472 228.16 116.472 243.661 129.767 c 128,-1,15
 259.188 143.081 259.188 143.081 272.042 166.206 c 0,16,17
 284.645 188.877 284.645 188.877 288.464 215.953 c 2,18,-1
 320.463 449 l 1,19,-1
 425.301 449 l 1,20,-1
 360.018 -20 l 1,21,-1
 254.072 -20 l 1,22,-1
 258.436 17.5938 l 1,23,24
 245.285 3.39258 245.285 3.39258 236.09 -1.88867 c 0,25,26
 204.558 -20 204.558 -20 173.58 -20 c 0,27,28
 95.5088 -20 95.5088 -20 71.2461 40.2578 c 0,29,30
 48.4629 96.8467 48.4629 96.8467 62.8721 199 c 0,31,32
 72.7656 269.128 72.7656 269.128 78.6865 308.257 c 0,0,1
EndSplineSet
EndChar

StartChar: v
Encoding: 118 118 89
Width: 429
GlyphClass: 2
Flags: W
LayerCount: 2
Fore
SplineSet
468.827 448.664 m 1,0,-1
 202.098 -86.7852 l 1,1,-1
 93.3936 446.686 l 1,2,-1
 205.146 448.139 l 1,3,-1
 248.529 230.155 l 1,0,0
 361.547 450.141 l 1,1,-1
 468.827 448.664 l 1,0,-1
EndSplineSet
EndChar

StartChar: w
Encoding: 119 119 90
Width: 538
GlyphClass: 2
Flags: W
LayerCount: 2
Fore
SplineSet
390.8 227.101 m 1,0,0
 487.149 450.152 l 1,1,-1
 594.493 448.691 l 1,2,-1
 365.075 -80.8545 l 1,3,-1
 310.092 123.474 l 1,0,0
 192.025 -78.8008 l 1,1,-1
 110.108 446.703 l 1,2,-1
 221.126 448.146 l 1,3,-1
 256.087 222.593 l 1,0,0
 348.711 385.196 l 1,1,-1
 390.8 227.101 l 1,0,0
EndSplineSet
EndChar

StartChar: x
Encoding: 120 120 91
Width: 439
GlyphClass: 2
Flags: W
LayerCount: 2
Fore
SplineSet
96.9814 104.415 m 1,0,-1
 185.884 234.062 l 1,1,-1
 150.298 323.586 l 1,2,-1
 97.0127 446.678 l 1,3,-1
 233.195 448.095 l 1,4,-1
 266.046 351.645 l 1,5,-1
 330.801 448 l 1,6,-1
 454.08 448 l 1,7,-1
 352.22 296.959 l 1,8,-1
 310.905 235.027 l 1,9,-1
 410.324 -21.3545 l 1,10,-1
 287.228 -19.9004 l 1,11,-1
 232.212 117.895 l 1,12,-1
 208.551 82.3584 l 1,13,-1
 144.81 -20 l 1,14,-1
 8.79395 -20 l 1,15,-1
 96.9814 104.415 l 1,0,-1
EndSplineSet
EndChar

StartChar: y
Encoding: 121 121 92
Width: 418
GlyphClass: 2
Flags: W
LayerCount: 2
Fore
SplineSet
171.926 75.5176 m 1,0,0
 85.9414 446.676 l 1,1,-1
 197.97 448.132 l 1,2,-1
 251.526 226.022 l 1,0,0
 375.304 450.135 l 1,1,-1
 483.047 448.651 l 1,2,-1
 128.494 -220 l 1,3,-1
 6.44531 -220 l 1,4,-1
 171.926 75.5176 l 1,0,0
EndSplineSet
EndChar

StartChar: z
Encoding: 122 122 93
Width: 400
GlyphClass: 2
Flags: W
LayerCount: 2
Fore
SplineSet
90.4248 325.903 m 1,0,-1
 107.085 444 l 1,1,-1
 435.381 444 l 1,2,-1
 359.835 331.981 l 1,3,-1
 209.779 106 l 1,0,0
 378.606 106 l 1,1,-1
 360.832 -20 l 1,2,-1
 4.2002 -20 l 1,3,-1
 241.823 326.816 l 1,0,0
 90.4248 325.903 l 1,0,-1
EndSplineSet
EndChar

StartChar: braceleft
Encoding: 123 123 94
Width: 244
GlyphClass: 2
Flags: W
LayerCount: 2
Fore
SplineSet
176.202 -8.20312 m 2,0,-1
 181.542 -14.208 l 1,1,-1
 159.851 -167.991 l 1,2,-1
 138.818 -153.979 l 2,3,4
 78.3818 -113.716 78.3818 -113.716 46.3604 -37.4844 c 0,5,6
 14.2061 39.0645 14.2061 39.0645 21.7891 146.112 c 0,7,8
 21.8789 147.375 21.8789 147.375 23.8154 157.675 c 0,9,10
 25.3867 166.022 25.3867 166.022 27.3818 177.369 c 0,11,12
 27.9795 180.768 27.9795 180.768 28.5303 184.667 c 0,13,14
 29.6641 192.709 29.6641 192.709 30.5791 202.752 c 0,15,16
 31.9424 217.727 31.9424 217.727 32.0508 231.712 c 0,17,18
 32.1553 245.261 32.1553 245.261 30.5059 259.36 c 0,19,20
 29.0137 272.115 29.0137 272.115 25.5283 280.733 c 0,21,22
 22.4824 288.265 22.4824 288.265 16.4746 293.54 c 0,23,24
 11.3936 298 11.3936 298 3.18262 298 c 1,25,-1
 8.82617 338 l 1,26,27
 23.6826 338 23.6826 338 34.8027 356.154 c 0,28,29
 49.5732 380.271 49.5732 380.271 55.7451 409.284 c 0,30,31
 62.5811 441.425 62.5811 441.425 66.8574 471.5 c 0,32,33
 70.8799 499.792 70.8799 499.792 72.5049 505.238 c 0,34,35
 93.4082 608.868 93.4082 608.868 146.899 682.332 c 0,36,37
 200.659 756.168 200.659 756.168 273.841 793.323 c 2,38,-1
 297.983 805.58 l 1,39,-1
 277.685 661.679 l 1,40,-1
 270.111 655.699 l 2,41,42
 201.734 601.709 201.734 601.709 179.394 503.741 c 0,43,44
 179.006 502.04 179.006 502.04 178.386 498.004 c 0,45,46
 177.765 493.968 177.765 493.968 176.678 486.501 c 0,47,48
 175.59 479.034 175.59 479.034 174.762 473.667 c 0,49,50
 170.017 442.94 170.017 442.94 162.736 408.716 c 0,51,52
 154.674 370.809 154.674 370.809 135.141 338.479 c 0,53,54
 129.088 328.462 129.088 328.462 122.2 320.988 c 1,55,56
 127.957 313.512 127.957 313.512 131.282 303.899 c 0,57,58
 135.899 290.55 135.899 290.55 138.317 272.502 c 0,59,60
 140.718 254.577 140.718 254.577 140.056 237.06 c 0,61,62
 139.443 220.887 139.443 220.887 137.854 203.71 c 0,63,64
 136.27 186.605 136.27 186.605 134.562 174.5 c 2,65,-1
 131.515 152.893 l 1,66,-1
 131.262 151.791 l 2,67,68
 130.082 146.664 130.082 146.664 129.624 145.226 c 0,69,70
 129.545 144.785 129.545 144.785 129.546 144.782 c 0,71,72
 122.246 52.4736 122.246 52.4736 176.202 -8.20312 c 2,0,-1
113.46 144 m 0,41,-1
EndSplineSet
EndChar

StartChar: bar
Encoding: 124 124 95
Width: 186
GlyphClass: 2
Flags: W
LayerCount: 2
Fore
SplineSet
141.8 237.938 m 1,0,-1
 103.681 -20 l 1,1,-1
 -2.58594 -20 l 1,2,-1
 101.377 717 l 1,3,-1
 208.542 717 l 1,4,-1
 141.8 237.938 l 1,0,-1
EndSplineSet
EndChar

StartChar: braceright
Encoding: 125 125 96
Width: 224
GlyphClass: 2
Flags: W
LayerCount: 2
Fore
SplineSet
21.5586 152.932 m 2,0,1
 22.1201 162.587 22.1201 162.587 23.8008 174.5 c 0,2,3
 25.5088 186.605 25.5088 186.605 28.751 203.71 c 0,4,5
 32.0068 220.887 32.0068 220.887 35.957 237.06 c 0,6,7
 40.168 254.295 40.168 254.295 47.0781 271.966 c 0,8,9
 54.3682 290.607 54.3682 290.607 63.5273 304.426 c 0,10,11
 69.6582 313.676 69.6582 313.676 77.3975 320.952 c 1,12,13
 72.458 328.439 72.458 328.439 69.1592 338.255 c 0,14,15
 58.2168 370.807 58.2168 370.807 61.3262 409.012 c 0,16,17
 64.0986 443.089 64.0986 443.089 68.0049 473.667 c 0,18,19
 68.7012 479.124 68.7012 479.124 69.7217 486.604 c 0,20,21
 70.7412 494.084 70.7412 494.084 71.2539 498.076 c 0,22,23
 71.7656 502.069 71.7656 502.069 71.8574 503.761 c 0,24,25
 77.1504 601.715 77.1504 601.715 24.0098 655.699 c 2,26,-1
 18.123 661.679 l 1,27,-1
 38.4219 805.58 l 1,28,-1
 59.1064 793.323 l 2,29,30
 121.807 756.168 121.807 756.168 154.736 682.332 c 0,31,32
 187.997 607.756 187.997 607.756 178.878 502.705 c 0,33,34
 178.077 493.479 178.077 493.479 175.41 472.345 c 0,35,36
 170.571 433.995 170.571 433.995 168.856 409.284 c 0,37,38
 166.843 380.271 166.843 380.271 174.809 356.154 c 0,39,40
 180.808 338 180.808 338 195.665 338 c 1,41,-1
 190.021 298 l 1,42,43
 181.811 298 181.811 298 175.473 293.54 c 0,44,45
 167.977 288.265 167.977 288.265 162.805 280.733 c 0,46,47
 156.722 271.872 156.722 271.872 151.173 258.812 c 0,48,49
 145.424 245.283 145.424 245.283 142.222 232.356 c 0,50,51
 138.678 218.052 138.678 218.052 135.756 202.752 c 0,52,53
 133.836 192.709 133.836 192.709 132.702 184.667 c 0,54,55
 132.151 180.769 132.151 180.769 131.791 177.369 c 0,56,57
 130.585 166.022 130.585 166.022 129.801 157.675 c 0,58,59
 128.832 147.386 128.832 147.386 128.565 146.112 c 0,60,61
 106.105 39.29 106.105 39.29 52.1973 -37.4844 c 0,62,63
 -1.33008 -113.716 -1.33008 -113.716 -73.127 -153.979 c 2,64,-1
 -98.1113 -167.991 l 1,65,-1
 -76.4189 -14.208 l 1,66,-1
 -69.3838 -8.20312 l 2,67,68
 1.60547 52.4014 1.60547 52.4014 20.4336 144.782 c 2,69,-1
 21.5586 152.932 l 2,0,1
36.2988 144 m 0,42,-1
EndSplineSet
EndChar

StartChar: asciitilde
Encoding: 126 126 97
Width: 449
GlyphClass: 2
Flags: W
LayerCount: 2
Fore
SplineSet
370.909 600.816 m 1,0,1
 373.75 583.142 373.75 583.142 371.379 566.333 c 0,2,3
 370.014 556.652 370.014 556.652 366.935 547.367 c 0,4,5
 357.364 518.5 357.364 518.5 335.276 502.646 c 0,6,7
 316.4 489.099 316.4 489.099 296.348 484.37 c 0,8,9
 289.558 482.77 289.558 482.77 283.003 482.77 c 0,10,11
 268.301 482.77 268.301 482.77 255.219 490.762 c 0,12,13
 235.559 502.773 235.559 502.773 228.93 530.401 c 2,14,-1
 224.682 548.114 l 1,15,-1
 290.351 585.833 l 1,16,-1
 294.983 567.944 l 2,17,18
 296.073 563.73 296.073 563.73 298.511 563.39 c 1,19,20
 298.477 563.39 298.477 563.39 298.511 563.39 c 129,-1,21
 298.521 563.389 298.521 563.389 298.519 563.389 c 1,22,-1
 298.519 563.389 l 1,23,24
 299.361 563.311 299.361 563.311 299.556 563.312 c 0,25,26
 301.812 563.312 301.812 563.312 303.382 565.516 c 1,27,-1
 303.565 565.42 l 1,28,29
 303.584 565.991 303.584 565.991 303.451 566.785 c 1,30,31
 303.675 565.971 303.675 565.971 303.78 565.613 c 128,-1,32
 303.885 565.255 303.885 565.255 303.41 567.154 c 1,33,-1
 291.449 585.304 l 1,34,-1
 374.885 628.999 l 1,35,-1
 370.909 600.816 l 1,0,1
153.091 497.184 m 1,36,37
 150.25 514.858 150.25 514.858 152.621 531.667 c 0,38,39
 153.986 541.348 153.986 541.348 157.065 550.633 c 0,40,41
 166.636 579.5 166.636 579.5 188.724 595.354 c 0,42,43
 207.6 608.901 207.6 608.901 227.652 613.63 c 0,44,45
 234.442 615.23 234.442 615.23 240.997 615.23 c 0,46,47
 255.699 615.23 255.699 615.23 268.781 607.238 c 0,48,49
 288.441 595.227 288.441 595.227 295.07 567.599 c 2,50,-1
 299.318 549.886 l 1,51,-1
 233.649 512.167 l 1,52,-1
 229.017 530.056 l 2,53,54
 227.924 534.275 227.924 534.275 225.479 534.609 c 0,55,56
 224.631 534.689 224.631 534.689 224.444 534.688 c 0,57,58
 222.44 534.688 222.44 534.688 220.618 532.484 c 1,59,60
 220.258 531.802 220.258 531.802 220.396 531.551 c 128,-1,61
 220.532 531.301 220.532 531.301 220.548 531.226 c 129,-1,62
 220.539 531.271 220.539 531.271 220.547 531.273 c 1,63,-1
 220.64 530.771 l 1,64,-1
 232.551 512.696 l 1,65,-1
 149.115 469.001 l 1,66,-1
 153.091 497.184 l 1,36,37
225.479 534.609 m 129,-1,67
 225.497 534.609 225.497 534.609 225.479 534.609 c 129,-1,67
EndSplineSet
EndChar

StartChar: exclamdown
Encoding: 161 161 98
Width: 213
GlyphClass: 2
Flags: W
LayerCount: 2
Fore
SplineSet
14.8633 -19 m 1,0,-1
 77.4785 462 l 1,1,-1
 182.317 462 l 1,2,-1
 118.83 -19 l 1,3,-1
 14.8633 -19 l 1,0,-1
118.369 692.491 m 128,-1,13
 140.763 714 140.763 714 164.516 714 c 128,-1,12
 188.269 714 188.269 714 204.44 691.899 c 128,-1,11
 220.61 669.798 220.61 669.798 215.278 632 c 0,9,10
 210.148 595.633 210.148 595.633 188.046 575.559 c 128,-1,8
 165.941 555.484 165.941 555.484 143.217 555.484 c 0,0,0
 142.47 555.484 142.47 555.484 130.479 555.826 c 128,-1,7
 118.486 556.168 118.486 556.168 102.072 576.999 c 128,-1,6
 85.6582 597.829 85.6582 597.829 90.7607 634 c 0,4,5
 95.9766 670.981 95.9766 670.981 118.369 692.491 c 128,-1,13
EndSplineSet
EndChar

StartChar: yen
Encoding: 165 165 99
Width: 550
GlyphClass: 2
Flags: W
LayerCount: 2
Fore
SplineSet
72.0635 220 m 1,0,-1
 504.872 220 l 1,1,-1
 484.488 92 l 1,2,-1
 51.6797 92 l 1,3,-1
 72.0635 220 l 1,0,-1
94.3262 400 m 1,4,-1
 527.135 400 l 1,5,-1
 511.407 272 l 1,6,-1
 78.5986 272 l 1,7,-1
 94.3262 400 l 1,4,-1
101.701 712 m 1,8,-1
 224.887 712 l 1,9,-1
 325.423 454.427 l 1,10,-1
 495.62 712 l 1,11,-1
 618.679 712 l 1,12,-1
 363.745 328.043 l 1,13,-1
 315.151 -16.4424 l 1,14,-1
 197.413 -20.5869 l 1,15,-1
 252.125 325.627 l 1,16,-1
 101.701 712 l 1,8,-1
EndSplineSet
EndChar

StartChar: dieresis
Encoding: 168 168 100
Width: 638
GlyphClass: 2
Flags: W
LayerCount: 2
Fore
SplineSet
208.337 862.491 m 128,-1,1
 230.729 884 230.729 884 254.267 884 c 128,-1,2
 277.806 884 277.806 884 294.444 863.684 c 128,-1,3
 311.081 843.367 311.081 843.367 305.952 807 c 0,4,5
 300.62 769.202 300.62 769.202 278.214 747.101 c 128,-1,6
 255.808 725 255.808 725 232.055 725 c 128,-1,7
 208.301 725 208.301 725 191.977 746.509 c 128,-1,8
 175.652 768.019 175.652 768.019 180.869 805 c 0,9,0
 185.944 840.981 185.944 840.981 208.337 862.491 c 128,-1,1
406.031 857.491 m 128,-1,11
 428.426 879 428.426 879 451.963 879 c 128,-1,12
 475.5 879 475.5 879 492.139 858.684 c 128,-1,13
 508.775 838.367 508.775 838.367 503.646 802 c 0,14,15
 498.314 764.202 498.314 764.202 475.908 742.101 c 128,-1,16
 453.502 720 453.502 720 429.748 720 c 128,-1,17
 405.996 720 405.996 720 389.672 741.509 c 128,-1,18
 373.348 763.019 373.348 763.019 378.563 800 c 0,19,10
 383.64 835.981 383.64 835.981 406.031 857.491 c 128,-1,11
EndSplineSet
EndChar

StartChar: guillemotleft
Encoding: 171 171 101
Width: 533
GlyphClass: 2
Flags: W
LayerCount: 2
Fore
SplineSet
446.674 465.934 m 1,0,-1
 427.556 330.409 l 1,1,-1
 370.494 287.129 l 1,0,0
 414.579 239.031 l 1,1,-1
 395.922 97.9873 l 1,2,-1
 215.825 289.635 l 1,3,-1
 446.674 465.934 l 1,0,-1
281.319 467.676 m 1,4,-1
 262.395 333.521 l 1,5,-1
 205.213 289.42 l 1,0,0
 249.417 242.133 l 1,1,-1
 230.596 99.9492 l 1,2,-1
 49.7715 292.748 l 1,3,-1
 281.319 467.676 l 1,4,-1
EndSplineSet
EndChar

StartChar: degree
Encoding: 176 176 102
Width: 504
GlyphClass: 2
Flags: W
LayerCount: 2
Fore
SplineSet
281.851 807.628 m 0,0,1
 281.704 807.628 281.704 807.628 281.575 807.605 c 0,2,3
 281.069 807.517 281.069 807.517 279.713 806.725 c 0,4,5
 277.901 805.666 277.901 805.666 277.384 802 c 0,6,7
 276.806 797.896 276.806 797.896 277.881 797.11 c 0,8,9
 277.906 797.095 277.906 797.095 278.027 797.013 c 0,10,11
 278.513 796.683 278.513 796.683 278.627 796.621 c 0,12,13
 279.306 796.252 279.306 796.252 279.862 796.252 c 0,14,15
 280.174 796.271 280.174 796.271 280.24 796.281 c 0,16,17
 281.089 796.418 281.089 796.418 282.531 797.244 c 128,-1,18
 284.035 798.105 284.035 798.105 284.726 803 c 0,19,20
 285.129 805.857 285.129 805.857 283.874 806.756 c 0,21,22
 283.716 806.916 283.716 806.916 283.085 807.248 c 0,23,24
 282.605 807.501 282.605 807.501 281.851 807.628 c 0,0,1
281.851 807.628 m 1,25,-1
 281.851 807.628 l 1,25,-1
279.862 796.252 m 1,26,-1
 279.862 796.252 l 1,26,-1
277.881 797.11 m 1,27,28
 277.894 797.102 277.894 797.102 277.899 797.096 c 1,29,-1
 277.881 797.11 l 1,27,28
277.899 797.096 m 1,30,-1
 277.899 797.096 l 1,30,-1
239.293 864.426 m 128,-1,32
 264.27 886.205 264.27 886.205 288.229 886.205 c 0,33,34
 290.944 886.205 290.944 886.205 305.029 884.832 c 128,-1,35
 319.116 883.459 319.116 883.459 338.352 860.468 c 128,-1,36
 357.589 837.479 357.589 837.479 352.161 799 c 0,37,38
 346.475 758.688 346.475 758.688 320.58 734.982 c 128,-1,39
 294.685 711.278 294.685 711.278 280.775 710.614 c 128,-1,40
 266.867 709.95 266.867 709.95 265.528 709.95 c 0,41,42
 239.967 709.95 239.967 709.95 221.161 733.898 c 128,-1,43
 202.355 757.847 202.355 757.847 208.444 801 c 0,44,31
 214.317 842.646 214.317 842.646 239.293 864.426 c 128,-1,32
EndSplineSet
EndChar

StartChar: plusminus
Encoding: 177 177 103
Width: 441
GlyphClass: 2
Flags: W
LayerCount: 2
Fore
SplineSet
371.652 107 m 1,0,-1
 29.252 107 l 1,1,-1
 47.583 236.948 l 1,2,-1
 390.138 238.052 l 1,3,-1
 371.652 107 l 1,0,-1
301.384 453.147 m 1,0,0
 280.299 298 l 1,1,-1
 175.396 298 l 1,2,-1
 197.239 452.857 l 1,0,0
 84.2988 451.857 l 1,1,-1
 102.677 582.141 l 1,2,-1
 216.602 581.144 l 1,0,0
 234.778 727 l 1,1,-1
 339.11 727 l 1,2,-1
 318.818 583.146 l 1,0,0
 428.56 584.146 l 1,1,-1
 410.221 454.146 l 1,2,-1
 301.384 453.147 l 1,0,0
EndSplineSet
EndChar

StartChar: uni00B2
Encoding: 178 178 104
Width: 370
GlyphClass: 2
Flags: W
LayerCount: 2
Fore
SplineSet
282.601 734.539 m 2,1,2
 301.031 762.421 301.031 762.421 304.042 783.766 c 0,0,0
 304.555 787.396 304.555 787.396 304.682 797.998 c 128,-1,3
 304.809 808.598 304.809 808.598 288.731 813.531 c 0,4,5
 286.451 814.23 286.451 814.23 283.783 814.23 c 0,0,0
 276.814 814.23 276.814 814.23 266.378 809.145 c 128,-1,6
 255.941 804.059 255.941 804.059 250.893 791.676 c 2,7,-1
 240.95 767.291 l 1,8,-1
 187.418 815.651 l 1,9,-1
 195.673 831.548 l 2,8,9
 229.175 896.07 229.175 896.07 292.152 896.07 c 0,0,0
 293.433 896.07 293.433 896.07 296.415 895.994 c 0,10,11
 342.909 894.806 342.909 894.806 361.344 864.765 c 128,-1,12
 379.778 834.724 379.778 834.724 373.936 793.3 c 0,0,0
 372.721 784.689 372.721 784.689 365.707 755.595 c 128,-1,13
 358.693 726.5 358.693 726.5 320.717 673.199 c 2,14,-1
 259.426 590.294 l 1,0,0
 353.025 591.146 l 1,1,-1
 340.873 505 l 1,2,-1
 109.221 505 l 1,3,-1
 282.601 734.539 l 2,1,2
EndSplineSet
EndChar

StartChar: uni00B3
Encoding: 179 179 105
Width: 353
GlyphClass: 2
Flags: W
LayerCount: 2
Fore
SplineSet
285.08 767.09 m 128,-1,2
 289.597 776.38 289.597 776.38 290.688 784.125 c 0,0,0
 291.698 791.278 291.698 791.278 289.942 798.056 c 0,3,4
 286.951 809.609 286.951 809.609 273.442 813.453 c 0,5,6
 268.784 814.777 268.784 814.777 263.186 814.777 c 0,0,0
 256.225 814.777 256.225 814.777 247.135 812.181 c 128,-1,7
 238.043 809.585 238.043 809.585 232.015 799.287 c 2,8,-1
 221.186 780.792 l 1,9,-1
 168.673 827.446 l 1,10,-1
 181.055 844.696 l 2,9,10
 216.509 894.089 216.509 894.089 277.615 894.089 c 0,0,0
 278.452 894.089 278.452 894.089 280.221 894.044 c 0,1,2
 281.99 893.998 281.99 893.998 282.812 893.996 c 0,11,12
 313.002 893.912 313.002 893.912 333.559 875.185 c 128,-1,13
 354.113 856.457 354.113 856.457 358.703 833.132 c 128,-1,14
 363.292 809.808 363.292 809.808 360.309 788.656 c 0,0,0
 358.789 777.884 358.789 777.884 353.604 759.62 c 128,-1,15
 348.417 741.355 348.417 741.355 332.67 719.457 c 1,0,0
 348.732 688.137 348.732 688.137 349.308 663.469 c 128,-1,18
 349.883 638.801 349.883 638.801 347.944 625.069 c 0,0,0
 344.199 598.511 344.199 598.511 329.224 570.832 c 128,-1,19
 314.247 543.153 314.247 543.153 283.803 521.143 c 128,-1,20
 253.358 499.132 253.358 499.132 219.166 499.007 c 0,21,22
 218.233 499.004 218.233 499.004 216.156 498.936 c 0,23,24
 214.077 498.867 214.077 498.867 213.095 498.867 c 0,0,0
 168.857 498.867 168.857 498.867 129.789 527.316 c 2,23,-1
 113.771 538.98 l 1,24,-1
 166.769 603.342 l 1,25,-1
 176.83 597.276 l 2,24,25
 189.038 589.918 189.038 589.918 198.927 586.459 c 128,-1,26
 208.814 583 208.814 583 211.768 583 c 130,-1,27
 232.318 583 l 2,28,29
 252.686 583 252.686 583 263.607 598.847 c 128,-1,30
 274.529 614.694 274.529 614.694 276.53 628.878 c 0,0,0
 277.472 635.549 277.472 635.549 276.418 649.01 c 128,-1,31
 275.364 662.471 275.364 662.471 260.117 670.073 c 1,0,0
 210.799 671.419 l 1,1,-1
 220.05 748.518 l 1,2,-1
 268.325 749.948 l 1,0,0
 270.539 750.579 270.539 750.579 271.668 751.133 c 0,1,2
 273.534 752.047 273.534 752.047 275.253 753.454 c 0,3,4
 280.564 757.8 280.564 757.8 285.08 767.09 c 128,-1,2
EndSplineSet
EndChar

StartChar: acute
Encoding: 180 180 106
Width: 876
GlyphClass: 2
Flags: W
LayerCount: 2
Fore
SplineSet
433.978 1014.89 m 1,0,-1
 490.876 909.211 l 1,1,-1
 325.118 764.572 l 1,2,-1
 273.541 837.216 l 1,3,-1
 433.978 1014.89 l 1,0,-1
EndSplineSet
EndChar

StartChar: uni00B9
Encoding: 185 185 107
Width: 266
GlyphClass: 2
Flags: W
LayerCount: 2
Fore
SplineSet
214.479 589 m 1,0,-1
 215.279 589 l 1,1,-1
 204.135 510 l 1,2,-1
 132.936 510 l 1,3,-1
 141.252 568.954 l 1,4,-1
 166.291 751.229 l 1,5,-1
 130.192 799.704 l 1,6,-1
 206.966 877.079 l 1,7,-1
 262.519 940.107 l 1,8,-1
 248.78 832.172 l 1,9,-1
 214.479 589 l 1,0,-1
EndSplineSet
EndChar

StartChar: guillemotright
Encoding: 187 187 108
Width: 530
GlyphClass: 2
Flags: W
LayerCount: 2
Fore
SplineSet
83.1592 465.934 m 1,0,-1
 264.27 289.635 l 1,1,-1
 30.1035 97.9873 l 1,2,-1
 51.2393 239.031 l 1,3,-1
 108.893 287.129 l 1,0,0
 64.042 330.409 l 1,1,-1
 83.1592 465.934 l 1,0,-1
249.005 467.676 m 1,2,-1
 431.201 292.748 l 1,3,-1
 195.982 99.9492 l 1,4,-1
 217.277 242.133 l 1,5,-1
 274.821 289.42 l 1,0,0
 230.081 333.521 l 1,1,-1
 249.005 467.676 l 1,2,-1
EndSplineSet
EndChar

StartChar: questiondown
Encoding: 191 191 109
Width: 486
GlyphClass: 2
Flags: W
LayerCount: 2
Fore
SplineSet
285.884 104.72 m 128,-1,2
 301.274 112.439 301.274 112.439 311.158 124.82 c 128,-1,3
 321.038 137.2 321.038 137.2 335.722 153.679 c 2,4,-1
 352.826 172.873 l 1,5,-1
 388.835 68.7666 l 1,6,-1
 379.416 57.7129 l 2,5,6
 345.944 18.4346 345.944 18.4346 308.094 -0.783203 c 128,-1,7
 270.242 -20 270.242 -20 222.096 -20 c 0,8,9
 144.495 -20 144.495 -20 105.555 35.7148 c 128,-1,10
 66.6133 91.4287 66.6133 91.4287 79.3896 182 c 0,11,12
 85.8477 227.78 85.8477 227.78 107.168 266.778 c 128,-1,13
 128.487 305.776 128.487 305.776 169.161 349.891 c 2,14,-1
 208.793 393.695 l 2,15,16
 241.043 430.3 241.043 430.3 247.712 447.197 c 128,-1,17
 254.383 464.095 254.383 464.095 261.281 513 c 2,18,-1
 261.446 514.173 l 1,19,-1
 269.662 549.104 l 1,20,-1
 379.078 556.091 l 1,21,-1
 370.083 501.697 l 2,21,22
 361.295 439.397 361.295 439.397 341.98 402.882 c 128,-1,23
 322.666 366.367 322.666 366.367 284.764 325.192 c 2,24,-1
 244.17 279.527 l 2,25,26
 235.894 269.815 235.894 269.815 227.837 262.077 c 128,-1,27
 219.781 254.339 219.781 254.339 212.702 244.906 c 128,-1,28
 205.622 235.474 205.622 235.474 199.893 226.805 c 128,-1,29
 194.161 218.136 194.161 218.136 190.971 210.528 c 128,-1,30
 187.781 202.921 187.781 202.921 186.914 196.78 c 2,0,0
 186.524 193.091 l 2,31,32
 180.817 145.346 180.817 145.346 195.355 121.173 c 0,33,34
 209.892 97 209.892 97 248.999 97 c 0,0,1
 270.492 97 270.492 97 285.884 104.72 c 128,-1,2
377.256 632.999 m 128,-1,35
 354.965 612.168 354.965 612.168 342.877 611.826 c 128,-1,36
 330.789 611.484 330.789 611.484 330.041 611.484 c 0,0,0
 307.317 611.484 307.317 611.484 290.876 631.559 c 128,-1,37
 274.437 651.633 274.437 651.633 279.566 688 c 0,38,39
 284.898 725.798 284.898 725.798 307.304 747.899 c 128,-1,40
 329.711 770 329.711 770 353.464 770 c 128,-1,41
 377.217 770 377.217 770 393.541 748.491 c 128,-1,42
 409.865 726.981 409.865 726.981 404.649 690 c 0,33,34
 399.547 653.829 399.547 653.829 377.256 632.999 c 128,-1,35
EndSplineSet
EndChar

StartChar: Odieresis
Encoding: 214 214 127
Width: 724
GlyphClass: 2
Flags: W
LayerCount: 2
Fore
SplineSet
332.465 -3 m 0
EndSplineSet
Refer: 50 79 N 1 0 0 1 0 0 2
Refer: 100 168 S 1 0 0 1 76.8 0 2
EndChar

StartChar: multiply
Encoding: 215 215 128
Width: 444
GlyphClass: 2
Flags: W
LayerCount: 2
Fore
SplineSet
319.28 360.138 m 1,0,0
 391.953 251.064 l 1,1,-1
 305.107 158.78 l 1,2,-1
 232.578 267.638 l 1,0,0
 140.012 167.572 l 1,1,-1
 79.1074 260 l 1,2,-1
 173.826 360.65 l 1,0,0
 103.932 460.65 l 1,1,-1
 191.105 553.284 l 1,2,-1
 258.222 451.431 l 1,0,0
 348.845 549.431 l 1,1,-1
 409.703 457.073 l 1,2,-1
 319.28 360.138 l 1,0,0
EndSplineSet
EndChar

StartChar: germandbls
Encoding: 223 223 130
Width: 456
GlyphClass: 2
Flags: W
LayerCount: 2
Fore
SplineSet
201.503 -19.9502 m 1,0,-1
 50.2998 -20 l 1,1,-1
 50.3828 -19.4121 l 1,2,-1
 11.041 -20.4121 l 1,3,-1
 113.793 708 l 1,4,-1
 294.637 708 l 1,5,-1
 296.7 706.051 l 1,6,7
 333.504 705.823 333.504 705.823 361.095 687.487 c 0,8,9
 390.689 667.818 390.689 667.818 404.92 635.814 c 0,10,11
 418.813 604.569 418.813 604.569 420.803 565.157 c 0,12,13
 422.008 541.308 422.008 541.308 418.765 518.314 c 0,14,15
 416.647 503.309 416.647 503.309 412.642 488.712 c 0,16,17
 402.282 450.959 402.282 450.959 378.149 418.089 c 0,18,19
 368.009 404.276 368.009 404.276 355.96 393.102 c 1,20,21
 373.606 383.956 373.606 383.956 386.996 366.51 c 0,22,23
 412.352 333.469 412.352 333.469 418.539 285.391 c 0,24,25
 423.398 247.643 423.398 247.643 417.455 205.504 c 0,26,27
 416.032 195.419 416.032 195.419 413.99 185.09 c 0,28,29
 403.402 131.519 403.402 131.519 378.278 85.8867 c 0,30,31
 352.299 38.7012 352.299 38.7012 307.255 8.75195 c 0,32,33
 265.308 -19.1377 265.308 -19.1377 215.602 -19.1377 c 0,34,35
 212.539 -19.1377 212.539 -19.1377 209.397 -19.0293 c 2,36,-1
 201.503 -19.9502 l 1,0,-1
245.193 596 m 1,37,-1
 199.567 596 l 1,38,-1
 175.081 424 l 1,39,-1
 189.731 424 l 2,40,41
 200.51 424 200.51 424 223.099 425.473 c 0,42,43
 225.576 425.634 225.576 425.634 235.53 426.098 c 0,44,45
 245.484 426.562 245.484 426.562 248.021 426.967 c 0,46,47
 271.028 430.637 271.028 430.637 288.44 448.797 c 0,48,49
 305.408 466.493 305.408 466.493 311.072 489.188 c 0,50,51
 313.191 497.683 313.191 497.683 314.38 506.111 c 0,52,53
 316.757 522.959 316.757 522.959 315.426 539.682 c 0,54,55
 313.63 562.229 313.63 562.229 299.32 578.146 c 0,56,57
 284.905 594.183 284.905 594.183 260.622 595.008 c 2,58,-1
 245.193 596 l 1,37,-1
159.423 314 m 1,59,-1
 131.093 115 l 1,60,-1
 238.143 115 l 2,61,62
 262.906 115 262.906 115 280.861 133.428 c 0,63,64
 299.382 152.435 299.382 152.435 305.854 180.271 c 0,65,66
 308.194 190.339 308.194 190.339 309.605 200.349 c 0,67,68
 312.605 221.612 312.605 221.612 311.424 242.716 c 0,69,70
 309.816 271.396 309.816 271.396 294.687 292.325 c 0,71,72
 280.311 312.211 280.311 312.211 256.842 313.007 c 2,73,-1
 241.349 313.533 l 1,74,-1
 174.214 314 l 1,75,-1
 159.423 314 l 1,59,-1
EndSplineSet
EndChar

StartChar: dotlessi
Encoding: 305 305 165
Width: 186
GlyphClass: 2
Flags: W
LayerCount: 2
Fore
SplineSet
85.8379 453 m 1,0,-1
 191.512 453 l 1,1,-1
 124.507 -22 l 1,2,-1
 20.5801 -22 l 1,3,-1
 85.8379 453 l 1,0,-1
EndSplineSet
EndChar

StartChar: jcircumflex
Encoding: 309 309 167
Width: 189
GlyphClass: 2
Flags: W
LayerCount: 2
Fore
SplineSet
75.4131 450 m 1,0,-1
 181.044 450 l 1,1,-1
 99.4961 -122 l 1,2,-1
 -5.27441 -122 l 1,3,-1
 75.4131 450 l 1,0,-1
EndSplineSet
Refer: 65 94 S 1 0 0 1 -120.937 -35 2
EndChar

StartChar: uni030A
Encoding: 778 778 174
Width: 138
GlyphClass: 2
Flags: W
LayerCount: 2
Fore
SplineSet
77.459 796.748 m 0,0,1
 77.1719 796.731 77.1719 796.731 77.1162 796.723 c 0,2,3
 76.7178 796.657 76.7178 796.657 75.252 795.914 c 0,4,5
 73.9365 795.248 73.9365 795.248 73.3379 791 c 0,6,7
 72.7598 786.9 72.7598 786.9 73.8457 786.102 c 0,8,9
 73.8584 786.093 73.8584 786.093 73.8652 786.086 c 1,10,11
 73.8535 786.102 73.8535 786.102 73.8457 786.102 c 1,12,13
 74.4854 785.681 74.4854 785.681 74.499 785.673 c 0,14,15
 74.8613 785.477 74.8613 785.477 75.4707 785.372 c 0,16,17
 76.5908 785.539 76.5908 785.539 78.0781 786.45 c 0,18,19
 80.0684 787.668 80.0684 787.668 80.6787 792 c 0,20,21
 81.082 794.857 81.082 794.857 79.8271 795.756 c 0,22,23
 79.6094 795.956 79.6094 795.956 78.9521 796.301 c 0,24,25
 78.4082 796.588 78.4082 796.588 77.459 796.748 c 0,0,1
77.459 796.748 m 1,26,-1
 77.459 796.748 l 1,26,-1
75.4707 785.372 m 1,27,-1
 75.4707 785.372 l 1,27,-1
35.3691 854.016 m 128,-1,10
 60.3027 875.211 60.3027 875.211 84.0723 875.211 c 0,0,0
 86.8408 875.211 86.8408 875.211 100.955 873.835 c 128,-1,11
 115.069 872.459 115.069 872.459 134.306 849.468 c 128,-1,12
 153.542 826.479 153.542 826.479 148.114 788 c 0,13,14
 142.428 747.688 142.428 747.688 116.458 723.913 c 128,-1,15
 90.4873 700.14 90.4873 700.14 76.8594 699.812 c 128,-1,16
 63.2314 699.486 63.2314 699.486 62.5371 699.486 c 0,0,0
 36.5332 699.486 36.5332 699.486 17.4092 723.086 c 128,-1,17
 -1.71289 746.688 -1.71289 746.688 4.39648 790 c 0,8,9
 10.4365 832.82 10.4365 832.82 35.3691 854.016 c 128,-1,10
EndSplineSet
EndChar

StartChar: Delta
Encoding: 916 916 175
Width: 592
GlyphClass: 2
Flags: W
LayerCount: 2
Fore
SplineSet
401.476 647.125 m 1,1,-1
 543.892 -19 l 1,2,-1
 443.383 -18.999 l 1,3,-1
 374.442 -19.999 l 1,4,-1
 154.251 -19.999 l 1,5,-1
 89.5928 -18.999 l 1,6,-1
 -10.4824 -19 l 1,7,-1
 317.591 663.621 l 1,8,-1
 372.336 782.365 l 1,9,-1
 401.476 647.125 l 1,1,-1
409.183 102 m 1,0,0
 329.729 463.068 l 1,0,0
 162.453 102 l 1,0,0
 409.183 102 l 1,0,0
EndSplineSet
EndChar

StartChar: beta
Encoding: 946 946 176
Width: 456
GlyphClass: 2
Flags: W
LayerCount: 2
Fore
SplineSet
103.415 -140 m 1,0,-1
 41.8359 -140 l 1,1,-1
 41.9189 -139.412 l 1,2,-1
 2.57812 -140.412 l 1,3,-1
 122.256 708 l 1,4,-1
 303.101 708 l 1,5,-1
 305.165 706.051 l 1,6,7
 341.968 705.823 341.968 705.823 369.558 687.487 c 0,8,9
 399.153 667.818 399.153 667.818 413.385 635.814 c 0,10,11
 427.277 604.569 427.277 604.569 429.267 565.157 c 0,12,13
 430.471 541.308 430.471 541.308 427.229 518.314 c 0,14,15
 425.11 503.309 425.11 503.309 421.105 488.712 c 0,16,17
 410.747 450.959 410.747 450.959 386.614 418.089 c 0,18,19
 376.473 404.276 376.473 404.276 364.424 393.102 c 1,20,21
 382.07 383.956 382.07 383.956 395.459 366.51 c 0,22,23
 420.815 333.469 420.815 333.469 427.003 285.391 c 0,24,25
 431.862 247.643 431.862 247.643 425.918 205.504 c 0,26,27
 424.495 195.419 424.495 195.419 422.454 185.09 c 0,28,29
 411.866 131.519 411.866 131.519 386.742 85.8867 c 0,30,31
 360.763 38.7012 360.763 38.7012 315.719 8.75195 c 0,32,33
 273.771 -19.1377 273.771 -19.1377 224.065 -19.1377 c 0,34,35
 221.004 -19.1377 221.004 -19.1377 217.86 -19.0293 c 2,36,-1
 209.967 -19.9502 l 1,37,-1
 120.473 -20 l 1,38,-1
 103.415 -140 l 1,0,-1
253.658 596 m 1,39,-1
 208.035 596 l 1,40,-1
 183.586 424 l 1,41,-1
 198.194 424 l 2,42,43
 208.974 424 208.974 424 231.562 425.473 c 0,44,45
 234.04 425.634 234.04 425.634 243.994 426.098 c 0,46,47
 253.948 426.562 253.948 426.562 256.484 426.967 c 0,48,49
 279.492 430.637 279.492 430.637 296.903 448.797 c 0,50,51
 313.871 466.493 313.871 466.493 319.535 489.188 c 0,52,53
 321.655 497.683 321.655 497.683 322.844 506.111 c 0,54,55
 325.221 522.959 325.221 522.959 323.889 539.682 c 0,56,57
 322.094 562.229 322.094 562.229 307.783 578.146 c 0,58,59
 293.368 594.183 293.368 594.183 269.085 595.008 c 2,60,-1
 253.658 596 l 1,39,-1
167.95 314 m 1,61,-1
 139.662 115 l 1,62,-1
 246.606 115 l 2,63,64
 271.37 115 271.37 115 289.326 133.428 c 0,65,66
 307.846 152.435 307.846 152.435 314.317 180.271 c 0,67,68
 316.658 190.339 316.658 190.339 318.07 200.349 c 0,69,70
 321.069 221.612 321.069 221.612 319.888 242.716 c 0,71,72
 318.28 271.396 318.28 271.396 303.149 292.325 c 0,73,74
 288.773 312.211 288.773 312.211 265.306 313.007 c 2,75,-1
 249.812 313.533 l 1,76,-1
 182.678 314 l 1,77,-1
 167.95 314 l 1,61,-1
EndSplineSet
EndChar

StartChar: quoteleft
Encoding: 8216 8216 177
Width: 169
GlyphClass: 2
Flags: W
LayerCount: 2
Fore
SplineSet
130.191 612.812 m 0,0,1
 127.006 594.893 127.006 594.893 118.995 582.134 c 0,2,3
 116.158 577.616 116.158 577.616 112.69 573.441 c 0,4,5
 96.8555 554.378 96.8555 554.378 78.5508 548.247 c 0,6,7
 72.6562 546.271 72.6562 546.271 67.0166 546.271 c 0,8,9
 51.4102 546.271 51.4102 546.271 40.9932 559.383 c 0,10,11
 36.9082 564.523 36.9082 564.523 34.666 569.261 c 0,12,13
 26.6191 586.258 26.6191 586.258 28.3965 614.306 c 0,14,15
 28.6592 618.45 28.6592 618.45 29.6875 625.734 c 0,16,17
 36.0771 671.034 36.0771 671.034 61.5645 709.838 c 0,18,19
 90.4082 753.749 90.4082 753.749 118.931 764.974 c 2,20,-1
 166.883 783.845 l 1,21,-1
 132.899 734.67 l 2,22,23
 125.269 723.626 125.269 723.626 120.293 693.444 c 2,24,-1
 119.555 688.598 l 2,25,26
 117.283 670.476 117.283 670.476 118.687 662.581 c 0,27,28
 119.016 660.729 119.016 660.729 119.504 659.479 c 0,29,30
 132.952 644.043 132.952 644.043 130.951 621.686 c 0,31,32
 130.922 621.367 130.922 621.367 130.713 617.969 c 0,33,34
 130.503 614.57 130.503 614.57 130.191 612.812 c 0,0,1
EndSplineSet
EndChar

StartChar: quoteright
Encoding: 8217 8217 178
Width: 167
GlyphClass: 2
Flags: W
LayerCount: 2
Fore
SplineSet
54.0049 691.885 m 0,0,0
 56.7725 711.509 56.7725 711.509 69.9648 730.121 c 128,-1,2
 83.1572 748.733 83.1572 748.733 96.1396 754.153 c 128,-1,3
 109.122 759.572 109.122 759.572 115.483 759.333 c 0,0,0
 125.758 758.948 125.758 758.948 133.777 753.523 c 0,1,2
 137.855 750.765 137.855 750.765 141.303 746.925 c 128,-1,4
 144.75 743.085 144.75 743.085 146.882 739.414 c 0,5,6
 147.864 737.722 147.864 737.722 148.742 735.895 c 0,7,8
 156.276 720.223 156.276 720.223 156.056 696.109 c 0,5,6
 155.97 686.667 155.97 686.667 154.182 673.99 c 0,0,0
 148.715 635.238 148.715 635.238 125.365 594.354 c 128,-1,7
 102.018 553.467 102.018 553.467 75.0332 539.693 c 2,8,9
 27.7217 515.546 l 1,10,-1
 58.6094 567.806 l 2,8,9
 63.6475 576.33 63.6475 576.33 66.7383 598.239 c 0,0,0
 67.665 604.807 67.665 604.807 68.7715 617.27 c 128,-1,10
 69.8779 629.733 69.8779 629.733 68.1152 638.41 c 0,11,12
 67.4756 641.558 67.4756 641.558 67.2705 641.753 c 0,11,12
 52.3623 655.98 52.3623 655.98 53.1992 679.141 c 0,0,0
 53.542 688.601 53.542 688.601 54.0049 691.885 c 0,0,0
EndSplineSet
EndChar

StartChar: quotedblleft
Encoding: 8220 8220 179
Width: 265
GlyphClass: 2
Flags: W
LayerCount: 2
Fore
SplineSet
241.222 616.918 m 0,0,0
 238.108 594.842 238.108 594.842 223.006 575.507 c 128,-1,2
 207.905 556.173 207.905 556.173 195.172 552.472 c 128,-1,3
 182.438 548.771 182.438 548.771 178.088 549 c 0,0,0
 166.201 549.625 166.201 549.625 157.806 556.138 c 0,1,2
 153.527 559.457 153.527 559.457 150.229 563.8 c 128,-1,4
 146.931 568.143 146.931 568.143 145.023 572.096 c 0,5,6
 144.554 573.069 144.554 573.069 143.412 575.788 c 0,7,8
 137.063 591.923 137.063 591.923 138.585 616.49 c 0,5,6
 138.725 618.723 138.725 618.723 139.593 624.882 c 0,0,0
 146.199 671.71 146.199 671.71 173.346 713.713 c 128,-1,7
 200.494 755.716 200.494 755.716 229.102 766.974 c 2,8,9
 279.594 786.845 l 1,10,-1
 242.718 736.173 l 2,8,9
 235.555 726.33 235.555 726.33 233.091 710.119 c 128,-1,10
 230.627 693.908 230.627 693.908 230.562 693.372 c 0,0,0
 228.066 673.146 228.066 673.146 229.316 665.086 c 0,1,2
 229.567 663.47 229.567 663.47 229.947 662.33 c 1,0,0
 243.797 646.358 243.797 646.358 241.894 623.77 c 0,0,1
 241.455 618.57 241.455 618.57 241.222 616.918 c 0,0,0
142.479 612.812 m 0,0,1
 139.294 594.893 139.294 594.893 131.283 582.134 c 0,2,3
 128.447 577.616 128.447 577.616 124.979 573.441 c 0,4,5
 109.144 554.378 109.144 554.378 90.8389 548.247 c 0,6,7
 84.9443 546.271 84.9443 546.271 79.3047 546.271 c 0,8,9
 63.6982 546.271 63.6982 546.271 53.2822 559.383 c 0,10,11
 49.1973 564.523 49.1973 564.523 46.9541 569.261 c 0,12,13
 38.9072 586.258 38.9072 586.258 40.6846 614.306 c 0,14,15
 40.9482 618.45 40.9482 618.45 41.9756 625.734 c 0,16,17
 48.3652 671.034 48.3652 671.034 73.8525 709.838 c 0,18,19
 102.696 753.749 102.696 753.749 131.219 764.974 c 2,20,-1
 179.172 783.845 l 1,21,-1
 145.188 734.67 l 2,22,23
 137.557 723.626 137.557 723.626 132.581 693.444 c 2,24,-1
 131.844 688.598 l 2,25,26
 129.571 670.476 129.571 670.476 130.976 662.581 c 0,27,28
 131.305 660.729 131.305 660.729 131.792 659.479 c 0,29,30
 145.241 644.043 145.241 644.043 143.239 621.686 c 0,31,32
 143.211 621.367 143.211 621.367 143.001 617.969 c 0,33,34
 142.791 614.57 142.791 614.57 142.479 612.812 c 0,0,1
EndSplineSet
EndChar

StartChar: quotedblright
Encoding: 8221 8221 180
Width: 318
GlyphClass: 2
Flags: W
LayerCount: 2
Fore
SplineSet
175.81 694.458 m 0,0,0
 177.498 703.664 177.498 703.664 179.175 708.651 c 0,1,2
 179.952 710.964 179.952 710.964 180.873 713.243 c 0,3,4
 184.451 722.102 184.451 722.102 194.763 737.021 c 128,-1,2
 205.075 751.943 205.075 751.943 218.034 756.888 c 128,-1,3
 230.994 761.832 230.994 761.832 236.978 761.613 c 0,0,0
 247.206 761.238 247.206 761.238 255.239 756.073 c 0,1,2
 259.4 753.396 259.4 753.396 262.907 749.67 c 128,-1,4
 266.413 745.943 266.413 745.943 268.593 742.311 c 0,5,6
 278.174 726.333 278.174 726.333 277.921 699.08 c 0,5,6
 277.832 689.654 277.832 689.654 275.995 676.625 c 0,0,0
 270.446 637.291 270.446 637.291 247.234 597.028 c 128,-1,7
 224.023 556.765 224.023 556.765 197.276 541.97 c 2,8,9
 147.659 514.521 l 1,10,-1
 180.333 569.805 l 2,8,9
 185.372 578.33 185.372 578.33 188.463 600.239 c 0,0,0
 189.382 606.755 189.382 606.755 190.534 619.661 c 128,-1,10
 191.687 632.567 191.687 632.567 189.716 641.662 c 0,11,12
 189.193 644.072 189.193 644.072 188.487 645.363 c 0,0,0
 174.332 659.507 174.332 659.507 175.059 682.028 c 0,0,0
 175.385 692.135 175.385 692.135 175.81 694.458 c 0,0,0
67.4463 691.885 m 0,0,0
 70.2158 711.509 70.2158 711.509 83.4072 730.121 c 128,-1,15
 96.5996 748.733 96.5996 748.733 109.582 754.153 c 128,-1,16
 122.564 759.572 122.564 759.572 128.926 759.333 c 0,0,0
 139.199 758.948 139.199 758.948 147.221 753.523 c 0,1,2
 151.297 750.765 151.297 750.765 154.745 746.925 c 128,-1,17
 158.192 743.085 158.192 743.085 160.324 739.414 c 0,18,19
 161.307 737.722 161.307 737.722 162.186 735.895 c 0,20,21
 169.72 720.223 169.72 720.223 169.498 696.109 c 0,18,19
 169.412 686.667 169.412 686.667 167.624 673.99 c 0,0,0
 162.158 635.238 162.158 635.238 138.809 594.354 c 128,-1,20
 115.46 553.467 115.46 553.467 88.4756 539.693 c 2,21,22
 41.1641 515.546 l 1,23,-1
 72.0518 567.806 l 2,21,22
 77.0908 576.33 77.0908 576.33 80.1807 598.239 c 0,0,0
 81.1074 604.807 81.1074 604.807 82.2139 617.27 c 128,-1,23
 83.3193 629.733 83.3193 629.733 81.5576 638.41 c 0,24,25
 80.9189 641.558 80.9189 641.558 80.7129 641.753 c 0,24,25
 65.8037 655.98 65.8037 655.98 66.6416 679.141 c 0,0,0
 66.9844 688.601 66.9844 688.601 67.4463 691.885 c 0,0,0
EndSplineSet
EndChar

StartChar: Euro
Encoding: 8364 8364 182
Width: 644
Flags: W
LayerCount: 2
Fore
SplineSet
546.671 313 m 1,0,-1
 493.754 191 l 1,1,-1
 48.4805 191 l 1,2,-1
 101.396 313 l 1,3,-1
 546.671 313 l 1,0,-1
611.865 475 m 1,4,-1
 556.538 355 l 1,5,-1
 77.2822 355 l 1,6,-1
 125.409 475 l 1,7,-1
 611.865 475 l 1,4,-1
678.064 648.726 m 1,8,-1
 619.993 506.3 l 1,9,-1
 608.336 547.652 l 2,14,15
 604.219 562.259 604.219 562.259 574.433 578.456 c 0,16,17
 549.854 591.822 549.854 591.822 502.829 594.014 c 0,18,19
 499.298 594.178 499.298 594.178 495.759 594.178 c 0,0,0
 439.571 594.178 439.571 594.178 378.051 551.141 c 128,-1,20
 316.529 508.104 316.529 508.104 279.705 436.541 c 0,21,22
 252.074 382.843 252.074 382.843 244.706 330.611 c 0,0,0
 238.989 290.082 238.989 290.082 249.597 224.59 c 128,-1,23
 260.205 159.098 260.205 159.098 331.285 114.128 c 0,24,25
 366.405 91.9092 366.405 91.9092 386.507 91.459 c 129,-1,26
 406.61 91.0088 406.61 91.0088 408.67 90.9785 c 0,27,28
 410.729 90.9473 410.729 90.9473 411.56 90.9473 c 0,0,0
 450.923 90.9473 450.923 90.9473 489.384 107.376 c 128,-1,27
 527.846 123.806 527.846 123.806 567.335 156.084 c 2,28,-1
 596.171 179.652 l 1,29,-1
 575.364 32.1523 l 1,30,-1
 569.286 26.2012 l 2,29,30
 524.708 -17.458 524.708 -17.458 496.188 -24.666 c 128,-1,31
 467.667 -31.875 467.667 -31.875 435.925 -34.2441 c 128,-1,32
 404.182 -36.6133 404.182 -36.6133 389.463 -36.6133 c 0,0,0
 357.795 -36.6133 357.795 -36.6133 322.103 -29.9443 c 128,-1,33
 286.409 -23.2764 286.409 -23.2764 260.412 -4.76953 c 0,34,35
 154.291 70.7764 154.291 70.7764 140.338 166.791 c 128,-1,36
 126.386 262.805 126.386 262.805 134.618 321.162 c 0,0,0
 146.334 404.22 146.334 404.22 191.26 491.469 c 0,37,38
 248.197 602.041 248.197 602.041 335.03 661.209 c 128,-1,40
 421.863 720.378 421.863 720.378 508.241 720.378 c 0,0,0
 514.64 720.378 514.64 720.378 522.646 719.983 c 0,8,9
 571.022 717.595 571.022 717.595 625.463 688.052 c 0,0,0
 655.255 671.884 655.255 671.884 669.615 657.304 c 2,10,11
 678.064 648.726 l 1,8,-1
EndSplineSet
EndChar

StartChar: brokenbar
Encoding: 166 166 187
Width: 186
Flags: W
LayerCount: 2
Fore
SplineSet
53.6729 335 m 1,0,-1
 152.722 335 l 1,1,-1
 105.349 -20 l 1,2,-1
 3.5957 -20 l 1,3,-1
 53.6729 335 l 1,0,-1
108.269 716 m 1,4,-1
 207.468 716 l 1,5,-1
 157.335 367 l 1,6,-1
 58.1348 367 l 1,7,-1
 108.269 716 l 1,4,-1
EndSplineSet
EndChar

